<svg width="432" height="320" viewBox="0 0 432 320" fill="none" xmlns="http://www.w3.org/2000/svg">
<path d="M215.999 293.684C102.656 293.684 10.7728 283.471 10.7728 270.873C10.7728 258.275 102.656 248.062 215.999 248.062C329.342 248.062 421.225 258.275 421.225 270.873C421.225 283.471 329.342 293.684 215.999 293.684Z" fill="#EFECF3"/>
<path d="M405.422 229.982L358.066 229.774L310.71 229.696L215.999 229.557L121.287 229.696L73.931 229.774L26.5752 229.982L73.931 230.199L121.287 230.278L215.999 230.417L310.71 230.278L358.066 230.199L405.422 229.982Z" fill="#1F1B2D"/>
<path d="M73.0833 50.0933H360.363V243.15H73.0833V50.0933Z" fill="#D5D2DC"/>
<path d="M75.1732 52.4456H358.271V240.789H75.1732V52.4456Z" fill="#666276"/>
<path d="M35.6722 257.619H397.783V270.864H35.6722V257.619Z" fill="#D5D2DC"/>
<path d="M397.783 257.619L360.363 243.15H73.0834L35.6722 257.619H397.783Z" fill="#D5D2DC"/>
<path d="M357.02 252.489L332.879 243.15H100.567L76.4269 252.489H357.02Z" fill="#666276"/>
<path d="M91.1749 66.7585H342.279V226.484H91.1749V66.7585Z" fill="white"/>
<path d="M91.1661 66.7585H342.486V72.9038H91.1661V66.7585Z" fill="#BBB7C5"/>
<path d="M337.623 69.8311C337.623 70.1333 337.712 70.4286 337.879 70.6798C338.046 70.9311 338.284 71.1269 338.561 71.2425C338.839 71.3581 339.145 71.3884 339.44 71.3294C339.735 71.2705 340.006 71.125 340.219 70.9113C340.431 70.6977 340.576 70.4255 340.635 70.1292C340.694 69.8328 340.663 69.5257 340.548 69.2465C340.433 68.9674 340.238 68.7288 339.988 68.5609C339.738 68.3931 339.444 68.3035 339.143 68.3035C338.943 68.3023 338.745 68.3411 338.56 68.4174C338.375 68.4938 338.207 68.6063 338.066 68.7484C337.924 68.8904 337.812 69.0593 337.736 69.2452C337.66 69.431 337.622 69.6302 337.623 69.8311Z" fill="#D5D2DC"/>
<path d="M332.948 71.3587C332.108 71.3587 331.427 70.6748 331.427 69.8311C331.427 68.9874 332.108 68.3035 332.948 68.3035C333.788 68.3035 334.469 68.9874 334.469 69.8311C334.469 70.6748 333.788 71.3587 332.948 71.3587Z" fill="white"/>
<path d="M325.234 69.8311C325.234 70.1333 325.323 70.4286 325.49 70.6798C325.657 70.9311 325.895 71.1269 326.173 71.2425C326.451 71.3581 326.756 71.3884 327.051 71.3294C327.346 71.2705 327.617 71.125 327.83 70.9113C328.043 70.6977 328.187 70.4255 328.246 70.1292C328.305 69.8328 328.275 69.5257 328.16 69.2465C328.045 68.9674 327.85 68.7288 327.6 68.5609C327.35 68.3931 327.056 68.3035 326.755 68.3035C326.555 68.3023 326.356 68.3411 326.171 68.4174C325.986 68.4938 325.818 68.6063 325.677 68.7484C325.536 68.8904 325.424 69.0593 325.348 69.2452C325.272 69.431 325.233 69.6302 325.234 69.8311Z" fill="#FD5631"/>
<path d="M286.319 53.4351C295.468 65.5868 296.047 83.5801 296.047 83.5801C296.047 83.5801 303.771 102.676 299.564 111.85C298.425 114.463 296.674 116.759 294.459 118.543C292.244 120.327 289.632 121.545 286.846 122.092L288.574 116.937C288.574 116.937 284.184 123.255 272.348 124.375C260.511 125.495 245.875 119.784 238.565 114.654C234.224 111.643 230.735 107.551 228.439 102.78L230.305 110.904C230.305 110.904 219.246 108.925 214.33 96.1484C209.414 83.3717 230.746 68.9719 232.906 65.526C235.066 62.0802 240.864 35.5807 268.261 44.2084C268.278 44.1737 280.02 45.059 286.319 53.4351Z" fill="#1F1B2D"/>
<path d="M290.982 121.98C294.369 120.929 297.453 118.065 299.501 115.235C301.703 112.264 302.85 108.636 302.758 104.932C302.594 100.488 300.857 96.3393 299.172 92.2946C297.444 88.1109 295.379 84.0401 293.712 79.839C293.626 79.6047 293.971 79.4745 294.101 79.6654C296.18 82.9592 298.07 86.3702 299.76 89.8816C301.54 93.1243 302.938 96.5645 303.924 100.132C304.846 103.421 304.81 106.906 303.821 110.175C302.892 112.829 301.329 115.214 299.268 117.119C296.84 119.41 293.971 120.695 291.094 122.275C291.075 122.282 291.054 122.286 291.034 122.285C291.013 122.284 290.993 122.28 290.974 122.271C290.955 122.263 290.938 122.251 290.924 122.236C290.909 122.221 290.898 122.203 290.891 122.183C290.884 122.164 290.88 122.143 290.881 122.123C290.881 122.102 290.886 122.082 290.894 122.063C290.903 122.044 290.915 122.027 290.93 122.012C290.945 121.998 290.962 121.987 290.982 121.98Z" fill="#454056"/>
<path d="M213.707 83.5629C218.467 74.18 228.179 69.1804 234.763 61.3512C238.331 57.1068 241.312 52.2721 245.666 48.7655C245.787 48.6787 245.943 48.8783 245.83 48.9738C242.21 52.1767 239.782 56.2909 236.957 60.1447C233.983 63.9439 230.637 67.4333 226.969 70.5605C220.463 76.4628 212.687 83.4327 212.635 92.9891C212.635 97.4072 214.484 102.537 218.683 104.542C218.839 104.611 218.683 104.88 218.545 104.785C216.901 103.835 215.467 102.559 214.331 101.034C213.195 99.5084 212.38 97.7665 211.936 95.9142C211.026 91.7172 211.655 87.3315 213.707 83.5629Z" fill="#1F1B2D"/>
<path d="M212.921 86.1579C213.153 82.38 214.541 78.7663 216.896 75.8116C219.28 72.9039 222.65 71.0464 225.976 69.4406C229.821 67.5918 233.83 65.8993 236.586 62.4968C236.699 62.3492 236.897 62.5488 236.785 62.6877C232.387 68.3122 225.259 70.2131 219.98 74.7179C213.932 79.8738 212.723 88.4581 215.349 95.7144C217.046 100.147 219.761 104.114 223.272 107.293C223.333 107.345 223.272 107.441 223.186 107.38C217.172 102.068 212.282 94.5253 212.921 86.1579Z" fill="#1F1B2D"/>
<path d="M260.922 128.689C251.824 138.289 205.073 183.701 184.666 179.466C159.929 174.336 131.201 159.216 119.987 148.47C113.697 142.455 144.015 112.015 150.339 116.711C160.301 124.123 184.303 136.449 188.528 138.185C192.753 139.921 228.496 121.406 249.336 114.168C268.102 107.606 267.325 121.927 260.922 128.689Z" fill="#EDA79E"/>
<path d="M102.89 134.817C108.377 142.169 125.458 152.784 130.538 153.756C135.619 154.728 154.575 126.154 152.873 121.077C151.171 115.999 130.78 92.7024 121.769 90.3675C112.757 88.0327 97.1965 127.205 102.89 134.817Z" fill="#EDA79E"/>
<path d="M150.117 116.485C150.117 116.485 146.877 104.984 147.525 94.4818C148.095 85.6458 149.936 72.5913 145.218 72.1053C135.533 71.1071 130.954 103.665 130.954 103.665C130.954 103.665 131.239 118.36 140.743 120.157C146.73 121.363 150.117 116.485 150.117 116.485Z" fill="#EDA79E"/>
<path d="M134.945 96.7647C135.429 101.608 129.467 99.412 129.467 99.412C129.467 99.412 137.243 104.62 135.861 109.828C134.478 114.819 127.376 111.902 126.858 111.703C127.273 111.989 134.331 116.997 132.362 122.058C130.314 127.318 123.722 123.169 123.255 122.926C123.566 123.308 127.514 128.507 125.147 132.013C121.086 138.037 110.615 125.07 104.765 124.653C104.765 124.653 102.994 134.548 102.89 134.826C102.89 134.826 92.678 122.674 93.6198 114.749C93.7404 113.597 94.2489 112.521 95.0612 111.699C95.8734 110.876 96.9408 110.357 98.0867 110.227C98.0867 110.227 94.3628 106.668 95.7798 102.632C96.5142 100.558 100.471 99.8981 100.471 99.8981C100.471 99.8981 97.6028 96.9296 99.0889 93.4143C100.273 90.6107 104.048 90.385 104.048 90.385C104.048 90.385 102.623 86.2448 104.748 83.771C109.042 78.7628 133.917 86.3923 134.945 96.7647Z" fill="#EDA79E"/>
<path d="M104.643 90.2461C104.625 90.2461 104.608 90.2387 104.595 90.2257C104.582 90.2127 104.574 90.195 104.574 90.1766C104.574 90.1582 104.582 90.1405 104.595 90.1275C104.608 90.1145 104.625 90.1072 104.643 90.1072C113.43 90.6106 122.934 93.8742 129.795 99.4901C130.019 99.681 129.795 100.124 129.535 99.9674C121.371 95.5321 113.759 92.2598 104.643 90.2461Z" fill="#454056"/>
<path d="M100.357 99.8026C100.262 99.8026 100.297 99.6204 100.357 99.6204C109.412 100.193 120.005 104.16 127.141 111.572C127.383 111.824 127.349 112.302 127.046 112.032C121.983 107.467 108.574 101.573 100.357 99.8026Z" fill="#454056"/>
<path d="M123.547 123.603C116.419 116.763 107.823 112.9 98.431 110.218C98.31 110.218 98.3705 110.01 98.4828 110.01C103.434 110.071 109.248 112.406 113.611 114.61C117.702 116.586 121.21 119.599 123.789 123.351C123.919 123.498 123.729 123.75 123.547 123.603Z" fill="#454056"/>
<path d="M129.595 99.3687C129.863 99.5856 129.241 99.7419 129.509 99.9676C130.614 100.94 136.766 107.337 135.254 110.114C134.027 112.345 130.2 112.241 128.748 111.625L125.085 110.071L127.988 112.805C129.282 114.012 130.373 115.422 131.219 116.98C131.654 117.679 131.935 118.464 132.045 119.281C132.156 120.098 132.092 120.929 131.859 121.719C131.633 122.446 131.168 123.074 130.54 123.5C129.912 123.926 129.158 124.125 128.403 124.063C126.707 123.879 125.086 123.263 123.694 122.275L119.763 119.671L122.64 123.429C123.437 124.465 124.1 125.6 124.61 126.806C125.139 127.93 125.325 129.186 125.145 130.416C125.043 130.966 124.79 131.476 124.415 131.889C124.039 132.301 123.556 132.6 123.02 132.751C121.769 132.909 120.499 132.707 119.357 132.17C116.879 131.032 114.493 129.703 112.22 128.194C111.045 127.474 109.861 126.753 108.643 126.085C107.464 125.344 106.142 124.862 104.764 124.67C106.093 125.005 107.346 125.594 108.453 126.406C109.602 127.153 110.717 127.96 111.831 128.776C114.051 130.471 116.423 131.956 118.916 133.211C120.254 133.924 121.771 134.226 123.279 134.079C124.089 133.906 124.83 133.499 125.414 132.908C125.997 132.318 126.396 131.57 126.562 130.755C126.824 129.234 126.632 127.67 126.009 126.259C125.463 124.906 124.742 123.631 123.867 122.466L122.795 123.603C124.425 124.798 126.337 125.546 128.342 125.773C129.459 125.856 130.569 125.549 131.487 124.905C132.366 124.248 133.028 123.34 133.388 122.301C133.684 121.301 133.765 120.249 133.626 119.215C133.488 118.181 133.133 117.189 132.584 116.303C131.635 114.6 130.408 113.069 128.956 111.772L128.195 112.953C130.07 113.682 134.338 114.263 136.662 111.043C139.099 106.365 131.15 100.358 129.595 99.3687Z" fill="#454056"/>
<path d="M129.467 99.4121C130.455 99.564 131.46 99.564 132.448 99.4121C132.844 99.3629 133.221 99.2083 133.538 98.9642C133.856 98.7201 134.103 98.3953 134.253 98.0233C134.466 97.1625 134.427 96.2585 134.141 95.4193C133.873 94.4732 133.536 93.5011 133.156 92.5029C133.984 93.2005 134.658 94.0637 135.135 95.0374C135.715 96.0981 135.854 97.3458 135.523 98.5094C135.281 99.1239 134.855 99.6483 134.305 100.011C133.783 100.325 133.186 100.49 132.577 100.488C131.452 100.474 130.362 100.097 129.467 99.4121Z" fill="#454056"/>
<path d="M157.591 119.879L122.47 159.754C122.47 159.754 174.604 185.394 191.59 181.454C208.576 177.513 243.646 150.953 258.982 131.979C274.318 113.005 265.03 107.727 243.663 114.827C222.296 121.928 192.091 135.789 189.024 135.659C185.957 135.529 157.591 119.879 157.591 119.879Z" fill="#FD5631"/>
<path d="M122.466 159.754C122.466 159.754 174.599 185.386 191.586 181.454C202.161 179.015 219.735 167.792 235.2 155.076C235.266 155.036 235.327 154.99 235.382 154.937C244.696 147.264 253.232 139.07 258.986 131.944C263.972 125.79 266.348 121.077 266.572 117.761C266.628 117.142 266.584 116.518 266.443 115.912C265.25 110.704 256.705 110.479 243.668 114.81C222.275 121.901 192.095 135.763 189.02 135.642C185.944 135.52 157.596 119.879 157.596 119.879L122.466 159.754Z" fill="#FD5631"/>
<path d="M217.447 155.805C216.791 155.578 216.085 155.539 215.408 155.692C215.039 155.831 214.719 156.078 214.491 156.401C214.263 156.725 214.137 157.11 214.13 157.506C214.136 157.769 214.075 158.029 213.952 158.262C213.83 158.494 213.65 158.691 213.43 158.834C213.188 158.995 212.907 159.088 212.618 159.103C212.289 159.164 211.97 159.198 211.641 159.285C212.303 159.52 213.02 159.548 213.698 159.363C214.056 159.21 214.361 158.953 214.575 158.625C214.788 158.298 214.901 157.915 214.898 157.523C214.906 157.262 214.979 157.006 215.11 156.78C215.241 156.554 215.427 156.365 215.65 156.23C215.912 156.074 216.21 155.99 216.514 155.987C216.799 155.926 217.128 155.891 217.447 155.805Z" fill="white"/>
<path d="M263.37 119.089C264.029 119.32 264.741 119.35 265.417 119.176C265.707 119.058 265.963 118.87 266.163 118.63C266.363 118.389 266.502 118.103 266.566 117.796C266.622 117.177 266.578 116.552 266.437 115.947C266.077 116.31 265.87 116.798 265.858 117.31C265.862 117.573 265.799 117.833 265.675 118.066C265.551 118.298 265.37 118.495 265.149 118.638C264.909 118.795 264.632 118.888 264.346 118.907C264.018 118.968 263.698 119.002 263.37 119.089Z" fill="white"/>
<path d="M168.061 142.064C167.4 141.845 166.692 141.809 166.013 141.96C165.643 142.098 165.323 142.345 165.097 142.669C164.87 142.993 164.746 143.378 164.743 143.774C164.745 144.038 164.681 144.297 164.557 144.529C164.434 144.761 164.254 144.958 164.034 145.102C163.792 145.261 163.511 145.351 163.222 145.363C162.903 145.432 162.574 145.467 162.255 145.554C162.914 145.787 163.627 145.814 164.302 145.632C164.663 145.478 164.97 145.22 165.185 144.891C165.4 144.562 165.514 144.177 165.512 143.783C165.516 143.523 165.586 143.268 165.716 143.043C165.846 142.818 166.032 142.631 166.255 142.498C166.515 142.338 166.814 142.254 167.119 142.255C167.413 142.186 167.732 142.151 168.061 142.064Z" fill="white"/>
<path d="M133.916 156.56C133.258 156.34 132.554 156.304 131.877 156.456C131.508 156.592 131.188 156.838 130.96 157.16C130.731 157.482 130.605 157.866 130.598 158.261C130.604 158.525 130.543 158.787 130.421 159.021C130.298 159.255 130.119 159.453 129.898 159.598C129.656 159.756 129.375 159.846 129.086 159.858C128.758 159.919 128.438 159.962 128.11 160.049C128.773 160.277 129.488 160.304 130.166 160.127C130.526 159.973 130.832 159.715 131.046 159.386C131.259 159.057 131.371 158.671 131.367 158.279C131.375 158.017 131.447 157.761 131.579 157.536C131.71 157.31 131.896 157.12 132.119 156.985C132.381 156.832 132.679 156.751 132.983 156.751C133.233 156.681 133.562 156.647 133.916 156.56Z" fill="white"/>
<path d="M200.332 165.96C199.671 165.741 198.964 165.705 198.284 165.856C197.908 165.994 197.582 166.244 197.35 166.573C197.119 166.901 196.992 167.293 196.988 167.696C196.994 167.959 196.932 168.219 196.81 168.451C196.687 168.684 196.508 168.881 196.289 169.024C196.046 169.182 195.765 169.272 195.476 169.285C195.148 169.354 194.828 169.389 194.5 169.476C195.162 169.707 195.879 169.735 196.556 169.554C196.916 169.399 197.222 169.141 197.436 168.812C197.65 168.483 197.761 168.098 197.757 167.705C197.765 167.444 197.837 167.19 197.969 166.965C198.1 166.741 198.286 166.553 198.509 166.42C198.769 166.26 199.068 166.176 199.373 166.177C199.684 166.108 200.012 166.064 200.332 165.96Z" fill="white"/>
<path d="M237.793 118.273C237.132 118.054 236.425 118.018 235.745 118.169C235.377 118.308 235.059 118.556 234.832 118.88C234.606 119.203 234.481 119.588 234.475 119.983C234.477 120.246 234.414 120.506 234.29 120.738C234.166 120.97 233.986 121.167 233.767 121.311C233.525 121.472 233.244 121.565 232.955 121.58C232.635 121.641 232.307 121.676 231.978 121.762C232.64 121.998 233.357 122.025 234.035 121.841C234.393 121.687 234.698 121.43 234.912 121.103C235.125 120.775 235.238 120.392 235.236 120C235.241 119.739 235.313 119.482 235.445 119.256C235.576 119.03 235.763 118.841 235.987 118.707C236.249 118.551 236.547 118.467 236.851 118.464C237.136 118.403 237.465 118.36 237.793 118.273Z" fill="white"/>
<path d="M156.848 164.085C157.154 164.712 157.626 165.241 158.214 165.613C158.572 165.778 158.971 165.83 159.36 165.763C159.748 165.697 160.107 165.514 160.391 165.24C160.574 165.051 160.801 164.912 161.052 164.834C161.302 164.757 161.568 164.744 161.825 164.797C162.108 164.858 162.371 164.992 162.585 165.188C162.862 165.37 163.112 165.578 163.406 165.743C163.035 165.214 162.758 164.563 162.007 164.233C161.644 164.086 161.246 164.05 160.863 164.131C160.48 164.211 160.129 164.404 159.855 164.684C159.668 164.865 159.438 164.995 159.187 165.062C158.936 165.128 158.673 165.13 158.421 165.066C158.139 164.993 157.881 164.85 157.669 164.649C157.393 164.458 157.134 164.224 156.848 164.085Z" fill="white"/>
<path d="M197.903 147.732C198.209 148.361 198.685 148.891 199.277 149.26C199.634 149.424 200.032 149.476 200.419 149.41C200.805 149.343 201.163 149.161 201.446 148.887C201.629 148.698 201.856 148.559 202.106 148.481C202.357 148.404 202.623 148.391 202.88 148.444C203.163 148.505 203.425 148.639 203.64 148.835C203.917 149.017 204.176 149.225 204.461 149.39C204.089 148.861 203.813 148.21 203.07 147.88C202.707 147.733 202.309 147.698 201.926 147.778C201.543 147.858 201.193 148.051 200.919 148.331C200.729 148.511 200.498 148.641 200.246 148.707C199.994 148.774 199.729 148.776 199.476 148.713C199.194 148.64 198.936 148.497 198.724 148.297C198.448 148.14 198.197 147.941 197.903 147.732Z" fill="white"/>
<path d="M177.936 156.69C178.244 157.315 178.716 157.843 179.301 158.218C179.66 158.383 180.06 158.434 180.449 158.366C180.838 158.298 181.197 158.113 181.479 157.836C181.661 157.647 181.889 157.508 182.14 157.432C182.391 157.356 182.657 157.345 182.913 157.402C183.197 157.459 183.461 157.594 183.673 157.793C183.95 157.975 184.2 158.183 184.537 158.348C184.166 157.819 183.889 157.168 183.137 156.838C182.775 156.692 182.378 156.656 181.996 156.735C181.613 156.814 181.262 157.003 180.986 157.28C180.8 157.463 180.571 157.595 180.319 157.662C180.068 157.728 179.803 157.729 179.552 157.662C179.267 157.591 179.006 157.447 178.792 157.246C178.48 157.063 178.221 156.855 177.936 156.69Z" fill="white"/>
<path d="M152.111 127.205C152.422 127.83 152.897 128.358 153.485 128.732C153.843 128.897 154.242 128.95 154.631 128.883C155.019 128.816 155.379 128.634 155.662 128.359C155.845 128.17 156.072 128.03 156.323 127.953C156.573 127.875 156.84 127.863 157.096 127.917C157.378 127.981 157.64 128.115 157.857 128.307C158.125 128.489 158.384 128.698 158.721 128.863C158.341 128.333 158.073 127.682 157.321 127.352C156.958 127.206 156.56 127.17 156.177 127.25C155.794 127.331 155.444 127.523 155.17 127.804C154.982 127.984 154.752 128.113 154.501 128.18C154.251 128.247 153.987 128.249 153.735 128.186C153.434 128.117 153.155 127.974 152.923 127.769C152.655 127.578 152.405 127.378 152.111 127.205Z" fill="white"/>
<path d="M250.651 125.165C250.433 125.829 250.397 126.54 250.547 127.222C250.686 127.592 250.932 127.912 251.255 128.14C251.577 128.367 251.959 128.492 252.353 128.498C252.615 128.496 252.874 128.56 253.105 128.684C253.336 128.809 253.532 128.989 253.675 129.21C253.835 129.453 253.928 129.735 253.943 130.026C254.003 130.347 254.038 130.677 254.124 131.007C254.358 130.342 254.386 129.621 254.202 128.941C254.049 128.581 253.793 128.274 253.468 128.06C253.142 127.845 252.76 127.732 252.37 127.734C252.11 127.727 251.856 127.654 251.631 127.522C251.406 127.39 251.217 127.203 251.083 126.979C250.928 126.716 250.844 126.417 250.841 126.111C250.781 125.799 250.746 125.469 250.651 125.165Z" fill="white"/>
<path d="M146.426 150.094C146.207 150.757 146.172 151.468 146.322 152.151C146.46 152.521 146.706 152.842 147.028 153.07C147.351 153.297 147.734 153.422 148.128 153.427C148.391 153.421 148.65 153.484 148.882 153.608C149.113 153.733 149.309 153.916 149.45 154.138C149.609 154.378 149.698 154.658 149.709 154.945C149.778 155.275 149.813 155.596 149.899 155.926C150.131 155.264 150.159 154.547 149.977 153.869C149.824 153.507 149.567 153.198 149.24 152.982C148.912 152.766 148.528 152.652 148.136 152.654C147.877 152.648 147.623 152.576 147.399 152.444C147.175 152.312 146.989 152.124 146.858 151.899C146.705 151.651 146.621 151.366 146.616 151.074C146.555 150.744 146.512 150.415 146.426 150.094Z" fill="white"/>
<path d="M175.691 171.68C175.472 172.344 175.436 173.054 175.587 173.737C175.724 174.109 175.969 174.43 176.292 174.658C176.614 174.885 176.998 175.009 177.393 175.013C177.655 175.011 177.913 175.075 178.144 175.199C178.375 175.324 178.571 175.504 178.715 175.725C178.872 175.968 178.962 176.25 178.974 176.541C179.043 176.862 179.077 177.192 179.164 177.521C179.395 176.856 179.422 176.137 179.242 175.456C179.088 175.094 178.831 174.787 178.503 174.572C178.176 174.357 177.792 174.245 177.401 174.249C177.142 174.242 176.889 174.169 176.665 174.037C176.442 173.905 176.255 173.718 176.123 173.494C175.963 173.233 175.879 172.932 175.881 172.626C175.812 172.34 175.777 172.036 175.691 171.68Z" fill="white"/>
<path d="M180.805 135.208C180.586 135.871 180.55 136.582 180.701 137.265C180.838 137.636 181.084 137.957 181.406 138.185C181.729 138.413 182.112 138.537 182.507 138.541C182.769 138.538 183.027 138.602 183.258 138.727C183.489 138.851 183.685 139.032 183.829 139.252C183.986 139.496 184.076 139.778 184.088 140.068C184.157 140.389 184.192 140.719 184.278 141.04C184.51 140.378 184.537 139.661 184.356 138.983C184.202 138.621 183.946 138.312 183.618 138.096C183.291 137.88 182.907 137.766 182.515 137.768C182.256 137.764 182.003 137.693 181.779 137.563C181.555 137.432 181.368 137.246 181.237 137.022C181.077 136.76 180.994 136.46 180.995 136.154C180.926 135.859 180.891 135.581 180.805 135.208Z" fill="white"/>
<path d="M214.588 132.291C214.366 132.954 214.33 133.666 214.485 134.348C214.621 134.718 214.865 135.038 215.186 135.266C215.507 135.494 215.889 135.619 216.282 135.624C216.545 135.622 216.805 135.686 217.037 135.81C217.269 135.935 217.467 136.115 217.612 136.336C217.77 136.58 217.859 136.861 217.871 137.152C217.932 137.473 217.975 137.803 218.062 138.124C218.288 137.461 218.315 136.745 218.139 136.067C217.985 135.705 217.728 135.397 217.401 135.181C217.074 134.965 216.691 134.85 216.299 134.852C216.039 134.848 215.784 134.778 215.558 134.647C215.333 134.516 215.145 134.33 215.012 134.105C214.859 133.841 214.779 133.542 214.778 133.237C214.709 132.977 214.675 132.621 214.588 132.291Z" fill="white"/>
<path d="M235.194 155.11C235.259 155.071 235.32 155.025 235.375 154.971C235.375 154.859 235.332 154.746 235.297 154.624C235.271 154.798 235.228 154.954 235.194 155.11Z" fill="white"/>
<path d="M238.547 139.834C238.234 139.21 237.759 138.683 237.173 138.306C236.814 138.144 236.414 138.093 236.026 138.162C235.638 138.23 235.279 138.413 234.996 138.688C234.708 138.979 234.319 139.146 233.912 139.154C233.504 139.162 233.109 139.011 232.81 138.732C232.533 138.549 232.274 138.35 231.946 138.176C232.326 138.706 232.594 139.357 233.346 139.686C233.708 139.832 234.105 139.868 234.487 139.789C234.87 139.71 235.221 139.521 235.497 139.244C235.685 139.061 235.916 138.93 236.169 138.863C236.421 138.796 236.687 138.795 236.94 138.862C237.223 138.931 237.482 139.075 237.692 139.278C238.003 139.461 238.253 139.669 238.547 139.834Z" fill="white"/>
<path d="M133.051 164.441C134.857 161.794 137.207 159.442 139.263 156.985C141.32 154.529 143.583 152.012 145.821 149.555C150.141 144.781 154.582 140.146 159.049 135.529C161.641 132.838 164.345 130.26 166.981 127.595C167.076 127.5 167.24 127.656 167.153 127.76C162.894 132.734 158.703 137.733 154.34 142.611C149.977 147.49 145.7 152.159 141.216 156.742C139.937 158.062 138.624 159.346 137.311 160.631C136.027 162.035 134.666 163.365 133.233 164.615C133.138 164.702 132.982 164.554 133.051 164.441Z" fill="#454056"/>
<path opacity="0.1" d="M172.874 179.535C180.46 181.532 187.191 182.495 191.58 181.488C202.155 179.049 219.729 167.826 235.195 155.11C235.26 155.071 235.321 155.025 235.376 154.972C244.69 147.299 253.226 139.105 258.98 131.979C263.966 125.825 266.342 121.112 266.566 117.796C266.622 117.177 266.578 116.552 266.437 115.947C265.884 113.552 263.758 112.206 260.389 111.885L172.874 179.535Z" fill="#454056"/>
<path d="M226.172 179.909L217.99 226.485H316.002C313.211 180.95 286.911 131.145 275.316 116.954C269.51 109.845 258.036 108.326 249.336 114.124C247.271 115.496 223.226 151.135 221.256 156.334C217.333 166.585 226.172 179.909 226.172 179.909Z" fill="#FD5631"/>
<path d="M258.68 145.129C258.019 144.909 257.311 144.873 256.632 145.025C256.264 145.165 255.947 145.413 255.72 145.736C255.494 146.059 255.369 146.443 255.362 146.839C255.367 147.249 255.211 147.646 254.928 147.943C254.646 148.24 254.259 148.413 253.85 148.427C253.522 148.496 253.202 148.531 252.874 148.618C253.535 148.853 254.253 148.88 254.93 148.696C255.288 148.542 255.593 148.286 255.807 147.958C256.021 147.631 256.133 147.247 256.131 146.856C256.137 146.594 256.209 146.338 256.34 146.112C256.472 145.885 256.658 145.697 256.883 145.563C257.144 145.407 257.442 145.323 257.747 145.32C258.032 145.233 258.334 145.189 258.68 145.129Z" fill="white"/>
<path d="M252.285 185.924C251.624 185.704 250.917 185.668 250.237 185.82C249.869 185.959 249.551 186.207 249.324 186.53C249.098 186.854 248.973 187.238 248.967 187.634C248.97 187.897 248.906 188.157 248.782 188.389C248.658 188.621 248.478 188.818 248.259 188.962C248.016 189.12 247.736 189.21 247.447 189.222C247.127 189.292 246.799 189.326 246.479 189.413C247.138 189.646 247.852 189.674 248.527 189.491C248.888 189.339 249.195 189.081 249.409 188.752C249.623 188.422 249.734 188.036 249.728 187.642C249.735 187.382 249.808 187.128 249.939 186.903C250.071 186.678 250.256 186.491 250.479 186.358C250.739 186.198 251.039 186.114 251.343 186.115C251.663 186.089 251.983 186.045 252.285 185.924Z" fill="white"/>
<path d="M276.33 158.721C275.671 158.495 274.962 158.456 274.282 158.608C273.915 158.749 273.597 158.997 273.371 159.32C273.144 159.643 273.019 160.027 273.012 160.423C273.017 160.686 272.954 160.947 272.83 161.179C272.706 161.412 272.525 161.608 272.304 161.751C272.066 161.913 271.788 162.006 271.5 162.02C271.172 162.08 270.852 162.115 270.524 162.202C271.183 162.435 271.897 162.463 272.572 162.28C272.932 162.127 273.239 161.871 273.454 161.544C273.669 161.216 273.783 160.832 273.781 160.44C273.786 160.178 273.858 159.921 273.99 159.695C274.121 159.469 274.308 159.28 274.533 159.147C274.782 158.998 275.064 158.914 275.354 158.904C275.682 158.843 276.002 158.808 276.33 158.721Z" fill="white"/>
<path d="M289.35 200.558C288.692 200.338 287.987 200.302 287.311 200.454C286.94 200.59 286.62 200.837 286.393 201.161C286.166 201.485 286.043 201.871 286.04 202.268C286.043 202.531 285.979 202.79 285.855 203.023C285.731 203.255 285.551 203.452 285.332 203.596C285.089 203.754 284.809 203.844 284.52 203.856C284.2 203.925 283.872 203.96 283.543 204.047C284.206 204.279 284.922 204.306 285.6 204.125C285.959 203.971 286.266 203.713 286.479 203.384C286.693 203.055 286.805 202.669 286.801 202.276C286.808 202.016 286.881 201.762 287.012 201.537C287.144 201.312 287.33 201.125 287.552 200.992C287.812 200.832 288.112 200.748 288.416 200.749C288.702 200.679 289.03 200.679 289.35 200.558Z" fill="white"/>
<path d="M230.746 220.877C230.085 220.658 229.378 220.622 228.698 220.773C228.33 220.912 228.012 221.16 227.785 221.484C227.559 221.807 227.434 222.192 227.428 222.587C227.43 222.85 227.367 223.11 227.243 223.342C227.119 223.574 226.939 223.771 226.72 223.915C226.477 224.073 226.197 224.163 225.908 224.176C225.588 224.245 225.26 224.28 224.931 224.366C225.594 224.598 226.31 224.626 226.988 224.445C227.347 224.29 227.653 224.032 227.867 223.703C228.081 223.374 228.193 222.989 228.189 222.596C228.196 222.335 228.269 222.081 228.4 221.856C228.532 221.632 228.717 221.444 228.94 221.311C229.2 221.151 229.499 221.067 229.804 221.068C230.089 221.007 230.418 220.964 230.746 220.877Z" fill="white"/>
<path d="M310.837 206.009C311.5 206.241 312.216 206.268 312.894 206.087C313.037 206.032 313.171 205.956 313.291 205.861C313.248 205.575 313.187 205.297 313.127 204.993C313.007 205.214 312.835 205.402 312.626 205.54C312.383 205.698 312.103 205.788 311.814 205.8C311.485 205.887 311.166 205.887 310.837 206.009Z" fill="white"/>
<path d="M269.176 115.617C268.517 115.391 267.808 115.352 267.128 115.504C266.76 115.645 266.443 115.893 266.216 116.216C265.99 116.539 265.865 116.923 265.858 117.319C265.864 117.582 265.803 117.842 265.681 118.074C265.558 118.307 265.378 118.504 265.158 118.647C264.916 118.808 264.636 118.9 264.346 118.916C264.018 118.976 263.698 119.011 263.37 119.098C264.029 119.331 264.743 119.359 265.417 119.176C265.778 119.024 266.086 118.769 266.301 118.441C266.516 118.113 266.63 117.729 266.627 117.336C266.632 117.074 266.704 116.817 266.835 116.591C266.967 116.365 267.154 116.176 267.379 116.043C267.64 115.887 267.938 115.803 268.243 115.8C268.528 115.73 268.856 115.695 269.176 115.617Z" fill="white"/>
<path d="M234.339 174.64C234.646 175.265 235.119 175.793 235.704 176.168C236.063 176.333 236.463 176.384 236.851 176.316C237.24 176.248 237.599 176.063 237.881 175.786C238.064 175.597 238.291 175.458 238.542 175.382C238.793 175.306 239.059 175.295 239.315 175.352C239.6 175.409 239.863 175.544 240.076 175.742C240.352 175.925 240.603 176.133 240.896 176.298C240.525 175.768 240.248 175.118 239.497 174.788C239.134 174.642 238.737 174.606 238.355 174.685C237.973 174.764 237.622 174.953 237.345 175.23C237.16 175.413 236.93 175.544 236.679 175.611C236.427 175.678 236.163 175.679 235.911 175.612C235.628 175.543 235.369 175.399 235.16 175.196C234.883 174.979 234.624 174.77 234.339 174.64Z" fill="white"/>
<path d="M297.335 161.568C297.648 162.192 298.123 162.719 298.709 163.096C298.953 163.205 299.218 163.262 299.486 163.262C299.754 163.262 300.019 163.205 300.264 163.096C300.169 162.861 300.082 162.627 299.979 162.393C299.65 162.557 299.274 162.603 298.916 162.523C298.632 162.445 298.371 162.299 298.156 162.098C297.879 161.933 297.62 161.733 297.335 161.568Z" fill="white"/>
<path d="M297.333 189.665C297.641 190.292 298.117 190.821 298.707 191.192C299.064 191.356 299.461 191.408 299.848 191.342C300.235 191.275 300.593 191.093 300.875 190.819C301.058 190.63 301.285 190.491 301.536 190.414C301.787 190.336 302.053 190.323 302.31 190.376C302.593 190.437 302.855 190.572 303.07 190.767C303.346 190.949 303.606 191.157 303.891 191.322C303.519 190.793 303.243 190.142 302.5 189.812C302.137 189.665 301.739 189.63 301.356 189.71C300.973 189.79 300.622 189.983 300.348 190.263C300.159 190.444 299.927 190.573 299.675 190.64C299.423 190.706 299.158 190.708 298.905 190.645C298.623 190.57 298.364 190.423 298.154 190.22C297.877 190.038 297.627 189.838 297.333 189.665Z" fill="white"/>
<path d="M270.162 218.039C270.473 218.664 270.948 219.192 271.536 219.567C271.895 219.732 272.295 219.783 272.683 219.715C273.072 219.647 273.431 219.462 273.713 219.185C273.896 218.996 274.123 218.857 274.374 218.781C274.625 218.705 274.891 218.694 275.147 218.751C275.431 218.81 275.694 218.945 275.908 219.141C276.176 219.324 276.435 219.532 276.729 219.697C276.348 219.167 276.081 218.516 275.329 218.187C274.966 218.041 274.569 218.005 274.187 218.084C273.805 218.163 273.454 218.352 273.177 218.629C272.991 218.811 272.761 218.942 272.51 219.009C272.259 219.076 271.995 219.077 271.743 219.011C271.459 218.939 271.197 218.796 270.983 218.595C270.715 218.43 270.43 218.221 270.162 218.039Z" fill="white"/>
<path d="M268.122 183.606C268.435 184.23 268.91 184.758 269.496 185.134C269.853 185.297 270.252 185.347 270.639 185.279C271.026 185.211 271.383 185.027 271.664 184.752C271.954 184.463 272.343 184.297 272.751 184.288C273.159 184.278 273.556 184.425 273.859 184.7C274.135 184.891 274.395 185.09 274.68 185.264C274.308 184.735 274.04 184.084 273.289 183.754C272.927 183.604 272.529 183.565 272.146 183.644C271.762 183.723 271.411 183.916 271.137 184.196C270.948 184.377 270.717 184.506 270.464 184.573C270.212 184.639 269.947 184.641 269.694 184.578C269.413 184.505 269.154 184.362 268.943 184.162C268.701 183.971 268.416 183.771 268.122 183.606Z" fill="white"/>
<path d="M245.088 212.224C245.404 212.845 245.878 213.372 246.461 213.751C246.82 213.916 247.22 213.968 247.609 213.9C247.998 213.831 248.357 213.647 248.639 213.369C248.821 213.18 249.049 213.041 249.3 212.965C249.551 212.889 249.817 212.879 250.073 212.935C250.358 212.992 250.621 213.127 250.833 213.326C251.11 213.508 251.36 213.708 251.697 213.881C251.326 213.352 251.049 212.701 250.298 212.371C249.935 212.226 249.538 212.19 249.156 212.269C248.773 212.347 248.422 212.537 248.146 212.814C247.96 212.997 247.731 213.128 247.479 213.195C247.228 213.262 246.964 213.262 246.712 213.196C246.427 213.124 246.166 212.981 245.952 212.779C245.641 212.597 245.373 212.389 245.088 212.224Z" fill="white"/>
<path d="M250.651 125.165C250.433 125.829 250.397 126.54 250.547 127.222C250.686 127.592 250.932 127.912 251.255 128.14C251.577 128.367 251.959 128.492 252.353 128.498C252.615 128.496 252.874 128.56 253.105 128.684C253.336 128.809 253.532 128.989 253.675 129.21C253.835 129.453 253.928 129.735 253.943 130.026C254.003 130.347 254.038 130.677 254.124 131.007C254.358 130.342 254.386 129.621 254.202 128.941C254.049 128.581 253.793 128.274 253.468 128.06C253.142 127.845 252.76 127.732 252.37 127.734C252.11 127.727 251.856 127.654 251.631 127.522C251.406 127.39 251.217 127.203 251.083 126.979C250.928 126.716 250.844 126.417 250.841 126.111C250.781 125.799 250.746 125.469 250.651 125.165Z" fill="white"/>
<path d="M231.546 197.989C231.32 198.651 231.281 199.363 231.433 200.046C231.573 200.415 231.82 200.734 232.142 200.962C232.464 201.189 232.846 201.315 233.239 201.322C233.501 201.319 233.76 201.383 233.991 201.507C234.222 201.631 234.418 201.813 234.561 202.034C234.721 202.277 234.814 202.558 234.829 202.849C234.889 203.171 234.924 203.5 235.01 203.822C235.243 203.16 235.27 202.442 235.088 201.764C234.937 201.402 234.683 201.093 234.356 200.877C234.03 200.66 233.647 200.546 233.256 200.549C232.996 200.546 232.741 200.476 232.516 200.345C232.29 200.214 232.102 200.028 231.969 199.803C231.814 199.54 231.73 199.241 231.727 198.935C231.701 198.64 231.667 198.319 231.546 197.989Z" fill="white"/>
<path d="M235.299 154.624C235.077 155.287 235.041 155.999 235.196 156.681C235.333 157.051 235.578 157.37 235.898 157.598C236.219 157.826 236.6 157.951 236.993 157.957C237.256 157.954 237.516 158.017 237.749 158.142C237.982 158.266 238.179 158.447 238.323 158.669C238.482 158.912 238.572 159.194 238.582 159.485C238.643 159.806 238.686 160.136 238.772 160.457C238.999 159.794 239.026 159.079 238.85 158.4C238.697 158.038 238.44 157.729 238.113 157.513C237.786 157.297 237.402 157.183 237.01 157.185C236.749 157.18 236.494 157.108 236.268 156.976C236.043 156.843 235.855 156.655 235.723 156.43C235.577 156.179 235.497 155.895 235.489 155.605C235.42 155.275 235.386 154.954 235.299 154.624Z" fill="white"/>
<path d="M254.997 165.76C254.776 166.424 254.737 167.134 254.885 167.818C255.024 168.187 255.271 168.506 255.593 168.734C255.915 168.961 256.297 169.086 256.691 169.094C257.1 169.095 257.493 169.255 257.789 169.539C258.084 169.823 258.26 170.21 258.28 170.621C258.341 170.942 258.384 171.272 258.47 171.593C258.7 170.93 258.724 170.213 258.539 169.536C258.389 169.174 258.134 168.865 257.808 168.649C257.482 168.432 257.099 168.318 256.708 168.321C256.448 168.318 256.193 168.247 255.967 168.117C255.742 167.986 255.554 167.799 255.42 167.575C255.271 167.309 255.188 167.011 255.179 166.707C255.118 166.411 255.083 166.09 254.997 165.76Z" fill="white"/>
<path d="M298.879 213.074C298.661 213.738 298.625 214.449 298.776 215.131C298.913 215.502 299.159 215.823 299.482 216.05C299.804 216.278 300.187 216.402 300.581 216.407C300.844 216.403 301.103 216.467 301.334 216.591C301.565 216.716 301.761 216.897 301.903 217.119C302.061 217.359 302.151 217.638 302.162 217.926C302.223 218.256 302.266 218.586 302.353 218.907C302.579 218.244 302.606 217.528 302.43 216.85C302.277 216.488 302.02 216.179 301.693 215.963C301.366 215.747 300.982 215.632 300.59 215.635C300.329 215.63 300.074 215.558 299.848 215.425C299.623 215.293 299.435 215.105 299.303 214.88C299.157 214.629 299.077 214.345 299.069 214.055C299 213.699 298.94 213.404 298.879 213.074Z" fill="white"/>
<path d="M284.718 144.851C284.497 145.514 284.458 146.225 284.606 146.908C284.745 147.277 284.992 147.597 285.314 147.824C285.636 148.051 286.018 148.177 286.411 148.184C286.82 148.181 287.215 148.338 287.511 148.621C287.807 148.905 287.983 149.292 288.001 149.703C288.061 150.033 288.105 150.354 288.191 150.684C288.421 150.021 288.445 149.304 288.26 148.627C288.109 148.264 287.855 147.955 287.528 147.739C287.202 147.523 286.819 147.409 286.429 147.411C286.168 147.406 285.912 147.334 285.687 147.202C285.462 147.07 285.274 146.882 285.141 146.656C284.996 146.405 284.916 146.122 284.908 145.832C284.839 145.502 284.804 145.172 284.718 144.851Z" fill="white"/>
<path d="M284.719 173.399C284.498 174.062 284.459 174.772 284.607 175.456C284.746 175.825 284.993 176.144 285.315 176.372C285.637 176.599 286.019 176.725 286.412 176.732C286.821 176.729 287.216 176.886 287.512 177.169C287.809 177.452 287.984 177.84 288.002 178.251C288.063 178.58 288.106 178.902 288.192 179.231C288.42 178.565 288.444 177.846 288.261 177.166C288.11 176.804 287.855 176.497 287.529 176.282C287.202 176.067 286.82 175.954 286.43 175.959C286.169 175.952 285.915 175.879 285.69 175.747C285.465 175.615 285.277 175.428 285.142 175.204C284.99 174.94 284.909 174.641 284.909 174.336C284.84 174.05 284.805 173.72 284.719 173.399Z" fill="white"/>
<path d="M261.875 197.989C261.657 198.653 261.621 199.363 261.771 200.046C261.909 200.417 262.155 200.737 262.478 200.965C262.8 201.193 263.183 201.317 263.577 201.322C263.839 201.32 264.098 201.384 264.329 201.508C264.56 201.632 264.756 201.813 264.899 202.034C265.057 202.277 265.146 202.559 265.158 202.849C265.227 203.171 265.262 203.5 265.348 203.822C265.581 203.16 265.608 202.442 265.426 201.764C265.273 201.402 265.016 201.094 264.689 200.877C264.361 200.661 263.978 200.547 263.586 200.549C263.327 200.545 263.073 200.475 262.849 200.344C262.625 200.213 262.439 200.027 262.307 199.803C262.149 199.541 262.066 199.241 262.065 198.935C262.005 198.64 261.961 198.319 261.875 197.989Z" fill="white"/>
<path d="M238.547 139.834C238.234 139.21 237.759 138.683 237.173 138.306C236.814 138.144 236.414 138.093 236.026 138.162C235.638 138.23 235.279 138.413 234.996 138.688C234.708 138.979 234.319 139.146 233.912 139.154C233.504 139.162 233.109 139.011 232.81 138.732C232.533 138.549 232.274 138.35 231.946 138.176C232.326 138.706 232.594 139.357 233.346 139.686C233.708 139.832 234.105 139.868 234.487 139.789C234.87 139.71 235.221 139.521 235.497 139.244C235.685 139.061 235.916 138.93 236.169 138.863C236.421 138.796 236.687 138.795 236.94 138.862C237.223 138.931 237.482 139.075 237.692 139.278C238.003 139.461 238.253 139.669 238.547 139.834Z" fill="white"/>
<path d="M273.443 136.917C273.133 136.292 272.658 135.764 272.07 135.39C271.712 135.224 271.313 135.172 270.926 135.241C270.539 135.309 270.181 135.494 269.901 135.772C269.719 135.961 269.491 136.1 269.24 136.176C268.989 136.252 268.723 136.262 268.467 136.206C268.182 136.149 267.919 136.013 267.706 135.815C267.43 135.633 267.171 135.433 266.886 135.259C267.257 135.789 267.534 136.44 268.277 136.77C268.639 136.915 269.036 136.951 269.418 136.872C269.801 136.794 270.152 136.604 270.428 136.327C270.616 136.145 270.847 136.014 271.1 135.947C271.353 135.88 271.618 135.88 271.871 135.945C272.154 136.015 272.413 136.158 272.623 136.362C272.899 136.544 273.15 136.752 273.443 136.917Z" fill="white"/>
<path d="M280.208 121.407C293.237 132.213 340.048 172.236 337.232 186.445C334.398 200.836 323.555 212.484 315.217 204.412C308.305 197.789 277.788 148.635 272.25 135.494C266.971 122.978 267.403 110.783 280.208 121.407Z" fill="#EDA79E"/>
<path d="M338.424 182.452C338.424 192.416 331.78 211.199 318.88 207.701C310.43 205.419 275.386 147.385 269.736 133.619C263.195 117.674 268.872 111.407 280.968 120.808C293.064 130.208 338.407 168.226 338.424 182.452Z" fill="#FD5631"/>
<path d="M302.032 140.728C302.691 140.961 303.405 140.989 304.079 140.806C304.182 140.764 304.281 140.712 304.373 140.65C304.204 140.514 304.042 140.37 303.889 140.216L303.811 140.277C303.571 140.433 303.294 140.523 303.008 140.537C302.68 140.606 302.351 140.65 302.032 140.728Z" fill="white"/>
<path d="M317.697 174.571C317.037 174.351 316.329 174.315 315.65 174.466C315.28 174.604 314.96 174.851 314.733 175.175C314.506 175.499 314.383 175.884 314.379 176.28C314.382 176.544 314.318 176.803 314.194 177.035C314.07 177.267 313.89 177.464 313.671 177.608C313.428 177.767 313.148 177.857 312.859 177.869C312.539 177.938 312.211 177.973 311.891 178.06C312.55 178.293 313.264 178.32 313.939 178.138C314.299 177.984 314.607 177.726 314.822 177.397C315.037 177.068 315.151 176.683 315.148 176.289C315.152 176.029 315.223 175.774 315.353 175.549C315.483 175.324 315.669 175.137 315.891 175.005C316.152 174.846 316.451 174.762 316.755 174.762C317.084 174.692 317.369 174.64 317.697 174.571Z" fill="white"/>
<path d="M313.56 203.361C313.75 203.57 313.94 203.778 314.13 203.969C314.173 203.758 314.259 203.558 314.382 203.382C314.505 203.205 314.664 203.057 314.847 202.945C315.11 202.792 315.408 202.711 315.711 202.71C316.031 202.65 316.359 202.606 316.688 202.519C316.027 202.3 315.319 202.264 314.64 202.415C314.406 202.492 314.189 202.615 314.004 202.778C313.818 202.94 313.667 203.139 313.56 203.361Z" fill="white"/>
<path d="M297.333 161.568C297.644 162.194 298.119 162.722 298.707 163.096C299.064 163.261 299.463 163.313 299.85 163.245C300.238 163.177 300.595 162.991 300.875 162.714C301.058 162.525 301.285 162.386 301.536 162.31C301.787 162.234 302.053 162.223 302.31 162.28C302.594 162.337 302.857 162.472 303.07 162.67C303.346 162.853 303.606 163.052 303.891 163.226C303.519 162.696 303.243 162.045 302.5 161.716C302.137 161.57 301.74 161.534 301.358 161.613C300.975 161.692 300.624 161.881 300.348 162.158C300.16 162.34 299.929 162.471 299.676 162.538C299.424 162.605 299.158 162.606 298.905 162.54C298.622 162.471 298.363 162.327 298.154 162.124C297.877 161.941 297.627 161.733 297.333 161.568Z" fill="white"/>
<path d="M282.764 123.429C282.546 124.09 282.51 124.798 282.661 125.478C282.795 125.849 283.039 126.171 283.36 126.399C283.681 126.627 284.064 126.751 284.458 126.754C284.721 126.751 284.981 126.814 285.213 126.939C285.446 127.063 285.644 127.244 285.788 127.465C285.946 127.709 286.035 127.991 286.047 128.281C286.108 128.611 286.151 128.932 286.238 129.262C286.464 128.596 286.491 127.878 286.315 127.196C286.162 126.835 285.905 126.527 285.577 126.313C285.25 126.098 284.866 125.986 284.475 125.99C284.215 125.982 283.96 125.909 283.735 125.777C283.51 125.645 283.322 125.459 283.188 125.235C283.035 124.971 282.955 124.672 282.954 124.367C282.885 124.08 282.851 123.75 282.764 123.429Z" fill="white"/>
<path d="M284.718 144.851C284.497 145.514 284.458 146.225 284.606 146.908C284.745 147.277 284.992 147.597 285.314 147.824C285.636 148.051 286.018 148.177 286.411 148.184C286.82 148.181 287.215 148.338 287.511 148.621C287.807 148.905 287.983 149.292 288.001 149.703C288.061 150.033 288.105 150.354 288.191 150.684C288.421 150.021 288.445 149.304 288.26 148.627C288.109 148.264 287.855 147.955 287.528 147.739C287.202 147.523 286.819 147.409 286.429 147.411C286.168 147.406 285.912 147.334 285.687 147.202C285.462 147.07 285.274 146.882 285.141 146.656C284.996 146.405 284.916 146.122 284.908 145.832C284.839 145.502 284.804 145.172 284.718 144.851Z" fill="white"/>
<path d="M325.655 190.515C325.437 191.179 325.401 191.89 325.551 192.572C325.687 192.942 325.932 193.263 326.253 193.49C326.574 193.718 326.956 193.843 327.348 193.848C327.612 193.845 327.872 193.909 328.104 194.033C328.337 194.158 328.534 194.339 328.679 194.56C328.836 194.804 328.926 195.086 328.938 195.376C328.999 195.697 329.042 196.027 329.128 196.357C329.354 195.691 329.381 194.972 329.206 194.291C329.052 193.93 328.795 193.622 328.468 193.407C328.14 193.193 327.757 193.08 327.366 193.084C327.105 193.077 326.851 193.004 326.626 192.872C326.401 192.74 326.213 192.553 326.078 192.329C325.926 192.066 325.846 191.766 325.845 191.461C325.776 191.175 325.724 190.845 325.655 190.515Z" fill="white"/>
<path d="M270.499 135.373C270.594 135.59 270.706 135.824 270.819 136.058C271.145 135.895 271.519 135.855 271.873 135.945C272.156 136.015 272.415 136.159 272.624 136.362C272.901 136.544 273.151 136.753 273.488 136.918C273.099 136.379 272.849 135.754 272.115 135.39C271.863 135.267 271.588 135.201 271.309 135.198C271.029 135.195 270.753 135.255 270.499 135.373Z" fill="white"/>
<path d="M278.075 153.695C279.241 155.327 280.529 156.872 281.773 158.443L282.637 159.572C281.859 158.073 281.099 156.563 280.356 155.041C279.22 152.861 278.202 150.621 277.306 148.331C277.245 148.184 277.47 148.114 277.548 148.236C278.714 150.076 279.647 152.038 280.753 153.912C281.859 155.787 282.922 157.688 283.976 159.589C286.101 163.382 288.296 167.158 290.534 170.873C295.035 178.303 299.83 185.568 304.79 192.703C306.181 194.699 307.555 196.713 309.015 198.666C310.475 200.619 311.849 202.736 313.335 204.698C313.387 204.767 313.291 204.863 313.231 204.794C311.831 203.058 310.388 201.434 308.963 199.759C307.537 198.084 306.328 196.339 304.988 194.603C302.319 191.131 299.804 187.59 297.333 183.988C292.408 176.738 287.849 169.244 283.674 161.533L283.371 160.943C282.663 160.188 281.972 159.407 281.315 158.591C280.079 157.046 279.008 155.388 277.928 153.73C277.893 153.687 278.023 153.617 278.075 153.695Z" fill="#454056"/>
<path d="M251.144 114.072C251.144 114.072 248.284 125.842 251.697 127.465C258.064 130.494 269.443 121.085 270.186 119.402C270.368 118.968 271.318 107.658 272.027 98.8738C272.493 93.2146 272.891 88.5969 272.891 88.5969L250.556 97.4937L251.057 112.961L251.144 114.072Z" fill="#EDA79E"/>
<path opacity="0.2" d="M250.554 97.4937L251.056 112.961C255.333 112.221 259.407 110.584 263.012 108.157C266.618 105.729 269.674 102.566 271.982 98.8738C272.448 93.2146 272.846 88.5969 272.846 88.5969L270.055 89.6038L250.554 97.4937Z" fill="#454056"/>
<path d="M246.461 79.9085C246.124 86.236 241.372 91.1141 235.851 90.8103C230.33 90.5065 226.131 85.1424 226.468 78.8235C226.805 72.5046 231.565 67.6178 237.086 67.9216C242.607 68.2254 246.806 73.5895 246.461 79.9085Z" fill="#666276"/>
<path d="M249.691 80.4899C249.311 87.5206 244.023 92.9455 237.88 92.6417C231.737 92.3379 227.072 86.3314 227.443 79.3008C227.815 72.2701 233.111 66.8366 239.254 67.1491C245.397 67.4615 250.054 73.4506 249.691 80.4899Z" fill="#D5D2DC"/>
<path d="M230.926 75.3081C228.844 102.389 244.75 106.703 250.565 107.146C255.844 107.554 273.893 108.257 278.731 81.5315C283.57 54.8063 271.716 45.2759 259.723 43.7049C247.731 42.1338 233.017 48.2184 230.926 75.3081Z" fill="#EDA79E"/>
<path d="M239.323 70.4823C239.941 70.4033 240.556 70.2932 241.163 70.1524C241.825 70.1233 242.46 69.8762 242.969 69.4494C243.099 69.2805 243.17 69.0728 243.17 68.8591C243.17 68.6454 243.099 68.4378 242.969 68.2689C242.672 67.9641 242.298 67.7452 241.888 67.6352C241.477 67.5253 241.045 67.5283 240.636 67.644C239.77 67.7452 238.973 68.1659 238.398 68.8244C238.275 68.9847 238.202 69.1778 238.187 69.3798C238.172 69.5817 238.217 69.7835 238.315 69.9602C238.414 70.1368 238.562 70.2805 238.741 70.3733C238.92 70.4661 239.122 70.504 239.323 70.4823Z" fill="#1F1B2D"/>
<path d="M257.823 71.9316C257.213 71.7973 256.61 71.6321 256.017 71.4368C255.362 71.3439 254.756 71.0392 254.289 70.5689C254.169 70.3937 254.111 70.1833 254.123 69.971C254.136 69.7588 254.218 69.5568 254.358 69.3971C254.68 69.1195 255.071 68.9336 255.488 68.8588C255.906 68.784 256.336 68.823 256.734 68.9718C257.588 69.1479 258.345 69.6367 258.86 70.3432C258.971 70.5117 259.031 70.7093 259.031 70.9116C259.032 71.1139 258.973 71.3119 258.863 71.4811C258.752 71.6503 258.595 71.7831 258.41 71.8632C258.225 71.9433 258.021 71.9671 257.823 71.9316Z" fill="#1F1B2D"/>
<path d="M253.149 78.5283C253.149 78.4589 253.279 78.6325 253.27 78.7019C253.054 80.542 253.106 82.6859 254.713 83.4411C254.765 83.4411 254.713 83.5539 254.713 83.5452C252.692 83.0765 252.648 80.2295 253.149 78.5283Z" fill="#1F1B2D"/>
<path d="M254.953 76.7489C257.925 76.7489 257.631 82.7467 254.875 82.7119C252.119 82.6772 252.465 76.7142 254.953 76.7489Z" fill="#1F1B2D"/>
<path d="M256.104 77.1222C256.605 77.4868 257.089 78.103 257.711 78.1985C258.333 78.294 259.007 77.7125 259.508 77.1309C259.56 77.0701 259.604 77.1309 259.604 77.209C259.604 78.3461 259.068 79.5005 257.876 79.6133C256.683 79.7262 256.009 78.6586 255.785 77.4955C255.741 77.2785 255.906 76.9747 256.104 77.1222Z" fill="#1F1B2D"/>
<path d="M242.427 77.3218C242.427 77.2437 242.28 77.3999 242.28 77.4781C242.28 79.3269 241.934 81.4448 240.241 81.9829C240.189 81.9829 240.189 82.0958 240.241 82.0871C242.297 81.8874 242.703 79.0752 242.427 77.3218Z" fill="#1F1B2D"/>
<path d="M240.861 75.3169C237.915 74.9697 237.405 80.924 240.17 81.2451C242.935 81.5663 243.332 75.612 240.861 75.3169Z" fill="#1F1B2D"/>
<path d="M239.601 75.6121C239.108 75.8898 238.599 76.428 238.037 76.4193C237.475 76.4106 236.957 75.7249 236.586 75.0739C236.586 75.0045 236.499 75.0739 236.491 75.1347C236.37 76.2631 236.646 77.4782 237.717 77.7907C238.789 78.1032 239.506 77.1484 239.86 76.0547C239.929 75.8291 239.8 75.4992 239.601 75.6121Z" fill="#1F1B2D"/>
<path d="M251.472 92.8413C251.032 93.2753 250.608 93.8656 249.917 93.9177C249.233 93.9006 248.559 93.741 247.939 93.449C247.926 93.4386 247.91 93.4337 247.894 93.4353C247.877 93.4369 247.863 93.445 247.852 93.4576C247.842 93.4703 247.837 93.4865 247.839 93.5028C247.84 93.5191 247.848 93.5341 247.861 93.5444C248.123 93.9086 248.478 94.1946 248.889 94.3719C249.3 94.5492 249.751 94.6112 250.194 94.5513C250.57 94.4587 250.91 94.2543 251.169 93.9648C251.428 93.6752 251.594 93.314 251.645 92.9282C251.68 92.8153 251.533 92.7806 251.472 92.8413Z" fill="#454056"/>
<path d="M244.197 85.6979C244.197 85.6979 243.644 88.432 243.566 89.734C243.566 89.8555 243.869 89.9336 244.309 89.9857C244.309 89.9857 244.309 89.9857 244.361 89.9857C245.46 90.2594 246.613 90.2227 247.693 89.8796C248.772 89.5365 249.736 88.9004 250.478 88.0414C250.573 87.9199 250.418 87.781 250.297 87.8505C248.576 88.8817 246.571 89.3291 244.577 89.1264C244.508 88.7619 245.666 84.474 245.441 84.448C244.431 84.4763 243.428 84.6397 242.461 84.9341C243.428 79.2054 245.312 73.6503 246.202 67.9651C246.204 67.9243 246.193 67.8839 246.17 67.8503C246.146 67.8168 246.113 67.792 246.074 67.78C246.035 67.768 245.993 67.7695 245.955 67.7841C245.917 67.7988 245.885 67.8258 245.865 67.8609C243.489 73.5114 242.219 80.0734 241.061 85.967C240.94 86.6961 243.644 85.8889 244.197 85.6979Z" fill="#454056"/>
<path d="M245.208 89.3349C245.805 90.3425 246.65 91.1793 247.661 91.7652C248.223 92.0631 248.863 92.1783 249.493 92.095C250.875 91.9041 251.048 90.6802 250.927 89.5953C250.859 89.0197 250.723 88.4544 250.521 87.9114C248.947 88.9454 247.085 89.4444 245.208 89.3349Z" fill="#454056"/>
<path d="M247.661 91.7652C248.223 92.0631 248.863 92.1783 249.493 92.095C250.875 91.9041 251.048 90.6802 250.927 89.5952C249.484 89.5779 247.964 90.3764 247.661 91.7652Z" fill="#FF548A"/>
<path d="M278.333 79.1013C275.387 79.1013 267.334 71.3589 266.375 57.1327C266.375 57.1327 268.103 69.8486 269.166 71.6713C270.228 73.4941 264.664 67.3314 263.731 55.8567C263.731 55.8567 257.631 60.7695 252.318 62.5662C247.004 64.363 243.678 64.4845 243.28 64.1112C242.883 63.738 250.693 60.8216 252.715 58.2176C252.715 58.2176 238.692 65.6649 232.1 66.5069C231.34 66.6023 233.094 54.8152 242.987 47.5762C252.879 40.3372 265.986 42.7849 270.557 46.7863C270.557 46.7863 275.741 47.255 281.659 54.5982C287.578 61.9413 281.504 79.162 278.333 79.1013Z" fill="#1F1B2D"/>
<path d="M274.281 83.2849C274.281 83.2849 280.104 74.7439 283.957 76.8271C287.811 78.9102 283.482 91.2356 278.998 92.9629C278.438 93.2229 277.832 93.3667 277.215 93.3855C276.599 93.4044 275.985 93.2979 275.411 93.0726C274.836 92.8472 274.313 92.5076 273.872 92.0741C273.432 91.6406 273.083 91.1222 272.846 90.5499L274.281 83.2849Z" fill="#EDA79E"/>
<path d="M282.628 80.334C282.639 80.3385 282.649 80.3463 282.656 80.3563C282.662 80.3664 282.666 80.3782 282.666 80.3904C282.666 80.4025 282.662 80.4144 282.656 80.4245C282.649 80.4345 282.639 80.4423 282.628 80.4468C279.483 81.7661 277.85 84.7173 276.718 87.7726C277.643 86.5921 278.921 85.9325 280.494 87.0435C280.572 87.1042 280.494 87.2344 280.408 87.2084C279.852 87.0386 279.258 87.045 278.706 87.2267C278.154 87.4085 277.671 87.7567 277.323 88.2239C276.746 89.0126 276.256 89.8625 275.863 90.7584C275.716 91.0449 275.206 90.8973 275.31 90.5675V90.498C275.241 86.4532 278.317 80.7767 282.628 80.334Z" fill="#454056"/>
<path d="M276.477 91.7824C276.482 91.9715 276.543 92.1548 276.652 92.309C276.761 92.4632 276.913 92.5813 277.089 92.6484C277.265 92.7155 277.457 92.7286 277.641 92.686C277.824 92.6434 277.991 92.547 278.12 92.409C278.249 92.271 278.334 92.0977 278.364 91.9111C278.395 91.7245 278.37 91.5329 278.292 91.3607C278.214 91.1885 278.087 91.0434 277.927 90.9439C277.766 90.8443 277.581 90.7948 277.392 90.8016C277.142 90.8107 276.905 90.9189 276.733 91.1026C276.562 91.2863 276.47 91.5307 276.477 91.7824Z" fill="white"/>
<path d="M279.067 90.0466C279.07 90.1253 279.089 90.2025 279.122 90.2739C279.155 90.3453 279.202 90.4094 279.26 90.4626C279.317 90.5159 279.385 90.5571 279.459 90.584C279.532 90.6109 279.611 90.623 279.689 90.6195C279.767 90.6172 279.844 90.5995 279.915 90.5672C279.986 90.5349 280.049 90.4887 280.103 90.4313C280.156 90.374 280.197 90.3066 280.224 90.2331C280.251 90.1596 280.263 90.0814 280.259 90.0032C280.257 89.9245 280.239 89.8471 280.207 89.7753C280.175 89.7035 280.129 89.6387 280.072 89.5847C280.015 89.5307 279.948 89.4885 279.875 89.4605C279.802 89.4325 279.724 89.4193 279.646 89.4216C279.488 89.4306 279.339 89.5006 279.231 89.6171C279.123 89.7336 279.064 89.8875 279.067 90.0466Z" fill="white"/>
<path d="M283.69 82.2088L285.547 82.5994C285.596 82.6095 285.645 82.6098 285.694 82.6004C285.742 82.591 285.788 82.572 285.829 82.5445C285.87 82.5171 285.905 82.4817 285.933 82.4404C285.96 82.3992 285.979 82.3529 285.988 82.3043C286.008 82.2076 285.99 82.1067 285.936 82.0237C285.883 81.9407 285.799 81.8824 285.703 81.8616L283.845 81.471C283.797 81.4609 283.747 81.4605 283.699 81.4699C283.65 81.4794 283.604 81.4983 283.563 81.5258C283.522 81.5533 283.487 81.5887 283.46 81.6299C283.433 81.6712 283.414 81.7175 283.405 81.7661C283.384 81.8628 283.403 81.9637 283.456 82.0467C283.51 82.1297 283.594 82.188 283.69 82.2088Z" fill="#FD5631"/>
<path d="M283.899 81.0108L285.792 81.1236C285.841 81.1272 285.891 81.1207 285.938 81.1046C285.985 81.0885 286.028 81.0631 286.065 81.03C286.102 80.9968 286.132 80.9565 286.153 80.9115C286.175 80.8664 286.187 80.8176 286.189 80.7678C286.194 80.6679 286.159 80.5701 286.093 80.4954C286.027 80.4208 285.934 80.3752 285.835 80.3685L283.951 80.2556C283.852 80.2484 283.753 80.2808 283.677 80.3457C283.601 80.4107 283.554 80.503 283.545 80.6028C283.54 80.7036 283.574 80.8024 283.641 80.8785C283.707 80.9545 283.799 81.0019 283.899 81.0108Z" fill="#FD5631"/>
<path d="M279.872 76.7665C279.872 76.7665 282.153 63.1045 278.896 55.067C275.267 46.1789 257.944 38.7663 244.388 46.5781C244.388 46.5781 264.985 42.4639 273.418 55.1364C276.969 60.4745 275.267 76.6276 275.267 76.6276L279.872 76.7665Z" fill="#D5D2DC"/>
<path d="M276.052 96.3226C269.938 95.6488 265.601 89.428 266.366 82.428C267.13 75.428 272.706 70.2996 278.82 70.9734C284.934 71.6472 289.271 77.868 288.507 84.868C287.742 91.868 282.166 96.9964 276.052 96.3226Z" fill="#D5D2DC"/>
<path d="M269.633 82.3909C268.942 88.6837 272.839 94.2735 278.334 94.8811C283.829 95.4887 288.849 90.8797 289.566 84.5869C290.283 78.294 286.352 72.6955 280.857 72.0966C275.362 71.4977 270.316 76.098 269.633 82.3909Z" fill="#666276"/>
<path d="M254.996 100.888L264.008 99.2732L272.51 92.5984L271.482 91.2791L263.308 97.7021L254.711 99.2384L254.996 100.888Z" fill="#D5D2DC"/>
<path d="M256.179 99.7853C255.937 97.1813 249.051 96.513 249.414 100.419C249.777 104.325 256.421 102.372 256.179 99.7853Z" fill="#666276"/>
<path d="M251.075 113.734L253.347 126.406L270.869 114.602L273.988 120.209C273.988 120.209 254.98 140.789 255.127 139.704L252.397 128.637L244.025 134.209L248.215 116.711L251.075 113.734Z" fill="white"/>
<path d="M314.06 203.136C322.078 212.97 335.124 201.738 336.61 192.989C340.11 172.444 335.608 134.765 329.647 116.91C327.728 111.164 289.747 122.118 289.652 128.585C289.557 135.372 297.8 183.181 314.06 203.136Z" fill="#EDA79E"/>
<path d="M330.668 127.239C330.668 127.239 330.098 108.378 323.419 95.8099C318.805 87.1301 306.666 69.3364 277.42 68.0345C270.508 67.7394 260.39 72.2529 271.544 76.8792C279.467 80.1602 285.472 79.839 289.74 82.5905C289.74 82.5905 277.575 89.8642 277.549 96.8515C277.528 102.966 277.938 109.075 278.776 115.131C279.925 115.232 281.08 115.258 282.232 115.209C282.232 115.209 282.405 121.754 289.68 128.541L330.668 127.239Z" fill="#EDA79E"/>
<path d="M317.697 88.2237C312.893 86.3923 302.646 82.6773 293.211 82.5731C282.731 82.4516 262.514 85.0556 262.505 92.824C262.505 98.5266 270.281 98.2141 270.281 98.2141C270.281 98.2141 262.151 101.061 263.265 106.208C264.285 110.904 270.307 110.296 270.307 110.296C270.307 110.296 265.667 112.9 267.516 117.24C269.737 122.448 279.094 116.19 285.876 119.514C287.414 120.226 317.697 88.2237 317.697 88.2237Z" fill="#EDA79E"/>
<path d="M294.931 93.718C290.127 92.7372 278.662 93.3188 270.411 98.0579C270.221 98.1621 270.204 98.3617 270.411 98.3009C278.38 95.8231 286.62 94.3278 294.949 93.8482C294.983 93.8135 294.983 93.7267 294.931 93.718Z" fill="#454056"/>
<path d="M294.498 104.333C290.273 103.917 278.48 105.045 270.306 110.097C270.125 110.21 270.116 110.418 270.306 110.348C278.122 107.465 286.238 105.479 294.498 104.429C294.507 104.425 294.515 104.418 294.521 104.41C294.526 104.401 294.529 104.391 294.529 104.381C294.529 104.371 294.526 104.361 294.521 104.353C294.515 104.344 294.507 104.337 294.498 104.333Z" fill="#454056"/>
<path d="M263.413 89.4389C264.553 88.1716 266.169 87.7029 267.586 86.8349C267.664 86.7915 267.733 86.9217 267.655 86.9564C265.158 88.0067 262.54 90.4891 262.955 93.4316C263.456 96.973 267.681 97.8757 270.61 97.9538C270.757 97.9538 270.688 98.1187 270.541 98.1447C267.284 98.7176 262.687 97.5806 262.082 93.7267C261.967 92.9575 262.027 92.172 262.257 91.4293C262.488 90.6866 262.883 90.0061 263.413 89.4389Z" fill="#454056"/>
<path d="M271.015 97.8408C271.092 97.8408 271.153 97.9276 271.075 97.9623C266.565 99.6983 263.783 102.849 263.558 104.637C263.397 105.503 263.501 106.397 263.858 107.202C264.214 108.007 264.806 108.683 265.554 109.142C267.12 110.009 268.939 110.297 270.695 109.958C270.842 109.958 270.894 110.149 270.755 110.175C268.639 110.565 264.569 111.043 263.1 107.614C261.874 104.75 263.247 99.9934 271.015 97.8408Z" fill="#454056"/>
<path d="M267.689 112.319C268.588 111.051 269.894 110.132 271.386 109.715C271.456 109.715 271.507 109.81 271.386 109.836C268.794 110.887 266.574 114.003 267.403 116.893C267.455 117.075 267.187 117.127 267.127 116.962C266.86 116.197 266.771 115.38 266.869 114.575C266.966 113.77 267.247 112.998 267.689 112.319Z" fill="#454056"/>
<path d="M266.271 72.1226C266.479 70.8207 268.112 69.5187 271.248 68.9285C268.656 69.6402 266.764 71.0463 266.781 72.3136C266.799 73.5808 267.732 74.9175 270.479 76.4018C270.557 76.4018 270.479 76.4799 270.419 76.4452C268.794 75.69 265.909 74.4575 266.271 72.1226Z" fill="#454056"/>
<path d="M332.636 120.07L285.634 135.971C285.634 135.971 302.759 188.962 310.846 200.341C318.933 211.72 330.148 209.672 336.619 195.558C343.09 181.445 332.636 120.07 332.636 120.07Z" fill="#FD5631"/>
<path d="M307.838 137.239C307.177 137.019 306.47 136.983 305.79 137.135C305.422 137.274 305.103 137.522 304.877 137.845C304.65 138.169 304.526 138.553 304.52 138.949C304.522 139.212 304.458 139.472 304.335 139.704C304.211 139.936 304.031 140.133 303.812 140.277C303.569 140.435 303.288 140.525 302.999 140.537C302.68 140.607 302.351 140.641 302.032 140.728C302.691 140.961 303.405 140.989 304.079 140.806C304.44 140.652 304.747 140.394 304.963 140.065C305.178 139.737 305.291 139.351 305.289 138.957C305.293 138.697 305.363 138.443 305.494 138.218C305.624 137.993 305.809 137.805 306.032 137.673C306.294 137.517 306.592 137.433 306.896 137.43C307.19 137.369 307.51 137.317 307.838 137.239Z" fill="white"/>
<path d="M317.697 174.571C317.037 174.351 316.329 174.315 315.65 174.466C315.28 174.604 314.96 174.851 314.733 175.175C314.506 175.499 314.383 175.884 314.379 176.28C314.382 176.544 314.318 176.803 314.194 177.035C314.07 177.267 313.89 177.464 313.671 177.608C313.428 177.767 313.148 177.857 312.859 177.869C312.539 177.938 312.211 177.973 311.891 178.06C312.55 178.293 313.264 178.32 313.939 178.138C314.299 177.984 314.607 177.726 314.822 177.397C315.037 177.068 315.151 176.683 315.148 176.289C315.152 176.029 315.223 175.774 315.353 175.549C315.483 175.324 315.669 175.137 315.891 175.005C316.152 174.846 316.451 174.762 316.755 174.762C317.084 174.692 317.369 174.64 317.697 174.571Z" fill="white"/>
<path d="M313.499 203.492C313.706 203.7 313.913 203.891 314.121 204.073C314.151 203.842 314.232 203.62 314.36 203.425C314.487 203.229 314.656 203.065 314.855 202.945C315.116 202.789 315.415 202.708 315.719 202.71C316.039 202.65 316.367 202.606 316.695 202.519C316.034 202.3 315.327 202.264 314.648 202.415C314.389 202.499 314.153 202.639 313.954 202.825C313.756 203.011 313.6 203.239 313.499 203.492Z" fill="white"/>
<path d="M297.333 161.568C297.644 162.194 298.119 162.722 298.707 163.096C299.064 163.261 299.463 163.313 299.85 163.245C300.238 163.177 300.595 162.991 300.875 162.714C301.058 162.525 301.285 162.386 301.536 162.31C301.787 162.234 302.053 162.223 302.31 162.28C302.594 162.337 302.857 162.472 303.07 162.67C303.346 162.853 303.606 163.052 303.891 163.226C303.519 162.696 303.243 162.045 302.5 161.716C302.137 161.57 301.74 161.534 301.358 161.613C300.975 161.692 300.624 161.881 300.348 162.158C300.16 162.34 299.929 162.471 299.676 162.538C299.424 162.605 299.158 162.606 298.905 162.54C298.622 162.471 298.363 162.327 298.154 162.124C297.877 161.941 297.627 161.733 297.333 161.568Z" fill="white"/>
<path d="M329.336 164.91C329.649 165.533 330.124 166.061 330.709 166.438C331.068 166.602 331.468 166.654 331.857 166.586C332.246 166.518 332.605 166.333 332.887 166.056C333.069 165.866 333.297 165.727 333.548 165.651C333.799 165.575 334.065 165.565 334.321 165.622C334.606 165.678 334.869 165.814 335.081 166.012C335.349 166.194 335.608 166.403 335.945 166.568C335.565 166.038 335.297 165.387 334.546 165.057C334.183 164.912 333.786 164.876 333.404 164.955C333.022 165.033 332.671 165.223 332.394 165.5C332.208 165.682 331.978 165.813 331.727 165.88C331.476 165.947 331.212 165.948 330.96 165.882C330.676 165.81 330.414 165.667 330.2 165.465C329.889 165.283 329.629 165.092 329.336 164.91Z" fill="white"/>
<path d="M324.108 130.121C324.416 130.749 324.892 131.277 325.482 131.649C325.839 131.813 326.237 131.865 326.623 131.798C327.01 131.732 327.368 131.55 327.65 131.276C327.833 131.087 328.061 130.948 328.311 130.87C328.562 130.793 328.828 130.78 329.085 130.833C329.368 130.894 329.63 131.028 329.845 131.224C330.121 131.406 330.381 131.614 330.709 131.779C330.337 131.25 330.061 130.599 329.318 130.269C328.955 130.122 328.557 130.087 328.174 130.167C327.791 130.247 327.441 130.44 327.167 130.72C326.977 130.9 326.746 131.03 326.494 131.096C326.242 131.163 325.977 131.165 325.724 131.102C325.442 131.029 325.184 130.886 324.972 130.686C324.652 130.495 324.393 130.295 324.108 130.121Z" fill="white"/>
<path d="M319.417 147.732C319.196 148.395 319.157 149.106 319.305 149.79C319.444 150.159 319.691 150.478 320.013 150.706C320.335 150.933 320.717 151.058 321.11 151.065C321.373 151.059 321.633 151.122 321.865 151.246C322.096 151.371 322.292 151.554 322.432 151.777C322.598 152.015 322.691 152.295 322.7 152.584C322.761 152.914 322.804 153.235 322.89 153.565C323.12 152.902 323.144 152.185 322.959 151.508C322.809 151.146 322.554 150.837 322.228 150.621C321.901 150.404 321.519 150.29 321.128 150.293C320.867 150.288 320.612 150.216 320.386 150.084C320.161 149.951 319.973 149.764 319.84 149.538C319.695 149.287 319.612 149.004 319.598 148.713C319.538 148.418 319.503 148.088 319.417 147.732Z" fill="white"/>
<path d="M325.655 190.515C325.437 191.179 325.401 191.89 325.551 192.572C325.687 192.942 325.932 193.263 326.253 193.49C326.574 193.718 326.956 193.843 327.348 193.848C327.612 193.845 327.872 193.909 328.104 194.033C328.337 194.158 328.534 194.339 328.679 194.56C328.836 194.804 328.926 195.086 328.938 195.376C328.999 195.697 329.042 196.027 329.128 196.357C329.354 195.691 329.381 194.972 329.206 194.291C329.052 193.93 328.795 193.622 328.468 193.407C328.14 193.193 327.757 193.08 327.366 193.084C327.105 193.077 326.851 193.004 326.626 192.872C326.401 192.74 326.213 192.553 326.078 192.329C325.926 192.066 325.846 191.766 325.845 191.461C325.776 191.175 325.724 190.845 325.655 190.515Z" fill="white"/>
<path d="M290.88 144.816C293.436 143.645 296.052 142.611 298.717 141.717C301.395 140.676 304.1 139.756 306.804 138.827C312.057 137.013 317.353 135.399 322.65 133.801C325.734 132.864 328.836 132.065 331.92 131.198C332.033 131.198 332.076 131.388 331.92 131.432C326.615 133.428 321.328 135.503 315.98 137.369C310.631 139.235 305.465 140.962 300.16 142.533C298.648 142.985 297.118 143.401 295.598 143.809C294.052 144.322 292.477 144.739 290.88 145.059C290.803 145.077 290.768 144.877 290.88 144.816Z" fill="#454056"/>
<path d="M284.683 136.093C284.813 135.668 290.023 134.305 290.291 134.227C290.369 134.227 290.403 134.331 290.291 134.357C290.04 134.444 285.625 136.293 285.642 136.327C288.234 143.271 290.602 150.284 293.09 157.263C295.578 164.242 298.127 171.238 300.477 178.294C301.799 182.244 301.713 182.634 300.313 179.232C298.913 175.829 297.479 173.034 296.192 169.58C293.6 162.636 291.172 155.579 288.744 148.549C287.396 144.564 284.64 136.232 284.683 136.093Z" fill="#454056"/>
<path d="M202.63 218.586H229.362C231.952 218.583 234.435 217.548 236.266 215.707C238.097 213.867 239.125 211.371 239.125 208.769C239.126 207.48 238.874 206.203 238.384 205.011C237.894 203.82 237.176 202.737 236.269 201.825C235.362 200.912 234.286 200.188 233.101 199.694C231.916 199.2 230.645 198.944 229.362 198.943H202.63C200.039 198.946 197.556 199.981 195.726 201.822C193.895 203.662 192.866 206.158 192.866 208.76C192.865 210.049 193.117 211.326 193.607 212.518C194.097 213.709 194.816 214.792 195.722 215.704C196.629 216.617 197.706 217.341 198.891 217.835C200.076 218.33 201.346 218.585 202.63 218.586Z" fill="#9691A4"/>
<path d="M223.51 208.604C223.497 208.292 223.395 207.991 223.216 207.736C223.147 207.614 223.06 207.502 222.983 207.38L222.464 206.868C222.266 206.72 222.076 206.573 221.868 206.434C221.047 205.909 220.131 205.552 219.172 205.384C216.965 204.941 214.692 204.941 212.485 205.384C211.538 205.546 210.634 205.898 209.824 206.417C209.608 206.556 209.409 206.712 209.202 206.859L208.709 207.363C208.577 207.552 208.456 207.749 208.347 207.953C208.263 208.163 208.191 208.377 208.131 208.595H208.286H212.537C212.572 208.6 212.608 208.594 212.639 208.577C212.67 208.559 212.695 208.532 212.71 208.5C212.829 208.266 213.008 208.068 213.228 207.926C213.448 207.784 213.701 207.704 213.963 207.693C215.234 207.61 216.51 207.61 217.781 207.693C218.042 207.703 218.295 207.782 218.515 207.922C218.735 208.063 218.914 208.259 219.034 208.491C219.042 208.522 219.06 208.549 219.085 208.568C219.11 208.587 219.141 208.596 219.172 208.595H223.492L223.51 208.604Z" fill="white"/>
<path d="M223.52 211.095V209.593C223.525 209.559 223.525 209.524 223.52 209.489H219.2C219.2 209.585 219.2 209.698 219.2 209.802C219.2 210.227 219.2 210.67 219.2 211.078C219.19 211.153 219.197 211.23 219.222 211.301C219.246 211.373 219.286 211.439 219.34 211.493C219.393 211.546 219.458 211.587 219.53 211.611C219.602 211.636 219.678 211.643 219.753 211.633H222.984C223.057 211.641 223.13 211.633 223.199 211.609C223.267 211.585 223.33 211.546 223.381 211.494C223.433 211.442 223.472 211.379 223.496 211.31C223.52 211.241 223.528 211.168 223.52 211.095Z" fill="white"/>
<path d="M212.487 211.095C212.487 210.548 212.487 210.01 212.444 209.463H208.176C208.176 209.463 208.176 209.524 208.176 209.559V211.095C208.167 211.166 208.175 211.239 208.199 211.307C208.222 211.375 208.261 211.437 208.312 211.488C208.362 211.539 208.424 211.577 208.492 211.601C208.559 211.625 208.632 211.633 208.703 211.624H211.969C212.039 211.631 212.11 211.622 212.177 211.598C212.244 211.574 212.304 211.535 212.354 211.484C212.404 211.433 212.441 211.372 212.464 211.305C212.487 211.237 212.495 211.166 212.487 211.095Z" fill="white"/>
<g filter="url(#filter0_dd_6169_44692)">
<path d="M213.139 53.3134C214.813 50.8231 215.715 47.8903 215.731 44.8853C215.731 34.2092 204.059 25.5554 189.673 25.5554C175.287 25.5554 163.623 34.2352 163.623 44.8853C163.623 55.5355 175.287 64.224 189.673 64.224C196.066 64.3264 202.337 62.4606 207.644 58.8772L216.621 61.1687L213.139 53.3134Z" fill="white"/>
<path d="M212.682 53.5161L212.57 53.2637L212.724 53.0345C214.343 50.6263 215.215 47.7902 215.231 44.884C215.231 39.7416 212.42 35.0461 207.799 31.6184C203.177 28.1905 196.769 26.0554 189.673 26.0554C182.577 26.0554 176.172 28.1968 171.552 31.628C166.932 35.0594 164.123 39.7555 164.123 44.8853C164.123 50.0153 166.932 54.7136 171.552 58.1471C176.172 61.5805 182.577 63.724 189.673 63.724V63.7239L189.681 63.724C195.972 63.8248 202.142 61.9889 207.364 58.4628L207.55 58.3372L207.768 58.3927L215.746 60.4294L212.682 53.5161Z" stroke="#EFECF3"/>
</g>
<path d="M180.307 44.8854C180.308 45.4234 180.151 45.9499 179.854 46.398C179.558 46.8461 179.136 47.1957 178.641 47.4024C178.147 47.6091 177.602 47.6636 177.077 47.559C176.551 47.4545 176.069 47.1956 175.69 46.8151C175.311 46.4346 175.054 45.9497 174.95 45.4219C174.845 44.8941 174.9 44.3472 175.106 43.8504C175.311 43.3536 175.659 42.9294 176.105 42.6315C176.551 42.3336 177.075 42.1755 177.611 42.1773C178.325 42.1795 179.01 42.4656 179.515 42.973C180.02 43.4804 180.304 44.1678 180.307 44.8854Z" fill="#1F1B2D"/>
<path d="M189.682 47.6023C188.189 47.6023 186.978 46.3859 186.978 44.8855C186.978 43.385 188.189 42.1687 189.682 42.1687C191.176 42.1687 192.387 43.385 192.387 44.8855C192.387 46.3859 191.176 47.6023 189.682 47.6023Z" fill="#1F1B2D"/>
<path d="M204.457 44.8854C204.459 45.4234 204.301 45.9499 204.005 46.398C203.708 46.8461 203.286 47.1957 202.792 47.4024C202.297 47.6091 201.753 47.6636 201.227 47.559C200.702 47.4545 200.219 47.1956 199.84 46.8151C199.462 46.4346 199.204 45.9497 199.1 45.4219C198.996 44.8941 199.05 44.3472 199.256 43.8504C199.462 43.3536 199.81 42.9294 200.256 42.6315C200.702 42.3336 201.226 42.1755 201.761 42.1773C202.476 42.1795 203.16 42.4656 203.665 42.973C204.17 43.4804 204.455 44.1678 204.457 44.8854Z" fill="#1F1B2D"/>
<defs>
<filter id="filter0_dd_6169_44692" x="151.623" y="17.5554" width="76.998" height="62.6726" filterUnits="userSpaceOnUse" color-interpolation-filters="sRGB">
<feFlood flood-opacity="0" result="BackgroundImageFix"/>
<feColorMatrix in="SourceAlpha" type="matrix" values="0 0 0 0 0 0 0 0 0 0 0 0 0 0 0 0 0 0 127 0" result="hardAlpha"/>
<feOffset dy="4"/>
<feGaussianBlur stdDeviation="6"/>
<feColorMatrix type="matrix" values="0 0 0 0 0.121569 0 0 0 0 0.105882 0 0 0 0 0.176471 0 0 0 0.08 0"/>
<feBlend mode="normal" in2="BackgroundImageFix" result="effect1_dropShadow_6169_44692"/>
<feColorMatrix in="SourceAlpha" type="matrix" values="0 0 0 0 0 0 0 0 0 0 0 0 0 0 0 0 0 0 127 0" result="hardAlpha"/>
<feMorphology radius="2" operator="erode" in="SourceAlpha" result="effect2_dropShadow_6169_44692"/>
<feOffset dy="2"/>
<feGaussianBlur stdDeviation="1"/>
<feColorMatrix type="matrix" values="0 0 0 0 0.121569 0 0 0 0 0.105882 0 0 0 0 0.176471 0 0 0 0.08 0"/>
<feBlend mode="normal" in2="effect1_dropShadow_6169_44692" result="effect2_dropShadow_6169_44692"/>
<feBlend mode="normal" in="SourceGraphic" in2="effect2_dropShadow_6169_44692" result="shape"/>
</filter>
</defs>
</svg>
