<svg width="856" height="501" viewBox="0 0 856 501" fill="none" xmlns="http://www.w3.org/2000/svg">
<g filter="url(#filter0_d_6169_47481)">
<path d="M152.227 333.332H26.2443L20.1875 277.981L135.537 119.18H226.12V272.607H257.75V333.332H226.12V379.683H152.227V333.332ZM152.227 272.607V194.416L95.9653 272.607H152.227Z" fill="white"/>
<path d="M724.664 333.332H598.682L592.625 277.846L707.974 119.18H798.558V272.607H830.188V333.332H798.558V379.683H724.799V333.332H724.664ZM724.664 272.607V194.416L668.403 272.607H724.664Z" fill="white"/>
<path d="M521.482 150.071C575.478 203.968 575.478 291.353 521.482 345.251C467.485 399.148 379.939 399.148 325.942 345.251C271.946 291.353 271.946 203.968 325.942 150.071C379.939 96.1733 467.485 96.1733 521.482 150.071Z" fill="white" stroke="#EFECF3"/>
</g>
<path d="M577.955 247.618C577.955 332.661 508.907 401.582 423.707 401.582" stroke="#FD5631" stroke-width="1.1738" stroke-miterlimit="10"/>
<path d="M567.726 90.9668C567.457 97.0125 562.342 101.58 556.285 101.312C550.229 101.043 545.652 95.9377 545.921 89.892C546.191 83.8463 551.305 79.2785 557.362 79.5472C563.419 79.8159 567.995 84.9211 567.726 90.9668Z" stroke="#FD5631" stroke-width="1.1738" stroke-miterlimit="10"/>
<path d="M395.575 75.5166C395.979 76.9944 416.438 104.536 416.034 103.864L430.436 86.9362L406.343 68.2617L395.575 75.5166Z" fill="#EF9E7B"/>
<path opacity="0.1" d="M409.842 67.1869L407.015 91.6384L395.036 74.8448L409.842 67.1869Z" fill="black"/>
<path d="M397.595 83.7118C409.637 83.7118 419.399 73.9675 419.399 61.9473C419.399 49.9271 409.637 40.1827 397.595 40.1827C385.552 40.1827 375.79 49.9271 375.79 61.9473C375.79 73.9675 385.552 83.7118 397.595 83.7118Z" fill="#EF9E7B"/>
<path d="M378.345 47.8406C378.345 47.8406 381.306 57.9168 398.803 62.7534L402.707 64.6343C402.707 64.6343 411.725 80.3531 426.934 73.9043C426.934 73.9043 432.453 55.0955 409.84 41.3919C393.42 31.45 378.345 47.8406 378.345 47.8406Z" fill="#1F1B2D"/>
<path d="M377.805 71.0831L376.997 76.3227C376.863 76.9945 377.401 77.5319 378.074 77.2632L381.574 76.4571L377.805 71.0831Z" fill="#EF9E7B"/>
<path d="M410.65 61.8128C410.516 65.5746 407.285 68.5303 403.382 68.3959C399.613 68.2616 396.652 65.0372 396.787 61.1411C396.921 57.3793 400.152 54.4236 404.055 54.558C407.824 54.8267 410.785 58.0511 410.65 61.8128Z" fill="#EF9E7B"/>
<path fill-rule="evenodd" clip-rule="evenodd" d="M405.812 58.4596C405.884 58.7626 405.695 59.0661 405.392 59.1374C403.303 59.628 402.358 60.8309 401.914 61.8955C401.687 62.4386 401.588 62.9547 401.546 63.3358C401.525 63.5255 401.519 63.6794 401.517 63.7832C401.517 63.8351 401.517 63.8743 401.518 63.899L401.519 63.9249L401.519 63.9275C401.519 63.9277 401.519 63.9279 401.519 63.928C401.519 63.9278 401.519 63.9275 400.955 63.9627L400.392 63.9978C400.411 64.3085 400.679 64.5446 400.991 64.5252C401.302 64.5058 401.538 64.2385 401.519 63.928M400.955 63.9627C400.392 63.9978 400.392 63.9975 400.392 63.9972L400.392 63.9964L400.392 63.9947L400.391 63.9899L400.391 63.9757C400.39 63.9642 400.389 63.9487 400.389 63.9292C400.388 63.8904 400.387 63.8362 400.388 63.7684C400.39 63.633 400.398 63.4426 400.424 63.2125C400.474 62.7539 400.594 62.128 400.872 61.4619C401.437 60.1083 402.646 58.6241 405.133 58.04C405.437 57.9687 405.741 58.1566 405.812 58.4596" fill="#454056"/>
<path d="M438.108 40.1827C438.243 48.378 431.782 55.2298 423.572 55.3642C415.361 55.4985 408.497 49.0498 408.362 40.8545C408.228 32.6592 414.688 25.8074 422.899 25.673C431.109 25.4043 437.974 31.8531 438.108 40.1827Z" fill="#1F1B2D"/>
<path d="M381.715 66.5152C381.984 67.187 381.58 67.8587 380.907 68.1274C380.234 68.3961 379.561 67.9931 379.292 67.3213C379.023 66.6496 379.427 65.9778 380.1 65.7091C380.773 65.5748 381.58 65.8435 381.715 66.5152Z" fill="#454056"/>
<path fill-rule="evenodd" clip-rule="evenodd" d="M380.1 65.7091C379.427 65.9778 379.023 66.6496 379.292 67.3213C379.561 67.9931 380.234 68.3961 380.907 68.1274C381.58 67.8587 381.984 67.187 381.715 66.5152C381.58 65.8435 380.773 65.5748 380.1 65.7091Z" fill="#1F1B2D"/>
<path fill-rule="evenodd" clip-rule="evenodd" d="M377.812 62.3502L377.444 61.9222C377.207 62.1248 377.18 62.4807 377.383 62.717C377.586 62.9532 377.942 62.9807 378.179 62.7785L378.178 62.7789L378.178 62.7794L378.177 62.7801C378.177 62.7804 378.177 62.7803 378.177 62.7798L378.186 62.773C378.195 62.7658 378.211 62.7536 378.233 62.7372C378.277 62.7045 378.347 62.6558 378.441 62.5993C378.628 62.4859 378.907 62.3432 379.259 62.2333C379.955 62.0161 380.955 61.9214 382.156 62.4612C382.441 62.5889 382.775 62.4623 382.903 62.1785C383.031 61.8946 382.904 61.5609 382.62 61.4331C381.129 60.7637 379.841 60.8706 378.922 61.1572C378.467 61.2992 378.106 61.484 377.856 61.6351C377.73 61.7108 377.632 61.7786 377.563 61.8294C377.529 61.8547 377.501 61.8759 377.481 61.8918L377.457 61.9114L377.449 61.918L377.446 61.9204L377.445 61.9214L377.445 61.9218C377.445 61.922 377.444 61.9222 377.812 62.3502Z" fill="#1F1B2D"/>
<path fill-rule="evenodd" clip-rule="evenodd" d="M388.063 75.7193C388.1 76.0285 387.878 76.3086 387.568 76.3449C386.571 76.462 386.157 76.8533 385.973 77.1348C385.873 77.2866 385.824 77.4317 385.8 77.5361C385.788 77.588 385.783 77.6284 385.78 77.6523C385.779 77.6642 385.779 77.6717 385.779 77.6743C385.779 77.6749 385.779 77.6753 385.779 77.6752C385.779 77.6752 385.779 77.6749 385.779 77.6742L385.779 77.6712L385.779 77.6689L385.779 77.6675L385.779 77.6668C385.778 77.9777 385.526 78.2297 385.214 78.2297C384.902 78.2297 384.649 77.9773 384.649 77.666L385.214 77.666C384.649 77.666 384.649 77.6656 384.649 77.6652L384.649 77.6644L384.649 77.6626L384.649 77.6585L384.65 77.6486L384.651 77.6214C384.652 77.6002 384.653 77.5729 384.657 77.5402C384.663 77.4748 384.676 77.3872 384.699 77.2837C384.747 77.0775 384.841 76.8027 385.027 76.5179C385.415 75.9261 386.145 75.377 387.436 75.2254C387.746 75.189 388.027 75.4101 388.063 75.7193Z" fill="#454056"/>
<path d="M519.001 421.062L536.633 433.557L547.131 414.614L528.961 401.582L519.001 421.062Z" fill="#EF9E7B"/>
<path d="M531.117 435.169L547.807 411.792L572.708 428.72L540.943 473.324C539.462 475.474 536.097 474.13 536.366 471.578L540.27 442.021L531.117 435.169Z" fill="#1F1B2D"/>
<path fill-rule="evenodd" clip-rule="evenodd" d="M569.021 426.073L536.718 471.214L535.477 470.329L567.78 425.188L569.021 426.073Z" fill="#FD5631"/>
<path fill-rule="evenodd" clip-rule="evenodd" d="M542.682 454.693L538.24 456.306L537.719 454.875L542.16 453.262L542.682 454.693Z" fill="#FD5631"/>
<path fill-rule="evenodd" clip-rule="evenodd" d="M543.493 448.916L539.052 450.529L538.53 449.098L542.972 447.485L543.493 448.916Z" fill="#FD5631"/>
<path d="M464.356 201.133L418.055 209.194C418.055 209.194 377.676 333.736 514.829 430.601C514.829 430.601 529.77 419.316 541.749 397.551C541.749 397.551 436.629 334.407 464.356 201.133Z" fill="#454056"/>
<path d="M359.369 450.35V471.981H381.578L381.712 449.544L359.369 450.35Z" fill="#EF9E7B"/>
<path d="M355.196 469.965H384L384.538 500.059H329.757C327.2 500.059 326.258 496.701 328.546 495.357L354.927 481.385L355.196 469.965Z" fill="#1F1B2D"/>
<path fill-rule="evenodd" clip-rule="evenodd" d="M384.671 495.447H329.083V493.924H384.671V495.447Z" fill="#FD5631"/>
<path fill-rule="evenodd" clip-rule="evenodd" d="M345.998 490.734L342.095 487.913L342.989 486.679L346.893 489.501L345.998 490.734Z" fill="#FD5631"/>
<path fill-rule="evenodd" clip-rule="evenodd" d="M351.261 487.923L347.357 485.236L348.223 483.983L352.127 486.67L351.261 487.923Z" fill="#FD5631"/>
<path d="M415.768 171.576L417.652 181.115C417.652 181.115 352.911 273.95 349.681 456.127C349.681 456.127 372.158 461.098 391.675 456.127C391.675 456.127 389.117 302.298 453.32 232.033C453.32 232.033 483.47 206.91 466.241 165.933L415.768 171.576Z" fill="#666276"/>
<path fill-rule="evenodd" clip-rule="evenodd" d="M349.521 442.89C349.561 442.581 349.843 442.362 350.153 442.402L350.081 442.961L350.01 443.52C349.701 443.481 349.482 443.198 349.521 442.89ZM350.081 442.961C350.01 443.52 350.01 443.52 350.01 443.52L350.026 443.522L350.07 443.528C350.11 443.532 350.168 443.54 350.245 443.549C350.399 443.567 350.627 443.593 350.924 443.626C351.518 443.691 352.39 443.781 353.503 443.881C355.729 444.081 358.923 444.321 362.794 444.481C370.535 444.801 380.998 444.802 391.872 443.521C392.182 443.484 392.404 443.204 392.367 442.895C392.33 442.586 392.05 442.365 391.74 442.401C380.944 443.673 370.545 443.673 362.841 443.355C358.99 443.196 355.815 442.957 353.604 442.759C352.499 442.659 351.634 442.57 351.047 442.505C350.753 442.473 350.529 442.447 350.379 442.429C350.303 442.42 350.246 442.413 350.209 442.409L350.166 442.404L350.153 442.402L350.081 442.961Z" fill="#1F1B2D"/>
<path fill-rule="evenodd" clip-rule="evenodd" d="M470.033 176.362C470.061 176.673 469.832 176.946 469.521 176.974L418.24 181.542C417.929 181.57 417.655 181.341 417.627 181.031C417.6 180.72 417.829 180.447 418.14 180.419L469.421 175.851C469.731 175.823 470.006 176.052 470.033 176.362Z" fill="#1F1B2D"/>
<path d="M386.688 180.04C364.345 180.577 338.907 164.187 318.179 144.303C311.987 138.392 315.352 135.436 321.275 129.256C327.197 123.076 336.888 122.941 343.079 128.718C359.096 144.034 374.979 150.752 390.188 148.871C418.453 145.378 438.508 113.806 438.777 113.537C443.219 106.416 452.775 104.133 460.044 108.566C467.312 113 469.465 122.538 465.024 129.659C463.947 131.405 437.297 173.86 394.36 179.368C391.669 179.771 389.111 180.04 386.688 180.04Z" fill="#EF9E7B"/>
<path opacity="0.1" d="M439.885 158.02C431.519 165.053 421.243 171.743 409.326 175.845L409.873 141.792C415.887 138.216 421.163 133.776 425.505 129.482L439.885 158.02Z" fill="black"/>
<path d="M343.483 134.764L342.944 129.793L345.098 130.734L338.368 117.164C337.83 116.09 337.022 115.015 335.945 114.343C333.522 112.731 331.638 113.403 330.023 113.268C327.196 113 328.139 113.806 328.004 116.627C325.043 116.627 318.986 117.971 315.621 104.939C314.948 102.117 311.987 100.505 309.16 101.177C304.988 102.252 312.256 100.236 312.122 102.252C312.122 102.386 312.122 102.386 312.122 102.52C311.179 101.58 309.699 101.177 308.218 101.58C306.469 101.983 305.257 103.461 304.988 105.207C304.988 105.476 304.988 105.61 304.988 105.879C304.315 105.745 303.642 105.61 302.969 105.879C301.219 106.282 300.008 107.76 299.739 109.507C299.739 110.044 299.739 110.447 299.873 110.984C299.873 111.119 300.008 111.387 300.008 111.522C299.873 111.522 299.873 111.522 299.739 111.522C297.989 111.925 297.854 112.731 297.72 114.477C297.72 115.015 297.72 115.418 297.854 115.955C298.797 119.583 299.739 121.061 301.085 123.882C301.085 123.882 301.085 123.882 301.219 124.016C301.892 125.36 302.565 126.435 303.373 127.644C307.68 134.495 318.313 147.662 330.561 150.752C346.578 154.379 343.483 134.764 343.483 134.764Z" fill="#EF9E7B"/>
<path d="M291.267 95.1313L291.401 97.5496C291.401 98.3557 291.67 99.0275 292.209 99.5649L322.628 135.973C323.435 137.048 325.185 138.392 326.531 138.257L339.856 137.854C341.337 137.854 342.952 136.376 343.625 134.63L303.515 96.2061L291.267 95.1313Z" fill="#1F1B2D"/>
<path d="M291.532 96.0718L324.778 135.033C325.451 135.839 326.393 136.242 327.47 136.242L342.006 136.108C343.083 136.108 343.756 134.764 342.948 133.958L309.703 95.4C308.761 94.3252 307.415 93.7878 306.069 93.7878L292.609 93.9222C291.398 93.9222 290.859 95.2657 291.532 96.0718Z" fill="#1F1B2D"/>
<path d="M297.453 97.4153L327.603 132.749C328.141 133.286 328.814 133.69 329.487 133.555L337.698 133.421C338.64 133.421 339.178 132.212 338.64 131.54L309.163 97.2809C308.356 96.3405 307.144 95.8031 305.933 95.8031L297.992 95.9374C297.319 96.0718 297.05 96.8779 297.453 97.4153Z" fill="#F7F4ED"/>
<path d="M333.119 113.268L325.716 112.194C322.62 111.656 320.198 114.746 321.409 117.702C321.813 118.642 322.486 119.449 323.428 119.852L336.618 126.3L334.734 117.836L333.119 113.268Z" fill="#EF9E7B"/>
<path d="M410.648 105.073C410.648 105.073 405.803 99.6993 414.686 89.7575C425.05 78.3379 430.703 81.9653 435.548 84.2492L410.648 105.073Z" fill="#DE411E"/>
<path d="M466.24 165.933C466.24 165.933 452.376 146.318 454.261 130.868C456.145 115.418 459.779 88.6826 438.513 81.8308C438.513 81.8308 429.091 81.8308 420.881 89.8917C413.882 95.9375 397.057 113.134 405.94 131.271C407.017 133.555 408.229 135.302 409.305 136.645C410.113 146.453 412.132 157.872 415.766 171.442L466.24 165.933Z" fill="#FD5631"/>
<path d="M442.013 128.719L454.53 167.277L473.239 165.127L437.571 109.238L442.013 128.719Z" fill="#DE411E"/>
<path d="M485.217 238.079C485.352 238.751 485.486 239.422 485.621 240.094L477.949 254.201C476.872 256.082 477.276 258.366 478.622 259.978C480.641 262.127 484.006 261.993 485.89 259.843L487.505 258.097C489.793 259.978 492.62 264.68 486.294 277.309C485.217 279.458 486.025 282.011 488.178 283.086C489.793 283.892 491.812 283.623 493.024 282.414L493.158 282.28C493.293 283.623 494.101 284.967 495.447 285.638C497.062 286.444 499.081 286.176 500.292 284.967C500.427 284.832 500.561 284.698 500.696 284.429C501.1 284.967 501.638 285.504 502.311 285.773C503.926 286.579 505.945 286.31 507.156 285.101C507.56 284.832 507.829 284.429 508.099 283.892C508.233 283.758 508.233 283.623 508.368 283.354C508.502 283.354 508.502 283.489 508.502 283.489C510.118 284.295 512.136 284.026 513.348 282.817C513.752 282.548 514.021 282.145 514.29 281.608C516.04 278.115 517.251 274.89 518.059 271.8C518.059 271.8 518.059 271.8 518.059 271.666C518.462 270.188 518.597 268.845 518.866 267.501C519.808 260.918 521.02 248.021 517.52 237.81C517.655 236.601 517.655 235.392 517.52 234.183C510.252 177.219 485.621 133.824 468.123 109.372L442.012 128.853C457.087 150.08 478.891 188.235 485.217 238.079Z" fill="#EF9E7B"/>
<path d="M449.954 86.8017C443.628 80.353 433.398 80.353 426.938 86.6674C420.477 92.9818 420.477 103.327 426.803 109.641C426.938 109.775 433.533 116.493 442.147 128.719L468.259 109.238C458.299 95.4001 450.761 87.6078 449.954 86.8017Z" fill="#FD5631"/>
<path fill-rule="evenodd" clip-rule="evenodd" d="M426.315 109.202C426.558 109.007 426.913 109.045 427.109 109.288L442.452 128.366C442.648 128.609 442.609 128.963 442.366 129.158C442.122 129.353 441.767 129.314 441.572 129.072L426.228 109.994C426.033 109.751 426.072 109.396 426.315 109.202Z" fill="#454056"/>
<path fill-rule="evenodd" clip-rule="evenodd" d="M222.165 24.1833L212.431 20.1626L213.158 18.4081L222.893 22.4288L222.165 24.1833Z" fill="#FD5631"/>
<path fill-rule="evenodd" clip-rule="evenodd" d="M236.345 12.9192V4.37524H238.247V12.9192H236.345Z" fill="#FD5631"/>
<path fill-rule="evenodd" clip-rule="evenodd" d="M226.267 14.7817L217.204 1.04431L218.793 0L227.856 13.7374L226.267 14.7817Z" fill="#FD5631"/>
<path d="M336.657 60.665H235.787C233.605 60.665 231.927 58.9897 231.927 56.8118V25.819C231.927 23.6411 233.605 21.9658 235.787 21.9658H336.657C338.839 21.9658 340.518 23.6411 340.518 25.819V56.8118C340.518 58.9897 338.839 60.665 336.657 60.665Z" fill="#FD5631"/>
<path d="M275.9 57.1473L285.971 68.7068L296.544 57.1473H275.9Z" fill="#FD5631"/>
<path fill-rule="evenodd" clip-rule="evenodd" d="M324.906 36.9876H243.337V35.0889H324.906V36.9876Z" fill="white"/>
<path fill-rule="evenodd" clip-rule="evenodd" d="M288.317 45.6992H243.337V43.8004H288.317V45.6992Z" fill="white"/>
<path fill-rule="evenodd" clip-rule="evenodd" d="M635.965 500.821H211.852V499.298H635.965V500.821Z" fill="#FD5631"/>
<defs>
<filter id="filter0_d_6169_47481" x="12.1875" y="103.148" width="842" height="309.025" filterUnits="userSpaceOnUse" color-interpolation-filters="sRGB">
<feFlood flood-opacity="0" result="BackgroundImageFix"/>
<feColorMatrix in="SourceAlpha" type="matrix" values="0 0 0 0 0 0 0 0 0 0 0 0 0 0 0 0 0 0 127 0" result="hardAlpha"/>
<feMorphology radius="4" operator="erode" in="SourceAlpha" result="effect1_dropShadow_6169_47481"/>
<feOffset dx="8" dy="10"/>
<feGaussianBlur stdDeviation="10"/>
<feColorMatrix type="matrix" values="0 0 0 0 0.588235 0 0 0 0 0.568627 0 0 0 0 0.643137 0 0 0 0.5 0"/>
<feBlend mode="normal" in2="BackgroundImageFix" result="effect1_dropShadow_6169_47481"/>
<feBlend mode="normal" in="SourceGraphic" in2="effect1_dropShadow_6169_47481" result="shape"/>
</filter>
</defs>
</svg>
