<svg width="64" height="73" viewBox="0 0 64 73" fill="none" xmlns="http://www.w3.org/2000/svg">
<path d="M35.9574 51.3101L31.7734 55.494C34.1595 58.232 38.3188 58.3388 40.8431 55.8145C40.8537 55.8039 40.8641 55.7933 40.8747 55.7827C41.7178 54.9276 41.1911 53.4941 40.0027 53.3206C38.5154 53.1037 37.0259 52.3786 35.9574 51.3101Z" fill="url(#paint0_linear_5881_23361)"/>
<path d="M33.4348 53.8369L44.0586 64.4607C45.7838 66.1859 45.7838 68.9829 44.0586 70.708C42.3335 72.4332 39.5365 72.4332 37.8113 70.708L27.1875 60.0842L33.4348 53.8369Z" fill="url(#paint1_linear_5881_23361)"/>
<path opacity="0.07" d="M27.1875 60.0844L27.8224 60.7192C29.4353 62.3321 32.0396 62.3426 33.6785 60.7561C33.7509 60.686 33.8228 60.6153 33.8942 60.5437L34.6219 59.816L41.6624 66.8564C42.9631 68.1572 43.282 70.0675 42.6215 71.6679C43.1441 71.4523 43.6338 71.1327 44.0585 70.708C45.7836 68.9829 45.7836 66.1859 44.0585 64.4607L33.4347 53.8369L27.1875 60.0844Z" fill="black"/>
<path d="M41.4399 37.1043C49.5723 37.1043 56.1649 30.5117 56.1649 22.3793C56.1649 14.2469 49.5723 7.6543 41.4399 7.6543C33.3075 7.6543 26.7148 14.2469 26.7148 22.3793C26.7148 30.5117 33.3075 37.1043 41.4399 37.1043Z" fill="url(#paint2_linear_5881_23361)"/>
<path opacity="0.05" d="M30.4727 12.5542L51.2654 33.347C51.4645 33.1682 51.6601 32.9837 51.8516 32.7923C53.946 30.6979 55.2767 28.1295 55.8454 25.4324L38.3872 7.97412C35.6903 8.54291 33.1218 9.8736 31.0273 11.9679C30.8359 12.1595 30.6514 12.3551 30.4727 12.5542Z" fill="black"/>
<path d="M16.1531 21.6336L16.1565 21.6346L5.57076 32.2203C-1.61734 39.4084 -1.61734 51.0625 5.57076 58.2506C12.7589 65.4386 24.4129 65.4386 31.601 58.2506L42.1867 47.6649L42.1877 47.6682C46.4295 43.5353 52.1712 41.8559 57.6319 42.6318L60.2343 40.0294L23.7919 3.58691L21.1895 6.18929C21.9654 11.6501 20.286 17.3916 16.1531 21.6336Z" fill="url(#paint3_linear_5881_23361)"/>
<path opacity="0.07" d="M23.7942 3.58691L60.2366 40.0294L57.6347 42.6313C54.4517 42.1785 51.1729 42.5605 48.1513 43.7767L20.0469 15.6723C21.2631 12.6506 21.6451 9.37189 21.1922 6.18887L23.7942 3.58691Z" fill="black"/>
<path d="M11.0372 59.0295L8.13101 61.9357C6.40588 63.6609 3.60882 63.6609 1.88369 61.9357C0.158561 60.2106 0.158561 57.4135 1.88369 55.6884L4.78987 52.7822L11.0372 59.0295Z" fill="url(#paint4_linear_5881_23361)"/>
<path d="M32.1566 57.6948L6.12613 31.6646L5.57076 32.2199C-1.61734 39.408 -1.61734 51.0621 5.57076 58.2502C12.7589 65.4383 24.413 65.4383 31.601 58.2502L32.1566 57.6948Z" fill="url(#paint5_linear_5881_23361)"/>
<path d="M56.2771 42.9433L20.8759 7.54214C19.1507 5.81701 19.1507 3.01996 20.8759 1.29482C22.601 -0.430306 25.3981 -0.430306 27.1232 1.29482L62.5244 36.696C64.2495 38.4211 64.2495 41.2182 62.5244 42.9433C60.7993 44.6685 58.0022 44.6685 56.2771 42.9433Z" fill="url(#paint6_linear_5881_23361)"/>
<path d="M51.5641 7.00918C50.7844 7.00918 50.1523 6.37715 50.1523 5.59746V1.92442C50.1523 1.14473 50.7844 0.512695 51.5641 0.512695C52.3438 0.512695 52.9758 1.14473 52.9758 1.92442V5.59746C52.9758 6.37715 52.3438 7.00918 51.5641 7.00918Z" fill="url(#paint7_linear_5881_23361)"/>
<path d="M61.8934 13.6643H58.2203C57.4406 13.6643 56.8086 13.0322 56.8086 12.2525C56.8086 11.4729 57.4406 10.8408 58.2203 10.8408H61.8934C62.6731 10.8408 63.3051 11.4729 63.3051 12.2525C63.3051 13.0322 62.6731 13.6643 61.8934 13.6643Z" fill="url(#paint8_linear_5881_23361)"/>
<path d="M55.2729 8.54712C54.7216 7.99584 54.7215 7.10193 55.2729 6.55065L57.8701 3.9535C58.4213 3.40222 59.3152 3.40222 59.8665 3.9535C60.4178 4.50478 60.4179 5.39868 59.8665 5.94996L57.2694 8.54712C56.7181 9.0984 55.8242 9.0984 55.2729 8.54712Z" fill="url(#paint9_linear_5881_23361)"/>
<defs>
<linearGradient id="paint0_linear_5881_23361" x1="39.501" y1="49.9995" x2="36.501" y2="56.4995" gradientUnits="userSpaceOnUse">
<stop stop-color="#FFF3D9"/>
<stop offset="0.624369" stop-color="#FFCC60"/>
<stop offset="1" stop-color="#FDBC31"/>
</linearGradient>
<linearGradient id="paint1_linear_5881_23361" x1="27.137" y1="62.9194" x2="45.1073" y2="62.9194" gradientUnits="userSpaceOnUse">
<stop stop-color="white"/>
<stop offset="0.416032" stop-color="#F5F4F8"/>
<stop offset="1" stop-color="#EFECF3"/>
</linearGradient>
<linearGradient id="paint2_linear_5881_23361" x1="28.7786" y1="22.3793" x2="56.0107" y2="22.3793" gradientUnits="userSpaceOnUse">
<stop stop-color="#FFF3D9"/>
<stop offset="0.624369" stop-color="#FFCC60"/>
<stop offset="1" stop-color="#FDBC31"/>
</linearGradient>
<linearGradient id="paint3_linear_5881_23361" x1="0.0128692" y1="33.6143" x2="59.4235" y2="33.6143" gradientUnits="userSpaceOnUse">
<stop stop-color="white"/>
<stop offset="0.416032" stop-color="#F5F4F8"/>
<stop offset="1" stop-color="#EFECF3"/>
</linearGradient>
<linearGradient id="paint4_linear_5881_23361" x1="0.1375" y1="58.0059" x2="9.56327" y2="58.0059" gradientUnits="userSpaceOnUse">
<stop stop-color="#FF9AA1"/>
<stop offset="1" stop-color="#F23C49"/>
</linearGradient>
<linearGradient id="paint5_linear_5881_23361" x1="-1.20483" y1="47.6529" x2="27.6452" y2="47.6529" gradientUnits="userSpaceOnUse">
<stop stop-color="#FF9AA1"/>
<stop offset="1" stop-color="#F23C49"/>
</linearGradient>
<linearGradient id="paint6_linear_5881_23361" x1="17.6667" y1="22.1191" x2="57.5774" y2="22.1191" gradientUnits="userSpaceOnUse">
<stop stop-color="#FF9AA1"/>
<stop offset="1" stop-color="#F23C49"/>
</linearGradient>
<linearGradient id="paint7_linear_5881_23361" x1="50.3502" y1="3.76094" x2="52.961" y2="3.76094" gradientUnits="userSpaceOnUse">
<stop stop-color="#FFF3D9"/>
<stop offset="0.624369" stop-color="#FFCC60"/>
<stop offset="1" stop-color="#FDBC31"/>
</linearGradient>
<linearGradient id="paint8_linear_5881_23361" x1="57.2639" y1="12.2525" x2="63.2711" y2="12.2525" gradientUnits="userSpaceOnUse">
<stop stop-color="#FFF3D9"/>
<stop offset="0.624369" stop-color="#FFCC60"/>
<stop offset="1" stop-color="#FDBC31"/>
</linearGradient>
<linearGradient id="paint9_linear_5881_23361" x1="55.2392" y1="6.25031" x2="60.2517" y2="6.25031" gradientUnits="userSpaceOnUse">
<stop stop-color="#FFF3D9"/>
<stop offset="0.624369" stop-color="#FFCC60"/>
<stop offset="1" stop-color="#FDBC31"/>
</linearGradient>
</defs>
</svg>
