<svg width="344" height="292" viewBox="0 0 344 292" fill="none" xmlns="http://www.w3.org/2000/svg">
<path d="M318.999 195.396H206.213V130.108H318.999V195.396ZM206.901 194.708H318.311V130.797H206.901V194.708Z" fill="#D5D2DC"/>
<path d="M295.732 164.919H221.318V167.102H295.732V164.919Z" fill="#F5F4F8"/>
<path d="M300.859 173.058H221.318V175.44H300.859V173.058Z" fill="#F5F4F8"/>
<path d="M300.859 181.289H221.318V183.67H300.859V181.289Z" fill="#F5F4F8"/>
<path d="M247.325 153.102H221.318V158.768H247.325V153.102Z" fill="#F5F4F8"/>
<path d="M318.652 130.454H206.574V140.848H318.652V130.454Z" fill="#D5D2DC"/>
<path d="M307.674 139.296C307.53 139.158 308.975 137.416 310.895 135.406C312.815 133.396 314.501 131.875 314.639 132.005C314.776 132.136 313.338 133.885 311.418 135.902C309.498 137.919 307.812 139.433 307.674 139.296Z" fill="white"/>
<path d="M314.656 139.292C314.518 139.43 312.839 137.915 310.912 135.898C308.985 133.881 307.547 132.14 307.692 132.002C307.836 131.864 309.508 133.379 311.435 135.403C313.362 137.426 314.787 139.154 314.656 139.292Z" fill="white"/>
<path d="M180.214 1.16357H68.1367V65.77H180.214V1.16357Z" fill="#F9F8FA"/>
<path d="M157.296 35.6416H82.8828V37.8238H157.296V35.6416Z" fill="#EFECF3"/>
<path d="M162.423 43.7764H82.8828V46.1582H162.423V43.7764Z" fill="#EFECF3"/>
<path d="M162.423 52.0107H82.8828V54.3926H162.423V52.0107Z" fill="#EFECF3"/>
<path d="M108.889 23.8159H82.8828V29.4815H108.889V23.8159Z" fill="#EFECF3"/>
<path d="M180.214 1.16357H68.1367V11.5584H180.214V1.16357Z" fill="#D5D2DC"/>
<path d="M171.213 9.95746C171.069 9.82666 172.514 8.07812 174.434 6.06799C176.354 4.05786 178.04 2.5365 178.178 2.67418C178.315 2.81186 176.877 4.55351 174.957 6.56364C173.037 8.57377 171.351 10.0814 171.213 9.95746Z" fill="white"/>
<path d="M178.178 9.95749C178.04 10.0952 176.361 8.58069 174.434 6.56368C172.507 4.54666 171.069 2.8119 171.213 2.67422C171.358 2.53654 173.03 4.05101 174.957 6.06803C176.884 8.08504 178.322 9.82669 178.178 9.95749Z" fill="white"/>
<path d="M137.766 121.183H25V55.8887H137.766V121.183ZM25.6882 120.495H137.077V56.5771H25.6882V120.495Z" fill="#D5D2DC"/>
<path d="M114.505 90.7041H40.0918V92.8864H114.505V90.7041Z" fill="#F5F4F8"/>
<path d="M119.632 98.8384H40.0918V101.22H119.632V98.8384Z" fill="#F5F4F8"/>
<path d="M119.632 107.073H40.0918V109.455H119.632V107.073Z" fill="#F5F4F8"/>
<path d="M66.0982 78.8867H40.0918V84.5523H66.0982V78.8867Z" fill="#F5F4F8"/>
<path d="M137.421 56.23H25.3438V66.6248H137.421V56.23Z" fill="#D5D2DC"/>
<path d="M267.906 136.138H135.568V254.653H267.906V136.138Z" fill="#F9F8FA"/>
<path d="M142.226 98.8052H38.5586V206.547H142.226V98.8052Z" fill="#F5F4F8"/>
<path d="M142.226 98.8052H38.5586V110.542H142.226V98.8052Z" fill="#D5D2DC"/>
<path d="M47.1167 104.555C47.0979 104.981 46.9545 105.392 46.7043 105.737C46.4542 106.081 46.1083 106.345 45.7097 106.495C45.311 106.645 44.8771 106.675 44.4618 106.58C44.0465 106.486 43.6681 106.271 43.3735 105.964C43.079 105.656 42.8812 105.268 42.8048 104.849C42.7284 104.43 42.7767 103.998 42.9438 103.606C43.1108 103.214 43.3893 102.88 43.7445 102.645C44.0997 102.41 44.5162 102.284 44.9421 102.284C45.531 102.298 46.0904 102.545 46.4978 102.971C46.9053 103.396 47.1278 103.966 47.1167 104.555Z" fill="white"/>
<path d="M55.9472 104.555C55.9296 104.983 55.7868 105.396 55.5363 105.743C55.2859 106.09 54.939 106.356 54.5387 106.507C54.1385 106.659 53.7026 106.689 53.2853 106.594C52.868 106.5 52.4878 106.284 52.1918 105.975C51.8959 105.666 51.6974 105.277 51.621 104.856C51.5446 104.434 51.5937 104 51.7622 103.607C51.9306 103.213 52.211 102.878 52.5685 102.643C52.9259 102.408 53.3447 102.283 53.7725 102.284C54.3615 102.298 54.9208 102.545 55.3283 102.971C55.7358 103.396 55.9583 103.966 55.9472 104.555Z" fill="white"/>
<path d="M64.7792 104.555C64.7617 104.983 64.6188 105.396 64.3684 105.743C64.1179 106.09 63.771 106.356 63.3708 106.507C62.9705 106.659 62.5346 106.689 62.1174 106.594C61.7001 106.5 61.3198 106.284 61.0239 105.975C60.7279 105.666 60.5294 105.277 60.453 104.856C60.3766 104.434 60.4257 104 60.5942 103.607C60.7627 103.213 61.0431 102.878 61.4005 102.643C61.758 102.408 62.1767 102.283 62.6046 102.284C63.1935 102.298 63.7529 102.545 64.1603 102.971C64.5678 103.396 64.7903 103.966 64.7792 104.555Z" fill="white"/>
<path d="M304.197 24.7271H171.859V156.666H304.197V24.7271Z" fill="#F5F4F8"/>
<path d="M304.197 24.7271H171.859V40.1816H304.197V24.7271Z" fill="#D5D2DC"/>
<path d="M183.129 32.2987C183.105 32.8606 182.916 33.4029 182.587 33.8584C182.257 34.3139 181.801 34.6625 181.275 34.8609C180.749 35.0593 180.176 35.0988 179.628 34.9744C179.079 34.85 178.58 34.5673 178.191 34.1613C177.802 33.7554 177.54 33.2441 177.439 32.6908C177.338 32.1376 177.402 31.5669 177.622 31.0496C177.843 30.5322 178.21 30.091 178.679 29.7807C179.148 29.4704 179.697 29.3047 180.26 29.3042C181.037 29.3223 181.775 29.6475 182.313 30.2087C182.85 30.7699 183.144 31.5214 183.129 32.2987Z" fill="white"/>
<path d="M193.918 30.2737C194.3 30.6882 194.551 31.2058 194.64 31.762C194.73 32.3182 194.654 32.8885 194.422 33.4018C194.19 33.9151 193.811 34.3487 193.335 34.6485C192.858 34.9484 192.303 35.1013 191.74 35.0881C191.177 35.075 190.63 34.8964 190.168 34.5746C189.706 34.2528 189.348 33.8021 189.14 33.2785C188.932 32.755 188.883 32.1818 188.998 31.6303C189.114 31.0789 189.389 30.5736 189.789 30.1774C190.35 29.6435 191.1 29.3538 191.874 29.3719C192.648 29.39 193.383 29.7143 193.918 30.2737Z" fill="white"/>
<path d="M206.377 32.2987C206.353 32.8606 206.164 33.4029 205.835 33.8584C205.505 34.3139 205.049 34.6625 204.523 34.8609C203.997 35.0593 203.424 35.0988 202.876 34.9744C202.327 34.85 201.828 34.5673 201.439 34.1613C201.05 33.7554 200.788 33.2441 200.687 32.6908C200.586 32.1376 200.65 31.5669 200.87 31.0496C201.091 30.5322 201.458 30.091 201.927 29.7807C202.396 29.4704 202.945 29.3047 203.508 29.3042C204.285 29.3223 205.023 29.6475 205.561 30.2087C206.098 30.7699 206.392 31.5214 206.377 32.2987Z" fill="white"/>
<path d="M275.606 289.658C275.606 289.754 227.819 289.837 168.89 289.837C109.96 289.837 62.1523 289.754 62.1523 289.658C62.1523 289.561 109.933 289.479 168.89 289.479C227.846 289.479 275.606 289.568 275.606 289.658Z" fill="#1F1B2D"/>
<path d="M229.047 205.383C218.414 197.955 216.006 184.167 216.426 171.768C216.494 169.703 216.267 167.514 217.251 165.704C218.236 163.893 220.534 162.647 222.385 163.515C223.92 164.237 224.587 166.027 225.448 167.507C226.595 169.479 228.278 171.085 230.299 172.14C231.614 172.829 233.245 173.242 234.545 172.526C236.335 171.541 236.541 169.084 236.527 167.018C236.527 163.177 236.504 159.341 236.459 155.508C236.335 153.451 236.544 151.386 237.078 149.395C237.718 147.44 239.143 145.63 241.09 145.079C243.038 144.528 245.467 145.664 245.907 147.674C245.983 148.526 246.004 149.381 245.969 150.235C246.024 151.096 246.424 152.039 247.229 152.3C248.034 152.562 248.873 151.963 249.493 151.357C251.612 149.292 253.058 146.601 254.4 143.943C255.741 141.286 257.056 138.553 258.983 136.288C260.91 134.023 263.573 132.227 266.553 132.055C269.533 131.883 272.636 133.714 273.38 136.605C274.123 139.496 272.437 142.449 270.627 144.797C267.896 148.281 264.676 151.353 261.068 153.918C260.364 154.303 259.802 154.904 259.465 155.632C259.017 157.009 260.318 158.386 261.674 158.82C263.208 159.329 264.874 159.171 266.491 159.363C268.108 159.556 269.829 160.258 270.441 161.773C271.281 163.879 269.519 166.082 267.792 167.528C264.323 170.419 260.385 172.694 256.148 174.254C254.634 174.804 253.044 175.293 251.819 176.353C250.594 177.413 249.864 179.265 250.601 180.718C251.337 182.17 253.23 182.631 254.819 182.335C256.409 182.039 257.82 181.186 259.334 180.614C262.162 179.547 265.81 179.74 267.592 182.184C268.144 183.026 268.494 183.984 268.613 184.984C268.733 185.984 268.619 186.998 268.28 187.946C267.591 189.833 266.531 191.563 265.163 193.033C260.655 198.42 254.799 202.513 248.192 204.894C241.634 207.166 235.557 207.786 229.04 205.397" fill="#FD5631"/>
<path d="M270.352 133.758C270.352 133.758 270.29 133.827 270.152 133.951L269.54 134.495C269.003 134.977 268.212 135.679 267.214 136.608C264.384 139.236 261.757 142.073 259.355 145.096C257.82 147.003 256.23 149.165 254.537 151.512C252.844 153.86 251.096 156.393 249.362 159.085C247.513 161.923 245.82 164.86 244.29 167.882C243.492 169.459 242.79 171.104 242.067 172.784L239.934 177.912C237.122 184.372 234.673 190.984 232.598 197.718C230.927 203.227 229.775 208.88 229.157 214.604C228.757 218.467 228.692 222.357 228.964 226.231C229.075 227.608 229.178 228.661 229.274 229.377C229.315 229.721 229.343 229.997 229.37 230.196V230.479C229.341 230.389 229.32 230.297 229.309 230.203C229.274 230.004 229.233 229.735 229.178 229.391C229.054 228.703 228.923 227.615 228.799 226.238C228.467 222.357 228.49 218.454 228.868 214.577C229.447 208.828 230.574 203.148 232.233 197.614C234.291 190.862 236.733 184.233 239.549 177.761L241.737 172.653C242.46 170.98 243.169 169.321 243.974 167.738C245.514 164.706 247.221 161.762 249.087 158.919C250.849 156.166 252.624 153.674 254.296 151.347C255.969 149.02 257.586 146.845 259.114 144.945C261.541 141.93 264.203 139.112 267.076 136.519C268.095 135.603 268.907 134.915 269.457 134.454L270.097 133.937C270.176 133.869 270.261 133.809 270.352 133.758Z" fill="#1F1B2D"/>
<path d="M244.065 167.718C243.968 167.434 243.901 167.141 243.865 166.843C243.755 166.272 243.631 165.467 243.487 164.42C243.191 162.355 242.888 159.526 242.565 156.393C242.241 153.261 241.877 150.425 241.574 148.38C241.415 147.362 241.278 146.542 241.181 145.971C241.106 145.679 241.067 145.378 241.064 145.076C241.183 145.352 241.268 145.641 241.319 145.937C241.47 146.501 241.643 147.313 241.835 148.339C242.227 150.404 242.613 153.213 242.936 156.352C243.26 159.491 243.535 162.245 243.748 164.386C243.852 165.35 243.941 166.169 244.01 166.823C244.063 167.118 244.082 167.418 244.065 167.718Z" fill="#1F1B2D"/>
<path d="M270.547 162.778C270.212 162.851 269.871 162.892 269.528 162.901C268.84 162.963 267.863 163.046 266.652 163.184C264.229 163.445 260.899 163.927 257.244 164.616C253.59 165.304 250.308 166.082 247.947 166.681C246.77 166.984 245.821 167.259 245.194 167.445C244.86 167.564 244.514 167.647 244.162 167.693C244.48 167.533 244.812 167.401 245.153 167.3C245.8 167.073 246.736 166.757 247.906 166.419C250.252 165.731 253.535 164.912 257.203 164.209C260.31 163.615 263.446 163.179 266.597 162.901C267.815 162.798 268.799 162.757 269.487 162.743C269.841 162.719 270.196 162.731 270.547 162.778Z" fill="#1F1B2D"/>
<path d="M232.568 197.131C232.495 197.031 232.435 196.922 232.389 196.807L231.935 195.85C231.543 195.017 231.013 193.785 230.38 192.277C229.1 189.248 227.469 185.008 225.735 180.299C224 175.59 222.404 171.35 221.193 168.287C220.601 166.8 220.112 165.581 219.747 164.672L219.362 163.688C219.309 163.575 219.272 163.454 219.252 163.33C219.325 163.43 219.385 163.538 219.431 163.654L219.885 164.611C220.27 165.443 220.807 166.676 221.44 168.183C222.72 171.212 224.351 175.453 226.086 180.161C227.82 184.87 229.416 189.111 230.628 192.174C231.219 193.661 231.708 194.879 232.066 195.788C232.224 196.181 232.355 196.477 232.458 196.773C232.512 196.886 232.549 197.007 232.568 197.131Z" fill="#1F1B2D"/>
<path d="M267.722 185.792C267.612 185.855 267.494 185.903 267.371 185.936L266.352 186.28L262.588 187.499C259.408 188.531 255.018 190.005 250.201 191.629C245.383 193.254 240.972 194.699 237.772 195.663C236.175 196.152 234.875 196.524 233.973 196.772L232.934 197.04C232.813 197.078 232.689 197.104 232.562 197.116C232.673 197.052 232.791 197.004 232.913 196.971L233.932 196.627L237.696 195.409C240.876 194.376 245.266 192.903 250.084 191.278C254.901 189.653 259.305 188.208 262.505 187.244C264.109 186.755 265.403 186.384 266.311 186.136L267.35 185.867C267.471 185.829 267.596 185.803 267.722 185.792Z" fill="#1F1B2D"/>
<path d="M253.381 18.8052L249.836 20.0719L248.316 15.4389C245.521 6.89589 236.616 2.35933 228.434 5.24372C220.251 8.12812 215.895 17.4973 218.689 26.0403L220.21 30.6732L216.652 31.9468C215.296 32.4732 214.194 33.5023 213.576 34.8202C212.958 36.1382 212.872 37.6436 213.335 39.0235L223.197 69.1686C223.402 69.8517 223.741 70.4867 224.196 71.0358C224.651 71.5849 225.212 72.037 225.845 72.3652C226.478 72.6933 227.17 72.8908 227.881 72.946C228.592 73.0012 229.306 72.9129 229.982 72.6863L266.711 59.5448C268.085 59.0193 269.203 57.981 269.828 56.6484C270.453 55.3157 270.537 53.7925 270.062 52.3992L260.194 22.2541C259.984 21.5729 259.638 20.941 259.179 20.3961C258.719 19.8512 258.155 19.4045 257.519 19.0826C256.883 18.7607 256.189 18.5703 255.478 18.5226C254.767 18.475 254.054 18.5711 253.381 18.8052ZM225.385 23.624C224.632 21.4027 224.767 18.9759 225.763 16.8521C226.758 14.7283 228.537 13.0723 230.726 12.231C231.806 11.8611 232.951 11.7127 234.09 11.7948C235.23 11.8769 236.341 12.1877 237.357 12.7088C238.374 13.2298 239.276 13.9504 240.008 14.8275C240.74 15.7046 241.288 16.7203 241.62 17.8139L243.133 22.4469L226.899 28.257L225.385 23.624ZM246.031 50.3753L248.549 58.0716C248.596 58.2259 248.581 58.3921 248.508 58.5357C248.435 58.6793 248.309 58.7892 248.157 58.8426L244.627 60.1024C244.486 60.1413 244.336 60.1244 244.208 60.0551C244.08 59.9858 243.983 59.8695 243.939 59.7306L241.399 52.0687C239.999 51.9924 238.656 51.49 237.549 50.6288C236.442 49.7676 235.624 48.5887 235.206 47.2499C234.607 45.48 234.716 43.5471 235.51 41.8559C236.304 40.1646 237.722 38.8463 239.465 38.1768C240.327 37.8825 241.238 37.7647 242.145 37.8302C243.053 37.8958 243.938 38.1435 244.748 38.5584C245.558 38.9734 246.276 39.5473 246.859 40.2457C247.442 40.9442 247.879 41.7529 248.143 42.6239C248.586 43.9838 248.623 45.4435 248.249 46.8239C247.875 48.2044 247.106 49.4457 246.038 50.3959L246.031 50.3753Z" fill="#FD5631"/>
<path d="M249.677 19.9912C249.677 20.0876 243.105 22.559 234.929 25.4984C226.754 28.4379 220.085 30.7991 220.051 30.7303C220.017 30.6614 226.623 28.1694 234.806 25.2231C242.988 22.2767 249.643 19.9017 249.677 19.9912Z" fill="#1F1B2D"/>
<path d="M257.484 21.2578C257.514 21.3176 257.539 21.3797 257.559 21.4437C257.615 21.5814 257.676 21.7603 257.759 21.9806C257.938 22.4832 258.186 23.1784 258.495 24.0458L261.138 31.7422C262.239 35.0052 263.554 38.874 265.013 43.1696C265.701 45.3243 266.513 47.5685 267.27 49.9297C267.675 51.1465 267.85 52.4281 267.786 53.709C267.728 54.3752 267.538 55.0232 267.228 55.6159C266.898 56.2066 266.456 56.7278 265.928 57.151C264.865 57.9274 263.684 58.5292 262.432 58.934L258.888 60.2075L252.178 62.61L240.816 66.6578L233.143 69.3563L231.078 70.0448L230.528 70.2237C230.469 70.2499 230.406 70.2662 230.342 70.2719C230.342 70.2719 230.397 70.2719 230.514 70.1893L231.051 69.9759L233.115 69.198L240.747 66.3893L252.088 62.2589L258.784 59.8358L262.329 58.5553C263.546 58.1671 264.691 57.5835 265.721 56.8275C266.213 56.4348 266.624 55.9509 266.933 55.4025C267.224 54.8544 267.4 54.2522 267.449 53.6333C267.512 52.3991 267.344 51.164 266.953 49.9916C266.21 47.6511 265.425 45.3862 264.717 43.2316C263.285 38.9291 261.964 35.0465 260.918 31.7835C259.872 28.5204 258.991 25.8976 258.385 24.0527C258.096 23.1509 257.876 22.4487 257.697 21.9393L257.532 21.3886C257.511 21.3469 257.495 21.303 257.484 21.2578Z" fill="#1F1B2D"/>
<path d="M238.104 11.7652C238.104 11.7652 237.739 11.5862 237.065 11.3108C236.104 10.9414 235.087 10.7366 234.057 10.7051C232.532 10.6527 231.013 10.9396 229.612 11.5449C227.907 12.2987 226.45 13.5179 225.407 15.0626C224.357 16.6029 223.794 18.4232 223.79 20.2876C223.804 21.8156 224.036 23.3339 224.478 24.7966C224.836 26.0495 225.207 27.0477 225.455 27.743C225.601 28.0961 225.721 28.4597 225.813 28.8306C225.618 28.5004 225.454 28.1524 225.324 27.7912C225.042 27.1028 224.636 26.1252 224.237 24.8655C223.747 23.3874 223.48 21.8444 223.446 20.2876C223.427 18.3528 224.004 16.4591 225.097 14.863C226.177 13.2619 227.694 12.0049 229.467 11.242C230.913 10.6333 232.478 10.3649 234.044 10.4572C235.095 10.5108 236.128 10.7558 237.092 11.1801C237.35 11.299 237.599 11.437 237.836 11.5931C237.933 11.6361 238.024 11.6942 238.104 11.7652Z" fill="#1F1B2D"/>
<path d="M238.423 38.6978C238.533 38.6312 238.648 38.5736 238.767 38.5257C239.111 38.3702 239.468 38.2435 239.834 38.1471C240.414 37.9758 241.012 37.8741 241.616 37.8442C242.438 37.8 243.26 37.9241 244.032 38.209C245.793 38.8286 247.411 40.6253 248.209 43.0278C248.592 44.3171 248.592 45.6899 248.209 46.9792C247.784 48.3786 247.024 49.6526 245.993 50.6897L246.034 50.5038C246.95 53.0165 247.947 55.7426 248.98 58.5857L249.042 58.7578L248.87 58.8197L247.294 59.3429L243.853 60.4925L243.681 60.5476L243.626 60.3755C242.683 57.5255 241.65 54.8683 240.873 52.2593L241.024 52.3763C239.679 52.2645 238.396 51.7594 237.336 50.9238C236.376 50.1845 235.589 49.2448 235.03 48.1702C234.526 47.2172 234.274 46.1504 234.301 45.0724C234.333 43.9705 234.608 42.8894 235.106 41.9064C235.605 40.9233 236.314 40.0627 237.184 39.3862C237.542 39.0954 237.944 38.8631 238.375 38.6978C237.986 38.9285 237.609 39.1789 237.246 39.4481C236.29 40.2569 235.558 41.2974 235.12 42.4702C234.743 43.3546 234.567 44.3113 234.604 45.2718C234.641 46.2323 234.89 47.1727 235.333 48.0256C235.883 49.0594 236.651 49.9614 237.583 50.6691C238.595 51.4633 239.818 51.9421 241.1 52.0459H241.217L241.251 52.1491C242.008 54.71 243.048 57.3878 244.004 60.2516L243.777 60.1414L247.218 58.9918L248.787 58.4617L248.677 58.6958C247.651 55.8527 246.66 53.1198 245.752 50.6071V50.5038L245.835 50.4212C246.835 49.4271 247.581 48.2062 248.009 46.8622C248.374 45.6289 248.374 44.3162 248.009 43.0829C247.259 40.7699 245.711 39.0144 244.032 38.3949C243.288 38.1082 242.495 37.9747 241.699 38.0025C241.104 38.0161 240.513 38.0969 239.937 38.2434C238.912 38.4981 238.43 38.7322 238.423 38.6978Z" fill="#1F1B2D"/>
<path d="M217.146 237.468L148.403 237.151C144.433 237.129 140.634 235.532 137.841 232.71C135.047 229.889 133.488 226.074 133.504 222.102L134.234 49.72C134.242 47.7526 134.637 45.8061 135.398 43.9917C136.158 42.1774 137.269 40.5307 138.666 39.1459C140.063 37.7612 141.72 36.6654 143.54 35.9213C145.361 35.1772 147.31 34.7993 149.277 34.8093L218.013 35.1259C221.983 35.146 225.782 36.7413 228.577 39.5616C231.372 42.3818 232.934 46.1964 232.919 50.1675L232.189 222.543C232.181 224.511 231.786 226.458 231.025 228.273C230.265 230.089 229.155 231.736 227.758 233.122C226.361 234.508 224.705 235.605 222.884 236.351C221.063 237.096 219.113 237.476 217.146 237.468Z" fill="#666276"/>
<path d="M217.913 41.0526H204.59C204.155 41.0607 203.726 41.1543 203.328 41.3282C202.929 41.5021 202.569 41.7528 202.267 42.0661C201.966 42.3793 201.729 42.7489 201.57 43.1538C201.411 43.5587 201.334 43.9909 201.342 44.4258V46.842C201.35 47.2766 201.272 47.7084 201.114 48.1129C200.955 48.5174 200.718 48.8866 200.416 49.1993C200.114 49.512 199.754 49.762 199.355 49.9352C198.957 50.1083 198.528 50.2012 198.094 50.2083L172.122 50.0913C171.243 50.0679 170.41 49.6966 169.804 49.059C169.199 48.4213 168.872 47.5695 168.894 46.6906V44.2743C168.916 43.3965 168.59 42.5458 167.986 41.9083C167.382 41.2709 166.551 40.8988 165.673 40.8736H160.987L149.322 40.8185C146.548 40.802 143.88 41.8859 141.902 43.8329C139.925 45.7798 138.8 48.4312 138.772 51.2065L138.084 219.465C138.078 220.842 138.343 222.207 138.863 223.481C139.384 224.756 140.151 225.915 141.12 226.893C142.089 227.871 143.24 228.649 144.51 229.181C145.779 229.714 147.141 229.992 148.517 229.998L217.115 230.315C218.492 230.321 219.857 230.056 221.132 229.534C222.407 229.013 223.567 228.246 224.545 227.276C225.524 226.306 226.301 225.153 226.834 223.883C227.367 222.612 227.645 221.249 227.651 219.871L228.339 51.6127C228.356 48.8296 227.267 46.1538 225.312 44.1736C223.357 42.1934 220.696 41.0708 217.913 41.0526Z" fill="white"/>
<path d="M165.493 100.397L147.793 100.316L147.778 103.566L165.478 103.646L165.493 100.397Z" fill="#FD5631"/>
<path opacity="0.1" d="M165.493 100.397L147.793 100.316L147.778 103.566L165.478 103.646L165.493 100.397Z" fill="black"/>
<path d="M217.377 120.344C217.516 120.33 217.652 120.297 217.783 120.247C217.973 120.173 218.139 120.046 218.261 119.882C218.382 119.717 218.455 119.522 218.471 119.318C218.471 118.223 218.471 116.626 218.471 114.575C218.471 113.549 218.471 112.399 218.471 111.133C218.471 110.823 218.471 110.499 218.471 110.176C218.516 109.862 218.448 109.542 218.278 109.274C218.184 109.146 218.06 109.041 217.918 108.968C217.776 108.895 217.619 108.856 217.459 108.854H216.386H206.442L148.882 108.641C148.735 108.638 148.589 108.671 148.457 108.737C148.325 108.803 148.211 108.9 148.125 109.019C147.959 109.289 147.895 109.609 147.946 109.921C147.946 110.61 147.946 111.298 147.946 111.986C147.946 113.363 147.946 114.74 147.946 116.117C147.946 116.805 147.946 117.494 147.946 118.182C147.917 118.503 147.917 118.825 147.946 119.146C147.982 119.283 148.049 119.411 148.142 119.518C148.235 119.625 148.352 119.71 148.483 119.765C148.618 119.819 148.764 119.845 148.909 119.841H152.412L167.697 119.924L193.573 120.082L211.018 120.22L215.76 120.275H216.991C217.274 120.275 217.411 120.275 217.411 120.275H216.991H215.76H211.018H193.573L167.697 120.192L152.412 120.13H148.909C148.717 120.138 148.524 120.105 148.345 120.034C148.164 119.956 148.003 119.839 147.874 119.69C147.745 119.54 147.652 119.364 147.602 119.173C147.562 118.993 147.548 118.807 147.561 118.623V118.113C147.561 117.425 147.561 116.736 147.561 116.048C147.561 114.671 147.561 113.294 147.561 111.918C147.561 111.229 147.561 110.541 147.561 109.852C147.547 109.669 147.547 109.485 147.561 109.302C147.586 109.099 147.665 108.907 147.788 108.744C147.906 108.578 148.064 108.443 148.246 108.351C148.428 108.258 148.63 108.211 148.834 108.214L206.393 108.531L216.338 108.599H217.411C217.6 108.6 217.787 108.645 217.954 108.733C218.122 108.82 218.266 108.947 218.375 109.102C218.569 109.401 218.647 109.761 218.595 110.114C218.595 110.437 218.595 110.761 218.595 111.071C218.595 112.324 218.595 113.473 218.595 114.513C218.595 116.578 218.547 118.161 218.533 119.263C218.516 119.475 218.439 119.677 218.311 119.847C218.183 120.016 218.009 120.146 217.81 120.22C217.68 120.3 217.53 120.343 217.377 120.344Z" fill="#D5D2DC"/>
<path d="M185.48 112.096H153.107V115.132H185.48V112.096Z" fill="#FD5631"/>
<path opacity="0.2" d="M185.48 112.096H153.107V115.132H185.48V112.096Z" fill="white"/>
<path d="M165.37 130.039L147.67 129.959L147.655 133.208L165.355 133.289L165.37 130.039Z" fill="#FD5631"/>
<path opacity="0.1" d="M165.37 130.039L147.67 129.959L147.655 133.208L165.355 133.289L165.37 130.039Z" fill="black"/>
<path d="M216.931 149.994C217.07 149.977 217.207 149.951 217.343 149.918C217.536 149.857 217.713 149.755 217.862 149.62C218.012 149.484 218.13 149.319 218.211 149.133C218.319 148.855 218.361 148.556 218.334 148.259C218.334 147.929 218.334 147.571 218.334 147.171C218.334 146.373 218.334 145.464 218.334 144.418V140.046C218.367 139.73 218.297 139.411 218.135 139.138C217.965 138.857 217.698 138.649 217.385 138.553C217.042 138.491 216.693 138.473 216.346 138.498H206.443L149.083 138.284C148.774 138.285 148.476 138.398 148.245 138.602C148.013 138.805 147.863 139.086 147.823 139.392C147.823 140.046 147.823 140.769 147.823 141.458C147.823 142.834 147.823 144.211 147.823 145.588C147.823 146.276 147.823 146.965 147.823 147.653C147.798 147.975 147.811 148.299 147.865 148.617C147.95 148.896 148.127 149.139 148.367 149.305C148.621 149.467 148.92 149.544 149.22 149.526H150.177H152.166L167.395 149.601L193.181 149.76L210.565 149.897L215.293 149.953H216.524H216.937H216.524H215.293H210.565H193.181L167.381 149.925L152.152 149.87H149.158C148.786 149.892 148.417 149.793 148.105 149.588C147.792 149.371 147.564 149.052 147.458 148.686C147.397 148.336 147.378 147.98 147.403 147.626C147.403 146.937 147.403 146.249 147.403 145.561C147.403 144.184 147.403 142.807 147.403 141.43C147.403 140.742 147.403 140.053 147.403 139.365C147.454 138.971 147.646 138.609 147.943 138.347C148.241 138.085 148.624 137.94 149.021 137.94L206.381 138.257L216.284 138.332C216.652 138.31 217.023 138.335 217.385 138.408C217.742 138.525 218.044 138.77 218.231 139.096C218.409 139.4 218.486 139.752 218.451 140.102C218.451 140.425 218.451 140.742 218.451 141.058C218.451 142.304 218.451 143.447 218.451 144.5C218.451 145.554 218.451 146.442 218.451 147.254C218.451 147.646 218.451 148.011 218.451 148.349C218.476 148.656 218.427 148.966 218.307 149.25C218.218 149.44 218.088 149.609 217.928 149.744C217.768 149.88 217.58 149.979 217.378 150.035C217.227 150.048 217.076 150.034 216.931 149.994Z" fill="#D5D2DC"/>
<path d="M165.235 160.968L147.535 160.888L147.52 164.137L165.22 164.217L165.235 160.968Z" fill="#FD5631"/>
<path opacity="0.1" d="M165.235 160.968L147.535 160.888L147.52 164.137L165.22 164.217L165.235 160.968Z" fill="black"/>
<path d="M216.789 180.904C216.928 180.887 217.066 180.862 217.201 180.828C217.393 180.767 217.569 180.666 217.719 180.532C217.868 180.398 217.987 180.234 218.069 180.05C218.176 179.772 218.219 179.473 218.192 179.176C218.192 178.838 218.192 178.487 218.192 178.081C218.192 177.29 218.192 176.374 218.192 175.328V170.956C218.225 170.64 218.155 170.321 217.993 170.048C217.819 169.772 217.553 169.567 217.243 169.469C216.9 169.406 216.551 169.385 216.204 169.407H206.301L148.941 169.194C148.632 169.195 148.334 169.307 148.103 169.511C147.871 169.715 147.721 169.996 147.681 170.302C147.681 170.991 147.681 171.679 147.681 172.367C147.681 173.744 147.681 175.121 147.681 176.498C147.681 177.186 147.681 177.875 147.681 178.563C147.656 178.882 147.669 179.204 147.723 179.52C147.805 179.801 147.983 180.044 148.225 180.208C148.478 180.373 148.777 180.451 149.078 180.429H152.072L167.301 180.511L193.088 180.67L210.471 180.807L215.199 180.862H216.431C216.706 180.862 216.844 180.862 216.844 180.862C216.844 180.862 216.706 180.862 216.431 180.862H215.199H210.471H193.088L167.301 180.787L152.072 180.725H149.078C148.706 180.75 148.335 180.65 148.025 180.442C147.712 180.225 147.484 179.907 147.378 179.541C147.317 179.191 147.298 178.835 147.323 178.48C147.323 177.792 147.323 177.104 147.323 176.415C147.323 175.038 147.323 173.662 147.323 172.285C147.323 171.596 147.323 170.908 147.323 170.185C147.372 169.792 147.563 169.43 147.859 169.168C148.156 168.906 148.538 168.761 148.934 168.76L206.294 169.077L216.197 169.153C216.565 169.13 216.936 169.155 217.298 169.228C217.655 169.345 217.957 169.59 218.144 169.917C218.322 170.22 218.399 170.572 218.365 170.922C218.365 171.245 218.365 171.569 218.365 171.879C218.365 173.125 218.365 174.267 218.365 175.321C218.365 176.374 218.365 177.262 218.365 178.074C218.365 178.467 218.365 178.832 218.365 179.169C218.391 179.477 218.341 179.786 218.22 180.071C218.131 180.261 218.001 180.429 217.841 180.564C217.681 180.7 217.493 180.799 217.291 180.855C217.13 180.911 216.957 180.927 216.789 180.904Z" fill="#D5D2DC"/>
<path d="M184.788 142.602L152.416 142.455L152.402 145.49L184.774 145.637L184.788 142.602Z" fill="#FD5631"/>
<path opacity="0.2" d="M184.788 142.602L152.416 142.455L152.402 145.49L184.774 145.637L184.788 142.602Z" fill="white"/>
<path d="M155.341 175.288C155.321 175.565 155.22 175.83 155.05 176.05C154.881 176.27 154.651 176.435 154.388 176.525C154.126 176.616 153.843 176.627 153.574 176.558C153.305 176.488 153.063 176.342 152.876 176.136C152.69 175.93 152.568 175.674 152.526 175.399C152.484 175.125 152.523 174.844 152.639 174.592C152.755 174.34 152.943 174.127 153.178 173.98C153.414 173.834 153.687 173.759 153.965 173.767C154.348 173.788 154.708 173.96 154.965 174.245C155.223 174.529 155.358 174.904 155.341 175.288Z" fill="#FD5631"/>
<path d="M159.73 175.312C159.744 175.506 159.717 175.701 159.652 175.885C159.587 176.068 159.486 176.236 159.353 176.378C159.22 176.521 159.06 176.634 158.881 176.712C158.703 176.789 158.511 176.829 158.316 176.829C158.122 176.829 157.929 176.789 157.751 176.712C157.572 176.634 157.412 176.521 157.279 176.378C157.147 176.236 157.045 176.068 156.98 175.885C156.915 175.701 156.888 175.506 156.902 175.312C156.888 175.118 156.915 174.923 156.98 174.74C157.045 174.557 157.147 174.389 157.279 174.246C157.412 174.104 157.572 173.991 157.751 173.913C157.929 173.835 158.122 173.795 158.316 173.795C158.511 173.795 158.703 173.835 158.881 173.913C159.06 173.991 159.22 174.104 159.353 174.246C159.486 174.389 159.587 174.557 159.652 174.74C159.717 174.923 159.744 175.118 159.73 175.312Z" fill="#FD5631"/>
<path d="M164.119 175.329C164.098 175.606 163.997 175.871 163.828 176.091C163.658 176.311 163.428 176.477 163.166 176.567C162.903 176.657 162.62 176.668 162.351 176.599C162.082 176.53 161.84 176.383 161.654 176.177C161.467 175.971 161.346 175.715 161.304 175.441C161.261 175.167 161.301 174.886 161.417 174.633C161.533 174.381 161.72 174.169 161.956 174.022C162.191 173.875 162.465 173.801 162.742 173.808C163.125 173.831 163.483 174.003 163.741 174.288C163.998 174.572 164.134 174.946 164.119 175.329Z" fill="#FD5631"/>
<path d="M168.505 175.346C168.485 175.623 168.384 175.888 168.215 176.108C168.045 176.328 167.815 176.493 167.552 176.583C167.29 176.674 167.007 176.685 166.738 176.616C166.469 176.546 166.227 176.4 166.04 176.194C165.854 175.988 165.732 175.732 165.69 175.458C165.648 175.183 165.687 174.902 165.803 174.65C165.919 174.398 166.107 174.185 166.342 174.038C166.578 173.892 166.852 173.817 167.129 173.825C167.512 173.848 167.87 174.02 168.128 174.304C168.385 174.589 168.52 174.963 168.505 175.346Z" fill="#FD5631"/>
<path d="M172.887 175.364C172.868 175.641 172.768 175.907 172.599 176.128C172.43 176.349 172.2 176.515 171.938 176.607C171.676 176.698 171.392 176.71 171.123 176.642C170.854 176.573 170.61 176.427 170.423 176.221C170.236 176.016 170.114 175.759 170.071 175.485C170.029 175.21 170.068 174.929 170.184 174.676C170.299 174.424 170.487 174.21 170.723 174.064C170.959 173.917 171.233 173.842 171.51 173.85C171.892 173.873 172.249 174.044 172.506 174.327C172.763 174.61 172.9 174.982 172.887 175.364Z" fill="#FD5631"/>
<path d="M177.277 175.389C177.259 175.664 177.16 175.929 176.993 176.149C176.825 176.369 176.598 176.536 176.337 176.629C176.077 176.721 175.795 176.735 175.526 176.67C175.258 176.604 175.014 176.461 174.826 176.259C174.637 176.057 174.512 175.804 174.466 175.531C174.419 175.258 174.453 174.978 174.564 174.725C174.674 174.471 174.857 174.256 175.088 174.105C175.32 173.953 175.59 173.873 175.867 173.874C176.254 173.888 176.62 174.056 176.885 174.34C177.149 174.624 177.29 175.001 177.277 175.389Z" fill="#FD5631"/>
<path d="M181.66 175.408C181.674 175.602 181.647 175.797 181.582 175.98C181.517 176.164 181.415 176.332 181.283 176.474C181.15 176.616 180.989 176.73 180.811 176.807C180.633 176.885 180.44 176.925 180.246 176.925C180.051 176.925 179.859 176.885 179.681 176.807C179.502 176.73 179.342 176.616 179.209 176.474C179.076 176.332 178.974 176.164 178.909 175.98C178.845 175.797 178.818 175.602 178.832 175.408C178.818 175.214 178.845 175.019 178.909 174.836C178.974 174.652 179.076 174.484 179.209 174.342C179.342 174.2 179.502 174.086 179.681 174.009C179.859 173.931 180.051 173.891 180.246 173.891C180.44 173.891 180.633 173.931 180.811 174.009C180.989 174.086 181.15 174.2 181.283 174.342C181.415 174.484 181.517 174.652 181.582 174.836C181.647 175.019 181.674 175.214 181.66 175.408Z" fill="#FD5631"/>
<path d="M186.043 175.422C186.024 175.698 185.925 175.962 185.758 176.183C185.591 176.403 185.363 176.57 185.103 176.662C184.842 176.755 184.56 176.769 184.292 176.703C184.023 176.638 183.78 176.495 183.591 176.293C183.403 176.09 183.278 175.837 183.231 175.565C183.185 175.292 183.219 175.012 183.329 174.758C183.44 174.505 183.622 174.289 183.854 174.138C184.085 173.987 184.356 173.907 184.632 173.908C185.02 173.922 185.386 174.09 185.65 174.373C185.915 174.657 186.056 175.034 186.043 175.422Z" fill="#FD5631"/>
<path d="M190.43 175.448C190.411 175.725 190.311 175.991 190.142 176.211C189.973 176.432 189.744 176.599 189.481 176.69C189.219 176.781 188.935 176.794 188.666 176.725C188.397 176.656 188.153 176.51 187.966 176.305C187.779 176.099 187.657 175.843 187.614 175.568C187.572 175.293 187.611 175.012 187.727 174.76C187.842 174.507 188.03 174.294 188.266 174.147C188.502 174 188.776 173.926 189.053 173.933C189.435 173.956 189.792 174.127 190.049 174.41C190.306 174.693 190.443 175.065 190.43 175.448Z" fill="#FD5631"/>
<g opacity="0.2">
<path opacity="0.2" d="M157.701 165.406C157.68 165.683 157.579 165.947 157.41 166.167C157.24 166.387 157.01 166.553 156.748 166.643C156.485 166.733 156.202 166.744 155.933 166.675C155.664 166.606 155.422 166.459 155.236 166.253C155.049 166.048 154.928 165.792 154.886 165.517C154.843 165.243 154.883 164.962 154.999 164.71C155.115 164.457 155.302 164.245 155.538 164.098C155.773 163.951 156.047 163.877 156.324 163.884C156.708 163.906 157.067 164.077 157.325 164.362C157.583 164.647 157.718 165.022 157.701 165.406Z" fill="white"/>
<path opacity="0.2" d="M162.082 165.426C162.095 165.62 162.069 165.815 162.004 165.998C161.939 166.182 161.837 166.35 161.704 166.492C161.572 166.634 161.411 166.748 161.233 166.825C161.055 166.903 160.862 166.943 160.668 166.943C160.473 166.943 160.281 166.903 160.102 166.825C159.924 166.748 159.764 166.634 159.631 166.492C159.498 166.35 159.396 166.182 159.331 165.998C159.266 165.815 159.24 165.62 159.253 165.426C159.24 165.232 159.266 165.037 159.331 164.854C159.396 164.67 159.498 164.502 159.631 164.36C159.764 164.218 159.924 164.104 160.102 164.027C160.281 163.949 160.473 163.909 160.668 163.909C160.862 163.909 161.055 163.949 161.233 164.027C161.411 164.104 161.572 164.218 161.704 164.36C161.837 164.502 161.939 164.67 162.004 164.854C162.069 165.037 162.095 165.232 162.082 165.426Z" fill="white"/>
<path opacity="0.2" d="M166.474 165.448C166.454 165.725 166.353 165.989 166.183 166.209C166.014 166.429 165.784 166.595 165.521 166.685C165.259 166.775 164.976 166.786 164.707 166.717C164.438 166.648 164.195 166.501 164.009 166.295C163.823 166.09 163.701 165.834 163.659 165.559C163.617 165.285 163.656 165.004 163.772 164.752C163.888 164.499 164.075 164.287 164.311 164.14C164.547 163.993 164.82 163.919 165.098 163.926C165.48 163.949 165.839 164.122 166.096 164.406C166.354 164.69 166.489 165.064 166.474 165.448Z" fill="white"/>
<path opacity="0.2" d="M170.857 165.469C170.837 165.746 170.735 166.01 170.566 166.23C170.397 166.45 170.166 166.616 169.904 166.706C169.642 166.796 169.358 166.807 169.09 166.738C168.821 166.669 168.578 166.522 168.392 166.316C168.206 166.111 168.084 165.855 168.042 165.58C168 165.306 168.039 165.025 168.155 164.773C168.271 164.52 168.458 164.308 168.694 164.161C168.93 164.014 169.203 163.94 169.481 163.947C169.863 163.97 170.222 164.143 170.479 164.427C170.736 164.711 170.872 165.085 170.857 165.469Z" fill="white"/>
<path opacity="0.2" d="M175.244 165.482C175.225 165.76 175.125 166.025 174.956 166.246C174.788 166.467 174.558 166.633 174.295 166.725C174.033 166.816 173.75 166.828 173.48 166.76C173.211 166.691 172.968 166.545 172.781 166.339C172.594 166.134 172.471 165.878 172.429 165.603C172.386 165.328 172.425 165.047 172.541 164.794C172.657 164.542 172.844 164.329 173.08 164.182C173.316 164.035 173.59 163.96 173.868 163.968C174.249 163.991 174.607 164.162 174.864 164.445C175.121 164.728 175.257 165.1 175.244 165.482Z" fill="white"/>
<path opacity="0.2" d="M179.631 165.498C179.612 165.774 179.513 166.039 179.346 166.259C179.179 166.479 178.951 166.646 178.691 166.738C178.43 166.831 178.148 166.845 177.88 166.779C177.611 166.714 177.368 166.571 177.179 166.369C176.991 166.166 176.866 165.913 176.819 165.641C176.773 165.368 176.807 165.088 176.917 164.835C177.028 164.581 177.21 164.366 177.442 164.214C177.673 164.063 177.944 163.983 178.22 163.984C178.608 163.998 178.974 164.166 179.238 164.45C179.503 164.733 179.644 165.111 179.631 165.498Z" fill="white"/>
<path opacity="0.2" d="M184.019 165.526C184.033 165.72 184.006 165.915 183.941 166.098C183.877 166.282 183.775 166.45 183.642 166.592C183.509 166.734 183.349 166.848 183.17 166.925C182.992 167.003 182.8 167.043 182.605 167.043C182.411 167.043 182.218 167.003 182.04 166.925C181.862 166.848 181.701 166.734 181.568 166.592C181.436 166.45 181.334 166.282 181.269 166.098C181.204 165.915 181.177 165.72 181.191 165.526C181.177 165.332 181.204 165.137 181.269 164.954C181.334 164.771 181.436 164.602 181.568 164.46C181.701 164.318 181.862 164.204 182.04 164.127C182.218 164.049 182.411 164.009 182.605 164.009C182.8 164.009 182.992 164.049 183.17 164.127C183.349 164.204 183.509 164.318 183.642 164.46C183.775 164.602 183.877 164.771 183.941 164.954C184.006 165.137 184.033 165.332 184.019 165.526Z" fill="white"/>
<path opacity="0.2" d="M188.4 165.544C188.382 165.82 188.283 166.085 188.116 166.305C187.949 166.525 187.721 166.692 187.46 166.784C187.2 166.877 186.918 166.891 186.649 166.825C186.381 166.76 186.137 166.617 185.949 166.415C185.76 166.212 185.635 165.959 185.589 165.687C185.542 165.414 185.576 165.134 185.687 164.881C185.797 164.627 185.98 164.412 186.211 164.26C186.443 164.109 186.713 164.029 186.99 164.03C187.377 164.044 187.743 164.212 188.008 164.495C188.272 164.779 188.413 165.156 188.4 165.544Z" fill="white"/>
<path opacity="0.2" d="M192.783 165.566C192.764 165.843 192.664 166.109 192.496 166.33C192.327 166.551 192.097 166.717 191.835 166.808C191.572 166.9 191.289 166.912 191.019 166.843C190.75 166.775 190.507 166.628 190.32 166.423C190.133 166.217 190.011 165.961 189.968 165.686C189.925 165.412 189.964 165.131 190.08 164.878C190.196 164.625 190.383 164.412 190.619 164.265C190.855 164.118 191.129 164.044 191.407 164.051C191.788 164.074 192.146 164.246 192.403 164.529C192.66 164.811 192.796 165.184 192.783 165.566Z" fill="white"/>
</g>
<path d="M186.558 66.1866C187.036 65.976 187.442 65.6294 187.725 65.19C188.007 64.7506 188.155 64.2377 188.148 63.7152C188.166 63.3755 188.114 63.0358 187.997 62.7167C187.879 62.3976 187.698 62.1058 187.464 61.8591C187.23 61.6124 186.948 61.4159 186.635 61.2816C186.323 61.1474 185.986 61.0781 185.646 61.0781C185.306 61.0781 184.97 61.1474 184.658 61.2816C184.345 61.4159 184.063 61.6124 183.829 61.8591C183.595 62.1058 183.414 62.3976 183.296 62.7167C183.179 63.0358 183.127 63.3755 183.145 63.7152C183.134 64.2429 183.28 64.7619 183.565 65.2067C183.849 65.6514 184.258 66.002 184.741 66.2141C180.888 66.7924 181.06 70.9778 181.06 70.9778L190.171 71.0191C190.171 71.0191 190.385 66.7579 186.558 66.1866Z" fill="#FD5631"/>
<path opacity="0.1" d="M186.558 66.1866C187.036 65.976 187.442 65.6294 187.725 65.19C188.007 64.7506 188.155 64.2377 188.148 63.7152C188.166 63.3755 188.114 63.0358 187.997 62.7167C187.879 62.3976 187.698 62.1058 187.464 61.8591C187.23 61.6124 186.948 61.4159 186.635 61.2816C186.323 61.1474 185.986 61.0781 185.646 61.0781C185.306 61.0781 184.97 61.1474 184.658 61.2816C184.345 61.4159 184.063 61.6124 183.829 61.8591C183.595 62.1058 183.414 62.3976 183.296 62.7167C183.179 63.0358 183.127 63.3755 183.145 63.7152C183.134 64.2429 183.28 64.7619 183.565 65.2067C183.849 65.6514 184.258 66.002 184.741 66.2141C180.888 66.7924 181.06 70.9778 181.06 70.9778L190.171 71.0191C190.171 71.0191 190.385 66.7579 186.558 66.1866Z" fill="black"/>
<path d="M201.364 73.7168L168.889 73.5693L168.871 77.4519L201.346 77.5993L201.364 73.7168Z" fill="#FD5631"/>
<path opacity="0.2" d="M201.364 73.7168L168.889 73.5693L168.871 77.4519L201.346 77.5993L201.364 73.7168Z" fill="white"/>
<path d="M99.063 43.7349H98.7395L97.8036 43.8038C97.2971 43.8342 96.7934 43.9009 96.2965 44.0034C95.9746 44.0486 95.6553 44.1106 95.3399 44.1893L94.2732 44.4853C92.4577 45.0425 90.7447 45.8911 89.2013 46.9979C87.1621 48.4785 85.4594 50.3742 84.2051 52.5602C83.4679 53.8203 82.8812 55.1627 82.4571 56.5598C82.0115 58.0782 81.7549 59.6459 81.6932 61.2272C81.6522 62.0578 81.666 62.8903 81.7345 63.7192C81.7345 64.1391 81.8515 64.559 81.9066 64.9858C81.9529 65.4161 82.0334 65.8419 82.1474 66.2594C82.7662 69.0218 84.0219 71.6012 85.8141 73.7921C87.6064 75.9829 89.8857 77.7244 92.4702 78.8778C94.3407 79.6851 96.3456 80.1357 98.3817 80.2064C100.485 80.3221 102.59 80.0202 104.575 79.3183L105.181 79.0912H105.263L105.332 79.1325L114.01 83.5382L113.756 83.7585C112.827 80.881 111.932 78.093 111.065 75.4151V75.3118L111.141 75.2361C113.246 73.1151 114.808 70.5175 115.696 67.6637C116.5 65.0547 116.735 62.3033 116.385 59.5957C116.073 57.1894 115.299 54.8659 114.107 52.753C113.079 50.9379 111.753 49.3088 110.184 47.9342C108.89 46.8461 107.457 45.9341 105.924 45.2219C104.764 44.7213 103.556 44.3407 102.318 44.086L100.942 43.8588L99.9438 43.7831L99.3382 43.7418H99.1318C99.2004 43.7342 99.2696 43.7342 99.3382 43.7418H99.9507L100.949 43.7831L102.325 43.9827C103.578 44.2188 104.803 44.5857 105.979 45.0773C107.539 45.781 108.997 46.691 110.315 47.7827C111.912 49.1513 113.266 50.7806 114.32 52.6015C115.546 54.7372 116.344 57.0921 116.667 59.5337C117.046 62.2831 116.828 65.0822 116.027 67.7394C115.133 70.6526 113.546 73.3054 111.402 75.4702L111.443 75.2912C112.31 77.9691 113.212 80.7571 114.148 83.6277L114.279 84.0476L113.886 83.848L105.208 79.4491H105.36L104.74 79.6763C102.716 80.3887 100.573 80.6974 98.4298 80.585C96.3499 80.5058 94.3031 80.0388 92.3945 79.2082C88.7538 77.6485 85.7247 74.9377 83.7715 71.4912C82.8727 69.8995 82.2163 68.1825 81.824 66.3971C81.7165 65.9688 81.6361 65.5343 81.5831 65.096C81.5281 64.6623 81.4386 64.2355 81.4179 63.8087C81.2317 61.3592 81.4905 58.8963 82.1818 56.5392C82.6165 55.1229 83.2195 53.7639 83.978 52.4914C85.2622 50.2855 87.0004 48.3778 89.0774 46.8947C90.6462 45.785 92.388 44.9429 94.2319 44.4027L95.3124 44.1273C95.6304 44.0535 95.9519 43.9961 96.2758 43.9552C96.7779 43.8622 97.2863 43.807 97.7967 43.79L98.7395 43.7556C98.8467 43.7411 98.9548 43.7342 99.063 43.7349Z" fill="#FD5631"/>
<path d="M102.982 59.79H101.709L98.9565 55.9212V53.381C98.9565 53.381 96.9883 53.2571 97.2223 56.582C97.4563 59.907 97.2223 59.0603 97.2223 59.0603C97.2223 59.0603 93.045 59.0603 92.7009 59.4389C92.3569 59.8175 92.3362 63.8515 92.288 66.1026C92.2617 66.6452 92.4173 67.1811 92.7303 67.6252C93.0432 68.0692 93.4956 68.3958 94.0154 68.5533C94.1611 68.5937 94.3115 68.6145 94.4627 68.6152C95.5087 68.6152 100.828 67.7685 100.828 67.7685H103.024L102.982 59.79Z" fill="#FD5631"/>
<path d="M106.627 59.1099L105.843 67.8112H103.668V59.2889L106.627 59.1099Z" fill="#FD5631"/>
<path d="M88.9401 286.357V280.471L78.3902 280.395L78.3008 289.296L78.9546 289.344C81.8656 289.53 93.7642 289.805 95.7187 289.2C97.8933 288.525 88.9401 286.357 88.9401 286.357Z" fill="#FD5631"/>
<path d="M95.9672 288.651C95.9672 288.747 92.017 288.83 87.1516 288.83C82.2861 288.83 78.3359 288.747 78.3359 288.651C78.3359 288.554 82.2861 288.472 87.1516 288.472C92.017 288.472 95.9672 288.554 95.9672 288.651Z" fill="#1F1B2D"/>
<path d="M89.1282 287.563C89.0387 287.514 89.1282 287.205 89.3416 286.874C89.5549 286.544 89.8439 286.406 89.9127 286.475C89.9816 286.544 89.837 286.805 89.6306 287.087C89.4241 287.37 89.2177 287.611 89.1282 287.563Z" fill="#1F1B2D"/>
<path d="M89.8016 287.95C89.7052 287.95 89.7534 287.565 89.9599 287.2C90.1663 286.835 90.4416 286.615 90.5173 286.67C90.593 286.725 90.4691 287.035 90.2764 287.358C90.0837 287.682 89.891 287.985 89.8016 287.95Z" fill="#1F1B2D"/>
<path d="M81.5159 288.623C81.4746 288.623 81.3163 288.499 81.0892 288.238C80.812 287.902 80.5032 287.593 80.167 287.315C79.8365 287.051 79.4427 286.878 79.0247 286.813C78.7012 286.771 78.4948 286.813 78.4741 286.771C78.4535 286.73 78.653 286.586 79.0315 286.558C79.5311 286.548 80.0183 286.713 80.4079 287.026C80.7729 287.324 81.0807 287.685 81.3163 288.093C81.4746 288.396 81.5572 288.596 81.5159 288.623Z" fill="#1F1B2D"/>
<path d="M89.1617 286.451C89.2099 286.534 89.031 286.74 88.7282 286.851C88.4254 286.961 88.157 286.919 88.1432 286.851C88.1294 286.782 88.3428 286.637 88.6043 286.541C88.8658 286.444 89.1067 286.369 89.1617 286.451Z" fill="#1F1B2D"/>
<path d="M88.9949 285.885C88.9949 285.989 88.7196 286.071 88.3618 286.078C88.0039 286.085 87.7218 286.002 87.7286 285.906C87.7355 285.81 88.0177 285.72 88.3618 285.713C88.7059 285.706 88.9811 285.789 88.9949 285.885Z" fill="#1F1B2D"/>
<path d="M114.919 286.357V280.471L104.369 280.395L104.279 289.207L104.933 289.255C107.844 289.441 119.75 289.806 121.697 289.2C123.872 288.525 114.919 286.357 114.919 286.357Z" fill="#FD5631"/>
<path d="M121.947 288.667C121.947 288.764 118.003 288.846 113.131 288.846C108.259 288.846 104.322 288.764 104.322 288.667C104.322 288.571 108.266 288.488 113.131 288.488C117.996 288.488 121.947 288.571 121.947 288.667Z" fill="#1F1B2D"/>
<path d="M115.106 287.563C115.023 287.514 115.106 287.205 115.319 286.874C115.532 286.544 115.821 286.406 115.89 286.475C115.959 286.544 115.815 286.805 115.608 287.087C115.402 287.37 115.195 287.611 115.106 287.563Z" fill="#1F1B2D"/>
<path d="M115.781 287.95C115.691 287.95 115.733 287.565 115.946 287.2C116.159 286.835 116.428 286.615 116.503 286.67C116.579 286.725 116.448 287.035 116.256 287.358C116.063 287.682 115.877 287.985 115.781 287.95Z" fill="#1F1B2D"/>
<path d="M107.494 288.623C107.453 288.623 107.302 288.499 107.068 288.238C106.791 287.902 106.482 287.593 106.146 287.315C105.815 287.051 105.421 286.878 105.003 286.813C104.687 286.771 104.473 286.813 104.453 286.771C104.432 286.73 104.632 286.586 105.01 286.558C105.51 286.548 105.997 286.713 106.386 287.026C106.753 287.322 107.061 287.684 107.295 288.093C107.453 288.396 107.536 288.596 107.494 288.623Z" fill="#1F1B2D"/>
<path d="M115.142 286.451C115.19 286.534 115.011 286.74 114.709 286.851C114.406 286.961 114.137 286.919 114.124 286.851C114.11 286.782 114.323 286.637 114.585 286.541C114.846 286.444 115.087 286.369 115.142 286.451Z" fill="#1F1B2D"/>
<path d="M114.988 285.885C114.988 285.989 114.713 286.071 114.355 286.078C113.997 286.085 113.722 286.002 113.729 285.906C113.736 285.81 114.011 285.72 114.355 285.713C114.699 285.706 114.988 285.789 114.988 285.885Z" fill="#1F1B2D"/>
<path d="M153.789 111.572C153.513 111.29 152.832 111.428 152.832 111.428C152.9 111.031 152.9 110.626 152.832 110.23C152.708 109.844 151.841 109.92 151.841 109.92C151.801 109.595 151.801 109.267 151.841 108.942C151.848 108.87 151.833 108.798 151.797 108.735C151.761 108.672 151.707 108.622 151.642 108.591C151.231 108.424 150.791 108.344 150.348 108.357C149.818 107.979 151.965 104.97 152.763 104.007C153.562 103.043 153.417 102.292 152.708 102.292C152.22 102.292 149.715 105.184 148.944 106.154C148.173 107.125 146.129 109.824 146.06 107.669C145.992 105.514 145.124 103.89 144.581 103.614C144.037 103.339 143.459 103.986 143.755 104.585C144.015 105.265 144.177 105.979 144.237 106.705C144.311 107.283 144.286 107.87 144.161 108.44C143.933 109.5 143.622 110.54 143.232 111.551H143.177C143.177 111.551 128.161 125.96 127.073 126.985C126.103 127.908 106.586 125.891 102.67 125.478C101.34 125.283 99.9962 125.191 98.6515 125.202C96.9517 125.278 96.6489 125.519 94.9559 125.54C90.6806 125.587 86.4151 125.962 82.197 126.662C80.2871 126.987 78.503 127.83 77.0394 129.1C75.5758 130.37 74.489 132.017 73.8975 133.863C69.9542 146.185 61.0216 175.352 59.4457 191.736C58.2548 193.897 57.1797 196.119 56.225 198.393C55.117 201.408 55.3854 201.512 55.757 201.58C56.7618 201.766 57.9042 196.355 58.3308 197.663C58.7575 198.971 56.1631 204.114 57.216 204.265C58.5923 204.458 59.6866 198.758 59.8173 198.304C59.9481 197.849 60.6294 197.994 60.5055 198.421C60.3059 199.026 58.3721 205.449 59.721 205.656C60.4642 205.766 60.5468 204.41 60.5468 204.41C60.5468 204.41 61.9232 198.262 62.5494 198.386C63.1756 198.51 62.5081 202.138 62.1915 203.35C61.875 204.561 62.3154 205.174 62.9623 204.878C63.4027 204.671 64.4557 200.988 64.7447 199.791C65.0337 198.593 65.7563 195.275 66.7267 197.195C67.697 199.116 69.1697 200.231 69.7753 200.259C69.9118 200.243 70.0404 200.187 70.1447 200.097C70.2489 200.008 70.324 199.889 70.3603 199.757C70.3965 199.624 70.3923 199.484 70.3482 199.354C70.304 199.223 70.2219 199.11 70.1125 199.026C69.5916 198.518 69.1446 197.938 68.7843 197.305C68.4633 196.812 68.2304 196.267 68.0962 195.695C67.8188 194.553 67.6574 193.386 67.6144 192.211L67.5043 191.523C69.0458 183.889 73.4846 161.481 79.8916 147.169L82.5205 152.58L83.6628 156.587L76.6572 173.886L106.538 173.494L102.079 156.325L107.495 138.427C113.351 138.557 128.388 138.778 130.893 137.642C134.045 136.265 150.348 115.668 150.348 115.668C151.41 114.842 152.428 113.96 153.396 113.025C153.396 113.025 154.387 112.192 153.789 111.572Z" fill="#FFBE9D"/>
<path d="M75.3413 161.102C76.2085 158.142 80.661 143.506 80.661 143.506C80.661 143.506 82.8494 155.436 82.2714 156.875C81.7396 158.107 81.1114 159.295 80.3926 160.427C75.3413 168.117 76.002 171.965 76.002 171.965L106.523 171.035C106.592 166.767 104.066 156.841 103.543 155.257C103.02 153.674 104.761 148.49 104.761 148.49C104.761 148.49 108.202 144.986 108.078 143.183C108.013 141.563 107.813 139.951 107.479 138.364L126.06 139.052L125.475 126.455L98.7877 123.784C97.8587 126.406 89.456 125.119 89.456 125.119C80.3857 125.422 79.8214 127.088 76.0502 130.021C72.2789 132.953 66.0371 158.121 66.0371 158.121L75.3413 161.102Z" fill="#FD5631"/>
<path d="M93.388 158.125C92.859 158.219 92.3203 158.247 91.7845 158.207C90.7866 158.207 89.4172 158.139 87.91 157.987C86.4029 157.836 85.0403 157.622 84.07 157.43C83.5349 157.361 83.0103 157.227 82.5078 157.03C83.0459 157.03 83.5827 157.081 84.1113 157.182C85.0885 157.306 86.4442 157.478 87.9444 157.629C89.4447 157.781 90.8073 157.884 91.7914 157.953C92.3278 157.96 92.8624 158.017 93.388 158.125Z" fill="#1F1B2D"/>
<path d="M95.4783 155.528C94.9492 155.787 94.3897 155.979 93.8129 156.099C91.0673 156.821 88.2346 157.157 85.3964 157.097C84.8091 157.117 84.2218 157.061 83.6484 156.932C84.2281 156.859 84.8123 156.829 85.3964 156.843C86.4769 156.808 87.9633 156.733 89.6012 156.54C91.2391 156.347 92.698 156.072 93.7303 155.851C94.3037 155.698 94.8881 155.59 95.4783 155.528Z" fill="#1F1B2D"/>
<path d="M105.746 143.948C105.732 144.473 105.66 144.995 105.532 145.504C105.353 146.461 105.078 147.769 104.727 149.201C104.376 150.633 104.039 151.954 103.736 152.849C103.614 153.362 103.434 153.858 103.199 154.329C103.238 153.806 103.335 153.289 103.488 152.787C103.75 151.713 104.046 150.474 104.376 149.118C104.706 147.762 105.023 146.523 105.284 145.449C105.378 144.932 105.532 144.428 105.746 143.948Z" fill="#1F1B2D"/>
<path d="M75.6646 159.35C74.0726 159.104 72.5013 158.738 70.9643 158.255C69.3938 157.888 67.8527 157.405 66.3535 156.81C67.9448 157.06 69.5158 157.425 71.0538 157.904C72.6247 158.27 74.1659 158.753 75.6646 159.35Z" fill="#1F1B2D"/>
<path d="M107.81 138.214C107.55 138.259 107.285 138.259 107.026 138.214C106.307 138.14 105.601 137.971 104.927 137.711C103.801 137.288 102.776 136.634 101.918 135.791C101.06 134.948 100.387 133.935 99.9441 132.817C99.4541 131.587 99.2448 130.263 99.3316 128.941C99.3623 127.851 99.6882 126.79 100.274 125.871C100.687 125.252 101.303 124.796 102.016 124.584C102.206 124.531 102.403 124.506 102.601 124.508C102.738 124.508 102.807 124.508 102.807 124.508C102.807 124.508 102.518 124.508 102.057 124.694C101.403 124.935 100.848 125.389 100.481 125.981C99.545 127.454 99.2835 130.146 100.281 132.659C100.746 133.843 101.473 134.907 102.408 135.77C103.174 136.476 104.056 137.045 105.016 137.45C105.917 137.806 106.854 138.062 107.81 138.214Z" fill="#1F1B2D"/>
<path d="M123.854 138.805C123.682 136.694 123.627 134.575 123.689 132.458C123.635 130.343 123.699 128.226 123.881 126.118C124.054 128.227 124.109 130.344 124.047 132.458C124.104 134.576 124.04 136.695 123.854 138.805Z" fill="#1F1B2D"/>
<path d="M98.6124 124.556C98.6881 123.02 98.8464 121.286 98.8464 121.286C98.8464 121.286 102.645 120.866 102.872 116.942C103.099 113.018 102.872 103.966 102.872 103.966L95.9904 100.441L88.3516 106.451L89.5284 126.07L96.5341 126.518C97.0696 126.532 97.5891 126.334 97.9787 125.966C98.3683 125.599 98.5962 125.091 98.6124 124.556Z" fill="#FFBE9D"/>
<path d="M99.2906 113.835C99.2906 113.835 99.2906 113.91 99.2287 114C99.1775 114.065 99.1112 114.116 99.0357 114.15C98.9602 114.183 98.8776 114.198 98.7951 114.193C98.3547 114.193 97.928 113.683 97.7766 113.091C97.7047 112.804 97.7047 112.504 97.7766 112.217C97.7908 112.092 97.8359 111.972 97.908 111.868C97.9801 111.765 98.0769 111.681 98.1895 111.625C98.2821 111.587 98.386 111.587 98.4786 111.625C98.5472 111.659 98.6028 111.715 98.6368 111.783C98.685 111.9 98.6368 111.976 98.6368 111.969C98.6368 111.962 98.6368 111.9 98.568 111.831C98.5321 111.782 98.4792 111.748 98.4195 111.735C98.3598 111.722 98.2975 111.732 98.2446 111.763C98.1602 111.814 98.09 111.885 98.0407 111.971C97.9914 112.056 97.9644 112.153 97.9624 112.251C97.9045 112.507 97.9045 112.773 97.9624 113.029C98.1001 113.566 98.4717 114 98.802 114.041C98.8666 114.05 98.9324 114.045 98.9951 114.027C99.0579 114.01 99.1163 113.979 99.1667 113.938C99.2493 113.883 99.2769 113.828 99.2906 113.835Z" fill="#EB996E"/>
<path d="M105.231 101.845C104.701 100.042 102.781 99.1469 101.033 98.6512C98.3694 97.894 95.4928 97.5635 92.8915 98.5204C90.2901 99.4773 87.1658 101.157 87.1658 104.028C85.6311 103.904 84.7503 105.246 84.1447 106.912C83.7575 107.927 83.5255 108.995 83.4565 110.079C83.2638 113.837 82.2109 119.028 79.7747 121.781C78.3983 123.317 76.4921 124.377 75.7075 126.291C75.0194 127.95 75.3772 129.918 74.7372 131.598C74.166 133.078 72.9066 134.131 71.9845 135.419C71.045 136.879 70.4921 138.554 70.3777 140.287C70.2634 142.02 70.5913 143.754 71.3307 145.325C72.0754 146.856 73.1239 148.219 74.4124 149.331C75.7008 150.444 77.2022 151.282 78.825 151.796C82.0395 152.774 85.4674 152.807 88.7004 151.892C91.1268 151.312 93.3902 150.189 95.3207 148.608C97.2961 146.995 98.6528 144.748 99.1608 142.248C99.6494 139.439 98.8649 136.582 98.2799 133.787C96.4494 124.955 96.9724 124.494 99.2847 116.295C99.3397 116.15 99.3673 115.999 99.4086 115.854C99.4498 115.71 99.4705 115.641 99.498 115.531C99.5637 115.207 99.5983 114.877 99.6012 114.546C99.2635 114.672 98.8969 114.699 98.5446 114.623C98.1923 114.547 97.8689 114.373 97.6124 114.12C97.3553 113.85 97.1761 113.515 97.0937 113.152C97.0113 112.788 97.0288 112.409 97.1444 112.054C97.3068 111.667 97.5487 111.318 97.8546 111.029C98.1605 110.741 98.5234 110.521 98.9199 110.382C99.6838 110.065 100.503 109.9 101.253 109.549C102.843 108.791 103.944 107.222 104.694 105.577C105.311 104.436 105.501 103.113 105.231 101.845Z" fill="#1F1B2D"/>
<path d="M99.5699 114.022C99.7154 114.237 99.8354 114.468 99.9278 114.71C100.134 115.144 100.41 115.757 100.712 116.466L100.767 116.597H100.623L99.9347 116.659C99.4598 116.659 99.0607 116.748 98.5927 116.741C98.552 116.732 98.5142 116.713 98.4829 116.685C98.4517 116.657 98.4279 116.622 98.4138 116.583C98.3933 116.52 98.3933 116.453 98.4138 116.39C98.4297 116.297 98.4504 116.205 98.4757 116.115L98.5996 115.626C98.6619 115.3 98.7588 114.981 98.8887 114.676C98.8758 115.008 98.8274 115.338 98.7441 115.66L98.6478 116.149C98.6134 116.314 98.5514 116.569 98.6478 116.548C98.9919 116.548 99.4805 116.473 99.9347 116.445L100.623 116.383L100.533 116.535C100.237 115.846 99.9897 115.199 99.8452 114.752C99.7184 114.523 99.6257 114.277 99.5699 114.022Z" fill="#FD5631"/>
<path d="M76.0043 171.965L106.525 171.036L119.807 222.9L117.364 282.392H101.226L103.201 224.167L91.399 188.06L93.2158 284.698L76.9059 284.939L75.1923 194.104C75.1166 191.578 74.2908 185.885 74.6004 183.379L76.0043 171.965Z" fill="#1F1B2D"/>
<path d="M95.4609 188.796C94.9613 188.827 94.4598 188.797 93.9675 188.706C93.0454 188.596 91.786 188.404 90.4027 188.128C89.0195 187.853 87.7808 187.536 86.8861 187.281C86.4079 187.176 85.9453 187.01 85.5098 186.786C85.5098 186.683 87.7532 187.219 90.506 187.777C93.2587 188.335 95.4746 188.693 95.4609 188.796Z" fill="#666276"/>
<path d="M117.198 279.126C117.198 279.223 113.544 279.305 109.036 279.305C104.528 279.305 100.867 279.223 100.867 279.126C100.867 279.03 104.521 278.947 109.036 278.947C113.55 278.947 117.198 279.023 117.198 279.126Z" fill="#666276"/>
<path d="M93.0696 282.189C93.0696 282.292 89.5185 282.368 85.1417 282.368C80.7649 282.368 77.2207 282.292 77.2207 282.189C77.2207 282.086 80.7717 282.01 85.1417 282.01C89.5117 282.01 93.0696 282.092 93.0696 282.189Z" fill="#666276"/>
<path d="M90.9637 281.938C90.8674 281.938 90.4407 260.825 90.0072 234.782C89.5736 208.74 89.319 187.613 89.4085 187.613C89.4979 187.613 89.9384 208.72 90.365 234.776C90.7917 260.832 91.067 281.938 90.9637 281.938Z" fill="#666276"/>
<path d="M115.031 279.127C115.024 279.033 115.024 278.939 115.031 278.845V278.019C115.031 277.275 115.086 276.208 115.128 274.852C115.224 272.099 115.362 268.099 115.534 263.198C115.905 253.34 116.428 239.751 117 224.75C117 224.606 117 224.468 117 224.344V224.392C113.387 209.936 110.118 196.815 107.744 187.322L104.991 176.094C104.674 174.779 104.433 173.754 104.261 173.038C104.179 172.7 104.124 172.439 104.076 172.239C104.049 172.15 104.033 172.057 104.027 171.964C104.063 172.051 104.091 172.14 104.11 172.232C104.165 172.425 104.234 172.687 104.33 173.017C104.516 173.706 104.784 174.752 105.128 176.06C105.817 178.717 106.787 182.545 107.998 187.26C110.393 196.746 113.696 209.833 117.357 224.31V224.358C117.357 224.482 117.357 224.626 117.357 224.764C116.745 239.764 116.188 253.347 115.782 263.204C115.568 268.113 115.389 272.085 115.265 274.852C115.197 276.229 115.142 277.275 115.107 278.019C115.107 278.37 115.066 278.645 115.059 278.845C115.06 278.94 115.051 279.034 115.031 279.127Z" fill="#666276"/>
<path d="M109.765 223.136C108.606 223.517 107.411 223.782 106.2 223.927C104.713 224.182 103.447 224.361 102.876 224.389V224.251C103.062 224.306 103.158 224.34 103.158 224.368C103.158 224.396 103.041 224.368 102.848 224.368H102.436L102.848 224.244C103.385 224.086 104.652 223.824 106.138 223.556C107.33 223.297 108.545 223.156 109.765 223.136Z" fill="#666276"/>
<path d="M109.484 225.113C108.411 225.163 107.335 225.114 106.27 224.969C105.195 224.947 104.124 224.829 103.07 224.618C105.221 224.442 107.386 224.61 109.484 225.113Z" fill="#666276"/>
<path opacity="0.2" d="M75.875 173.06C76.2365 173.524 76.6917 173.907 77.2111 174.184C77.7305 174.46 78.3023 174.624 78.8892 174.664C80.1185 174.81 81.3618 174.786 82.5848 174.595C90.4645 173.721 98.8121 172.915 106.527 171.036C96.5411 171.594 85.9913 171.408 76.0058 171.965L75.9025 172.819" fill="black"/>
<g opacity="0.2">
<path opacity="0.2" d="M86.1621 187.139L91.7914 208.989L91.3992 188.062L86.1621 187.139Z" fill="black"/>
</g>
</svg>
