<svg width="344" height="404" viewBox="0 0 344 404" fill="none" xmlns="http://www.w3.org/2000/svg">
<path d="M237.912 86.2278L29.4434 108.152L57.4172 373.58L265.886 351.655L237.912 86.2278Z" fill="#EFECF3"/>
<path d="M245.861 91.9082L39.4727 122.831L75.9192 365.574L282.308 334.651L245.861 91.9082Z" fill="#F5F4F8"/>
<path d="M327.041 113.828C327.041 113.828 318.843 108.431 308.912 127.941C298.981 147.451 295.181 158.691 295.181 158.691C295.181 158.691 292.549 162.737 289.738 160.107C286.927 157.477 283.071 149.846 278.292 151.206C273.334 152.622 271.698 158.149 272.621 166.273C273.545 174.398 274.986 192.265 275.108 193.884C275.229 195.502 274.298 197.808 272.111 196.311C269.924 194.814 257.197 180.669 250.846 187.094C244.496 193.52 250.846 215.708 251.503 218.152C252.159 220.596 251.673 221.632 250.506 222.198C249.34 222.765 245.524 217.65 241.749 213.782C237.975 209.914 232.912 206.087 229.558 210.092C226.204 214.098 225.135 230.76 240.996 257.836L249.178 269.917L263.759 269.108C294.93 265.475 307.6 254.591 308.782 249.493C309.965 244.395 303.865 242.679 298.495 241.991C293.124 241.304 286.708 241.368 286.489 240.082C286.271 238.795 286.822 237.784 289.163 236.845C291.504 235.906 313.068 227.596 314.372 218.662C315.676 209.728 296.737 208.142 294.193 207.26C291.65 206.378 292.978 204.282 294.315 203.416C295.651 202.55 310.816 192.897 317.879 188.77C324.943 184.643 328.37 180.006 326.523 175.199C324.733 170.562 316.348 172.059 312.517 171.428C308.685 170.797 310.37 166.233 310.37 166.233C310.37 166.233 317.102 156.442 326.701 136.745C336.3 117.049 326.823 113.739 326.823 113.739" fill="#F5F4F8"/>
<path opacity="0.1" d="M318.099 131.289C318.099 131.289 318.042 131.434 317.912 131.709L317.345 132.931L315.11 137.649C313.165 141.695 310.306 147.562 306.75 154.78C299.637 169.208 289.682 189.042 278.551 210.939C267.421 232.837 257.409 252.695 250.199 267.09L241.709 284.157L239.457 288.794L238.842 289.999C238.704 290.266 238.623 290.396 238.623 290.396C238.623 290.396 238.68 290.25 238.801 289.975L239.376 288.753L241.612 284.084C243.556 280.038 246.408 274.171 249.964 266.953C257.076 252.517 267.064 232.65 278.171 210.737C289.277 188.824 299.305 168.998 306.523 154.594C310.095 147.4 313.003 141.582 315.004 137.528C316.001 135.529 316.778 133.967 317.321 132.891L317.929 131.693C318.034 131.426 318.099 131.289 318.099 131.289Z" fill="black"/>
<path opacity="0.1" d="M283.254 162.081C283.417 162.394 283.542 162.725 283.627 163.068C283.837 163.707 284.113 164.686 284.437 165.811C285.101 168.142 285.927 171.378 286.778 174.963C287.628 178.548 288.349 181.712 288.924 184.164C289.192 185.265 289.41 186.195 289.589 186.948C289.692 187.283 289.763 187.627 289.799 187.975C289.635 187.662 289.507 187.331 289.419 186.988C289.208 186.349 288.932 185.41 288.608 184.245C287.969 181.906 287.183 178.661 286.332 175.068C285.482 171.476 284.712 168.336 284.121 165.892C283.853 164.791 283.627 163.861 283.44 163.116C283.347 162.777 283.285 162.431 283.254 162.081Z" fill="black"/>
<path opacity="0.1" d="M291.143 188.235C291.143 188.114 297.712 186.115 305.894 183.76C314.076 181.406 320.742 179.609 320.775 179.714C320.807 179.82 314.205 181.843 306.023 184.189C297.842 186.536 291.175 188.357 291.143 188.235Z" fill="black"/>
<path opacity="0.1" d="M272.566 221.102C272.923 221.046 273.284 221.03 273.644 221.054H276.568C279.039 221.054 282.449 221.054 286.208 220.908C289.967 220.762 293.377 220.528 295.831 220.334L298.748 220.107C299.105 220.063 299.467 220.063 299.825 220.107C299.481 220.207 299.129 220.274 298.772 220.309C298.083 220.414 297.095 220.544 295.864 220.682C293.434 220.965 289.999 221.256 286.224 221.394C282.449 221.531 279.039 221.499 276.56 221.394C275.329 221.345 274.332 221.297 273.636 221.24C273.275 221.232 272.917 221.186 272.566 221.102Z" fill="black"/>
<path opacity="0.1" d="M260.225 199.015C260.444 199.262 260.634 199.534 260.792 199.824C261.172 200.447 261.642 201.224 262.201 202.131C263.376 204.089 264.332 207.447 266.705 209.818C268.439 212.836 269.994 215.58 271.096 217.578C271.598 218.509 272.027 219.31 272.384 219.949C272.56 220.232 272.699 220.537 272.797 220.856C272.578 220.609 272.387 220.337 272.23 220.047C271.841 219.426 271.371 218.657 270.82 217.74C269.646 215.79 268.05 213.071 266.316 210.053C264.583 207.034 263.027 204.291 261.926 202.301L260.638 199.962C260.458 199.666 260.319 199.348 260.225 199.015Z" fill="black"/>
<path opacity="0.1" d="M240.141 225.952C240.414 226.278 240.656 226.631 240.862 227.004L242.676 229.949C244.199 232.45 246.265 235.921 248.533 239.765C250.801 243.609 252.818 247.104 254.268 249.637C254.949 250.859 255.524 251.871 255.961 252.664C256.183 253.024 256.373 253.403 256.528 253.797C256.256 253.472 256.015 253.122 255.807 252.753L253.993 249.799C252.47 247.307 250.404 243.835 248.144 239.991C245.884 236.148 243.851 232.652 242.401 230.111C241.72 228.897 241.153 227.878 240.708 227.093C240.486 226.729 240.296 226.348 240.141 225.952Z" fill="black"/>
<path opacity="0.1" d="M256.322 253.019C256.773 252.952 257.228 252.919 257.683 252.922L261.393 252.809C264.52 252.696 268.846 252.534 273.609 252.226C278.372 251.919 282.69 251.53 285.809 251.223L289.503 250.867C289.953 250.8 290.408 250.773 290.863 250.786C290.424 250.9 289.978 250.984 289.527 251.037C288.66 251.174 287.396 251.352 285.841 251.538C282.73 251.927 278.421 252.348 273.641 252.671C268.862 252.995 264.536 253.1 261.393 253.125C259.83 253.125 258.558 253.125 257.683 253.125C257.227 253.134 256.771 253.098 256.322 253.019Z" fill="black"/>
<path d="M14.1933 246.958C15.6363 246.226 17.2124 245.792 18.8272 245.684C20.4419 245.575 22.062 245.794 23.5901 246.326C26.6507 247.408 29.422 249.177 31.6907 251.497C36.1785 255.835 38.9813 262.446 40.6015 268.491C33.7969 269.85 26.7574 265.95 23.3147 263.749C17.8629 260.269 10.1268 250.68 14.2014 246.974" fill="#FD5631"/>
<path d="M52.4219 269.896C50.8063 269.094 49.4313 267.88 48.4357 266.376C47.4401 264.873 46.8591 263.134 46.7514 261.335C46.6721 259.531 46.9528 257.729 47.5773 256.034C48.2017 254.339 49.1573 252.785 50.3886 251.463C51.5065 250.225 52.9889 249.092 54.6495 249.173C55.427 249.259 56.1675 249.551 56.7952 250.017C57.4229 250.483 57.9152 251.108 58.2219 251.827C58.8124 253.28 59.0053 254.863 58.7809 256.415C58.2705 261.732 56.8043 266.781 52.4624 269.896" fill="#FD5631"/>
<path d="M63.4133 286.806C63.0865 286.528 62.788 286.219 62.5223 285.883L60.1731 283.285C58.2451 281.068 55.4261 277.969 53.6115 273.761C52.0044 270.197 51.3727 266.271 51.7808 262.384C51.912 261.217 52.184 260.07 52.5908 258.969C52.7025 258.668 52.8295 258.374 52.9716 258.087C53.0607 257.892 53.1174 257.787 53.1336 257.795C52.6246 259.299 52.2691 260.849 52.0724 262.424C51.7687 266.255 52.4432 270.1 54.0328 273.599C55.7987 277.726 58.5448 280.834 60.4161 283.099C61.3639 284.232 62.1415 285.147 62.6519 285.794C62.9372 286.106 63.1922 286.445 63.4133 286.806Z" fill="#1F1B2D"/>
<path d="M20.7422 253.74C20.9127 253.822 21.0754 253.919 21.2282 254.031L22.5486 254.929C23.6989 255.738 25.3434 256.879 27.3604 258.328C31.4108 261.233 36.9273 265.32 42.9218 269.973C48.9163 274.625 54.2627 278.963 58.0781 282.151C59.9818 283.77 61.5128 285.048 62.5659 285.963L63.7648 287.023C64.0402 287.273 64.1779 287.403 64.1617 287.419C64.0007 287.326 63.8488 287.217 63.7081 287.095L62.4525 286.1L57.8756 282.402C53.9549 279.262 48.6247 274.982 42.614 270.361C36.6033 265.74 31.1272 261.589 27.1417 258.619L22.419 255.107L21.1391 254.136C20.9919 254.02 20.8587 253.887 20.7422 253.74Z" fill="#1F1B2D"/>
<path d="M49.9043 279.365C46.5373 277.573 42.7916 276.608 38.9771 276.549C35.1626 276.49 31.3888 277.339 27.9677 279.025C26.2423 279.899 24.4197 281.372 24.5736 283.298C24.7275 285.224 26.7769 286.397 28.6239 286.947C32.5308 288.016 36.6671 287.904 40.5107 286.627C44.3543 285.349 47.7329 282.963 50.2203 279.77" fill="#FD5631"/>
<path d="M33.1543 281.947C33.4862 281.716 33.8419 281.521 34.2155 281.365C34.6347 281.141 35.0676 280.944 35.5116 280.774C36.0875 280.525 36.6771 280.309 37.2775 280.127C37.9974 279.881 38.7303 279.676 39.4728 279.512C40.3255 279.313 41.1881 279.159 42.0569 279.05C44.0542 278.827 46.0703 278.827 48.0676 279.05C50.063 279.298 52.023 279.776 53.9082 280.475C54.7383 280.783 55.5497 281.14 56.3384 281.543C57.0218 281.886 57.687 282.264 58.3312 282.676C58.9387 283.024 59.4166 283.436 59.8703 283.752C60.2558 284.028 60.6237 284.328 60.972 284.65C61.2884 284.892 61.5813 285.163 61.8468 285.459C61.7739 285.54 60.5183 284.351 58.161 282.918C57.5189 282.528 56.8564 282.171 56.1764 281.85C55.402 281.467 54.6069 281.126 53.7948 280.831C51.9364 280.167 50.0102 279.711 48.0514 279.471C46.0859 279.261 44.1035 279.261 42.1379 279.471C41.2807 279.568 40.429 279.708 39.5862 279.892C38.7762 280.03 38.0633 280.256 37.399 280.434C34.7258 281.227 33.1948 282.036 33.1543 281.947Z" fill="#1F1B2D"/>
<path d="M260.192 311.103C254.522 307.462 252.48 302.793 251.589 296.117C251.168 292.767 251.469 289.367 252.474 286.144C253.479 282.92 255.163 279.95 257.413 277.432C261.188 273.272 266.486 270.432 269.232 265.528C272.149 260.301 271.776 253.39 275.94 249.061C278.807 246.107 283.125 245.185 286.657 243.081C289.549 241.365 291.882 238.881 294.498 236.785C297.115 234.689 300.258 232.909 303.611 233.03C308.674 233.216 312.798 238.015 313.227 243.056C313.656 248.098 311.032 253.034 307.297 256.457C304.592 258.933 301.214 260.883 299.504 264.136C296.264 270.23 300.209 278.387 296.734 284.367C294.199 288.712 288.155 290.978 287.499 295.971C287.256 297.808 287.848 299.645 287.904 301.498C288.083 307.284 282.849 312.147 277.187 313.393C271.525 314.639 265.644 313.078 260.176 311.127" fill="#EFECF3"/>
<path opacity="0.2" d="M293.462 253.776C293.299 254.021 293.112 254.249 292.903 254.456L291.194 256.293C290.441 257.102 289.517 258.049 288.521 259.23C287.524 260.412 286.293 261.658 285.11 263.228C283.928 264.798 282.534 266.392 281.222 268.269C280.566 269.208 279.829 270.131 279.164 271.158L277.099 274.298C274.12 279.013 271.498 283.944 269.257 289.05C267.077 294.182 265.303 299.477 263.951 304.886C263.376 307.395 262.817 309.741 262.493 312.04C262.169 314.338 261.845 316.401 261.626 318.335C261.408 320.269 261.335 322.025 261.205 323.571C261.076 325.116 261.068 326.444 261.051 327.536C261.035 328.628 261.011 329.397 260.995 330.045C261.002 330.338 260.977 330.631 260.922 330.919C260.867 330.631 260.845 330.337 260.857 330.045C260.857 329.397 260.816 328.564 260.784 327.528C260.752 326.492 260.727 325.1 260.784 323.555C260.841 322.009 260.865 320.229 261.1 318.287C261.335 316.345 261.481 314.241 261.91 311.943C262.339 309.644 262.72 307.265 263.311 304.741C264.646 299.284 266.421 293.945 268.617 288.775C270.875 283.634 273.532 278.677 276.564 273.95L278.662 270.81C279.343 269.791 280.088 268.86 280.76 267.929C282.105 266.06 283.49 264.426 284.738 262.92C285.985 261.415 287.168 260.129 288.229 258.971C289.29 257.814 290.214 256.868 291 256.107C291.785 255.346 292.336 254.804 292.806 254.359C293.005 254.143 293.224 253.948 293.462 253.776Z" fill="black"/>
<path d="M265.25 106.213H56.5527V351.672H265.25V106.213Z" fill="white"/>
<path d="M265.256 351.671C265.256 350.053 265.175 252.47 265.062 106.213L265.256 106.399H56.5753L56.7859 106.188C56.7859 196.82 56.7859 281.229 56.7859 351.647L56.6077 351.469L265.313 351.647L56.6077 351.825H56.3809V351.647C56.3809 281.245 56.3809 196.812 56.3809 106.188V105.978H56.6158H265.297H265.483V106.172C265.329 252.47 265.256 350.044 265.256 351.671Z" fill="#1F1B2D"/>
<path d="M157.505 219.617C157.505 219.617 157.505 219.455 157.505 219.164C157.505 218.873 157.505 218.42 157.505 217.853C157.505 216.688 157.505 214.989 157.505 212.788C157.505 208.377 157.456 201.968 157.423 193.909L157.561 194.038L75.6716 194.119L75.8822 193.909C75.8822 202.81 75.8822 211.469 75.8822 219.617L75.6797 219.415L134.207 219.504L151.348 219.561H155.957H157.156H157.569H157.18H155.941H151.38L134.288 219.625L75.6149 219.714H75.4043V193.698H75.6149L157.505 193.771H157.642V193.909C157.642 202.001 157.586 208.474 157.569 212.868C157.569 215.053 157.569 216.745 157.569 217.902C157.569 218.46 157.569 218.889 157.569 219.188C157.569 219.488 157.505 219.617 157.505 219.617Z" fill="#1F1B2D"/>
<path d="M248.151 254.437C248.151 254.437 248.151 253.863 248.151 252.746C248.151 251.629 248.151 249.978 248.151 247.802C248.151 243.456 248.151 237.039 248.094 228.728L248.2 228.834L75.6554 228.939L75.866 228.728V254.437L75.6554 254.235L198.413 254.324L234.866 254.38H244.724H247.284H248.167C248.167 254.38 247.884 254.38 247.317 254.38H244.781H234.971L198.518 254.445L75.6149 254.534H75.4043V228.518H75.623L248.167 228.623H248.272V228.728C248.272 237.071 248.224 243.505 248.208 247.866C248.208 250.024 248.208 251.664 248.208 252.786C248.167 253.887 248.151 254.437 248.151 254.437Z" fill="#1F1B2D"/>
<path d="M248.151 289.022C248.151 289.022 248.151 288.439 248.151 287.331C248.151 286.222 248.151 284.555 248.151 282.386C248.151 278.033 248.151 271.624 248.094 263.313L248.2 263.41L75.6554 263.524L75.866 263.313V289.022L75.6554 288.812L198.413 288.901L234.866 288.965H244.724H247.284H248.167H247.317H244.781H234.971L198.518 289.022L75.6149 289.119H75.4043V263.079H75.623L248.167 263.192H248.272V263.297C248.272 271.632 248.224 278.065 248.208 282.427C248.208 284.585 248.208 286.225 248.208 287.347C248.167 288.472 248.151 289.022 248.151 289.022Z" fill="#1F1B2D"/>
<path d="M248.149 219.616C248.149 219.616 248.149 219.454 248.149 219.163C248.149 218.872 248.149 218.418 248.149 217.852C248.149 216.687 248.149 214.987 248.149 212.786C248.149 208.376 248.149 201.967 248.076 193.907L248.214 194.037L166.324 194.118L166.535 193.907V219.616L166.324 219.414L224.86 219.503L242.001 219.559H246.61H247.809H248.222H247.833H246.586H242.025L224.933 219.624L166.251 219.713H166.049V219.511C166.049 211.362 166.049 202.712 166.049 193.802V193.592H166.268L248.157 193.665H248.295V193.802C248.295 201.894 248.238 208.368 248.214 212.762C248.214 214.947 248.214 216.638 248.214 217.795C248.214 218.354 248.214 218.783 248.214 219.082C248.214 219.381 248.149 219.616 248.149 219.616Z" fill="#1F1B2D"/>
<path d="M92.764 210.483C92.5572 210.51 92.3488 210.524 92.1402 210.524L90.2933 210.58C88.6732 210.629 86.3564 210.693 83.5698 210.726H83.3105L83.3915 210.483C83.627 209.66 84.0738 208.912 84.6877 208.314C85.3801 207.692 86.2436 207.292 87.1664 207.165L87.1178 207.562C86.599 207.335 86.152 206.971 85.8251 206.509C85.4982 206.047 85.3038 205.504 85.2628 204.94C85.2068 204.306 85.3429 203.67 85.6535 203.114C85.9641 202.559 86.4348 202.109 87.0044 201.824C87.548 201.576 88.1578 201.51 88.7421 201.637C89.3264 201.764 89.8536 202.077 90.2447 202.529C90.5922 202.927 90.8366 203.405 90.9567 203.92C91.0767 204.435 91.0686 204.971 90.9332 205.482C90.8221 205.926 90.6101 206.339 90.3138 206.689C90.0174 207.038 89.6445 207.315 89.224 207.497V207.214C89.9461 207.32 90.6322 207.598 91.2249 208.023C91.6599 208.349 92.0284 208.756 92.3104 209.221C92.5645 209.607 92.733 210.043 92.8045 210.499C92.8045 210.499 92.7397 210.378 92.6506 210.184C92.5144 209.88 92.3545 209.588 92.1726 209.31C91.8353 208.809 91.3919 208.389 90.874 208.079C90.3561 207.768 89.7762 207.575 89.1754 207.513L88.6327 207.449L89.143 207.23C89.5128 207.058 89.8385 206.803 90.0953 206.486C90.3522 206.17 90.5334 205.798 90.6254 205.401C90.7401 204.948 90.7425 204.474 90.6324 204.02C90.5223 203.566 90.3031 203.146 89.9936 202.796C89.651 202.418 89.1984 202.158 88.6997 202.052C88.2011 201.946 87.6817 202 87.215 202.205C86.7246 202.455 86.3205 202.846 86.0548 203.328C85.7891 203.81 85.6741 204.36 85.7245 204.908C85.7596 205.4 85.9292 205.873 86.2149 206.275C86.5006 206.677 86.8914 206.994 87.3447 207.19L88.0332 207.465L87.2961 207.586C86.4516 207.697 85.6606 208.061 85.0279 208.63C84.4557 209.174 84.0343 209.857 83.8047 210.613L83.6265 210.378C86.324 210.378 88.5922 210.378 90.2204 210.435H92.1159C92.3328 210.436 92.5493 210.453 92.764 210.483Z" fill="#FD5631"/>
<path d="M188.766 210.479C188.562 210.507 188.356 210.521 188.15 210.52L186.295 210.577C184.675 210.625 182.366 210.69 179.571 210.722H179.32L179.393 210.479C179.629 209.656 180.075 208.908 180.689 208.311C181.38 207.682 182.243 207.276 183.168 207.145L183.12 207.542C182.602 207.315 182.156 206.95 181.83 206.488C181.505 206.026 181.312 205.484 181.273 204.92C181.212 204.287 181.346 203.65 181.655 203.094C181.965 202.537 182.436 202.088 183.006 201.805C183.55 201.557 184.159 201.492 184.743 201.619C185.327 201.746 185.855 202.058 186.246 202.509C186.593 202.908 186.835 203.386 186.954 203.901C187.073 204.416 187.063 204.952 186.927 205.462C186.816 205.907 186.604 206.319 186.307 206.669C186.011 207.018 185.638 207.295 185.218 207.477V207.194C185.94 207.3 186.626 207.578 187.219 208.003C187.656 208.327 188.025 208.734 188.304 209.201C188.558 209.587 188.727 210.023 188.798 210.479C188.798 210.479 188.733 210.358 188.644 210.164C188.515 209.857 188.354 209.564 188.166 209.29C187.831 208.79 187.389 208.369 186.872 208.059C186.356 207.748 185.777 207.555 185.177 207.493L184.634 207.429L185.137 207.21C185.507 207.037 185.833 206.782 186.091 206.466C186.349 206.149 186.532 205.778 186.627 205.381C186.74 204.928 186.741 204.454 186.629 204C186.518 203.546 186.297 203.126 185.987 202.776C185.65 202.393 185.199 202.129 184.7 202.022C184.201 201.916 183.681 201.973 183.217 202.185C182.724 202.433 182.318 202.823 182.05 203.306C181.783 203.788 181.667 204.339 181.718 204.888C181.753 205.38 181.923 205.853 182.209 206.255C182.494 206.658 182.885 206.974 183.338 207.17L184.027 207.445L183.29 207.566C182.445 207.677 181.654 208.041 181.021 208.61C180.452 209.155 180.033 209.838 179.806 210.593L179.628 210.358C182.326 210.358 184.594 210.358 186.214 210.415H188.118C188.335 210.421 188.551 210.443 188.766 210.479Z" fill="#FD5631"/>
<path d="M91.2166 273.939C91.1779 273.766 91.1535 273.59 91.1437 273.413C91.1487 272.986 91.0485 272.563 90.8521 272.183C90.6976 271.911 90.4831 271.678 90.2248 271.501C89.9665 271.325 89.6713 271.209 89.3615 271.164C88.9876 271.114 88.6071 271.171 88.2644 271.328C87.9216 271.486 87.6307 271.738 87.4255 272.054C87.2469 272.325 87.1409 272.637 87.1176 272.96C87.1176 273.3 87.1176 273.624 87.1176 273.947L86.9232 273.745C88.3675 273.737 89.8112 273.802 91.249 273.939C89.8127 274.097 88.368 274.165 86.9232 274.142H86.7207V273.939C86.7207 273.616 86.7207 273.3 86.7207 272.928C86.7428 272.535 86.8685 272.155 87.0852 271.827C87.3321 271.443 87.6861 271.14 88.1035 270.954C88.521 270.769 88.9836 270.709 89.4344 270.783C89.7975 270.842 90.1411 270.988 90.4358 271.207C90.7306 271.427 90.9679 271.715 91.1275 272.046C91.3359 272.487 91.401 272.982 91.3138 273.462C91.2814 273.81 91.2166 273.964 91.2166 273.939Z" fill="#FD5631"/>
<path d="M89.8128 279.199C89.6608 278.893 89.5308 278.577 89.424 278.252V278.163L89.5131 278.098C89.6421 277.998 89.7297 277.853 89.7595 277.692C89.7894 277.531 89.7594 277.365 89.6751 277.225C89.6328 277.137 89.5704 277.06 89.493 277.001C89.4156 276.941 89.3253 276.901 89.2294 276.883C89.1335 276.864 89.0347 276.869 88.9409 276.896C88.8471 276.923 88.7609 276.971 88.6893 277.037C88.6176 277.104 88.5626 277.186 88.5285 277.277C88.4944 277.369 88.4823 277.467 88.4931 277.564C88.5039 277.661 88.5373 277.754 88.5907 277.835C88.644 277.917 88.7158 277.985 88.8003 278.034L88.9299 278.107L88.8894 278.244L88.6463 279.207L88.4924 279.013C88.9436 279.034 89.3929 279.085 89.8371 279.167C89.4002 279.291 88.9464 279.345 88.4924 279.328H88.298V279.118C88.3628 278.794 88.4195 278.471 88.4762 278.139L88.5653 278.349C88.4364 278.271 88.3266 278.165 88.2437 278.039C88.1608 277.912 88.1069 277.77 88.086 277.62C88.0651 277.471 88.0776 277.319 88.1227 277.175C88.1677 277.031 88.2442 276.898 88.3466 276.788C88.459 276.663 88.601 276.569 88.7597 276.513C88.9183 276.458 89.0883 276.444 89.2539 276.472C89.4061 276.496 89.5507 276.555 89.677 276.643C89.8032 276.732 89.9078 276.847 89.9829 276.982C90.1051 277.202 90.1371 277.46 90.0721 277.703C90.0071 277.946 89.8503 278.155 89.6346 278.285L89.6994 278.131C89.8036 278.477 89.842 278.839 89.8128 279.199Z" fill="#FD5631"/>
<path d="M91.8202 273.948C91.9378 273.925 92.0589 273.925 92.1766 273.948C92.4706 274.037 92.7332 274.207 92.934 274.439C93.1348 274.671 93.2654 274.955 93.3107 275.259C93.3107 275.542 93.3107 275.817 93.3107 276.133C93.3107 276.772 93.3107 277.476 93.3107 278.253C93.3107 278.649 93.3107 279.062 93.3107 279.483C93.3415 279.945 93.3252 280.408 93.2621 280.867C93.1911 281.124 93.0612 281.361 92.8826 281.559C92.704 281.757 92.4817 281.91 92.2333 282.008C91.9763 282.111 91.6995 282.155 91.4232 282.137H90.6132H87.3729H86.5142C86.2653 282.149 86.0167 282.108 85.7848 282.017C85.5529 281.926 85.3431 281.787 85.1692 281.609C84.9953 281.43 84.8614 281.217 84.7762 280.983C84.6911 280.749 84.6567 280.5 84.6754 280.252C84.6754 279.006 84.6754 277.824 84.6754 276.61V275.744C84.6503 275.435 84.6889 275.124 84.7888 274.83C84.8983 274.539 85.0838 274.283 85.326 274.088C85.5682 273.893 85.8582 273.766 86.1659 273.721L86.0039 273.907C86.0039 273.519 86.0039 273.171 86.0039 272.775C86.0414 272.395 86.1543 272.026 86.336 271.69C86.718 271.045 87.3324 270.57 88.0534 270.363C88.5967 270.167 89.1867 270.139 89.7461 270.283C90.3055 270.428 90.8082 270.738 91.1883 271.172C91.4346 271.444 91.6239 271.762 91.7449 272.109C91.866 272.455 91.9163 272.821 91.8931 273.187C91.8856 273.442 91.8612 273.696 91.8202 273.948C91.7801 273.699 91.7638 273.447 91.7716 273.195C91.7677 272.499 91.4983 271.831 91.0182 271.326C90.7317 271.025 90.3776 270.796 89.9851 270.658C89.5926 270.52 89.1729 270.478 88.7607 270.534C88.3485 270.59 87.9555 270.743 87.6142 270.981C87.2729 271.218 86.9931 271.534 86.7978 271.901C86.6417 272.197 86.5454 272.522 86.5142 272.856C86.5142 273.187 86.5142 273.592 86.5142 273.964V274.126H86.3522C86.1145 274.164 85.891 274.264 85.7046 274.416C85.5182 274.568 85.3755 274.767 85.291 274.992C85.2122 275.254 85.1847 275.529 85.21 275.801V276.667C85.21 277.84 85.21 279.095 85.21 280.308C85.1873 280.569 85.2402 280.83 85.3623 281.061C85.4844 281.292 85.6706 281.483 85.8986 281.611C86.1232 281.729 86.3741 281.787 86.6276 281.781H90.7428C91.2248 281.827 91.7109 281.799 92.1847 281.7C92.3803 281.624 92.5553 281.503 92.6959 281.347C92.8365 281.191 92.9388 281.004 92.9948 280.802C93.0539 280.376 93.0756 279.945 93.0596 279.515C93.0596 279.095 93.0596 278.706 93.0596 278.285C93.0596 277.476 93.0596 276.804 93.0596 276.165C93.0596 275.858 93.0596 275.55 93.0596 275.307C93.0387 275.08 92.9637 274.861 92.8408 274.668C92.5957 274.316 92.2344 274.061 91.8202 273.948Z" fill="#FD5631"/>
<path d="M95.365 247.03C95.3411 246.823 95.3276 246.615 95.3245 246.407C95.3245 245.97 95.3245 245.404 95.2678 244.716C95.2273 243.227 95.1787 241.179 95.1139 238.711L95.284 238.881L82.9386 239.043L83.1168 238.8V239.885C83.1168 240.249 83.1168 240.613 83.1168 240.977C83.1168 241.697 83.1168 242.409 83.1168 243.105C83.1168 244.489 83.1168 245.832 83.1168 247.095L82.9224 246.909C86.5191 246.909 89.5812 246.909 91.7602 246.909H94.3201C94.6365 246.901 94.9532 246.914 95.2678 246.949C94.9833 246.988 94.6962 247.004 94.4092 246.998L91.8899 247.079C89.7189 247.135 86.6082 247.208 82.9224 247.257H82.7361V247.062C82.7361 245.792 82.7361 244.457 82.6875 243.065C82.6875 242.369 82.6875 241.657 82.6875 240.937C82.6875 240.581 82.6875 240.216 82.6875 239.852V238.76L82.8981 238.541L95.2435 238.46H95.4136V238.63C95.4136 241.139 95.4136 243.219 95.4136 244.74C95.4136 245.412 95.4136 245.962 95.4136 246.358C95.4278 246.583 95.4115 246.809 95.365 247.03Z" fill="#FD5631"/>
<path d="M95.2659 238.714C94.7478 239.247 94.1749 239.725 93.5566 240.138C92.4711 240.947 90.9563 242.104 89.2633 243.326H88.9797L88.8987 243.27L88.7367 243.156L88.4208 242.938L87.8051 242.509L86.6467 241.7L84.6945 240.292C84.0739 239.884 83.4935 239.418 82.9609 238.9C83.6309 239.221 84.2684 239.606 84.8646 240.049L86.8655 241.384L88.0401 242.193L88.6638 242.622L88.9797 242.841L89.1336 242.946L89.2147 243.003H89.2552H89.0283C90.7214 241.781 92.2686 240.688 93.4027 239.911C93.9863 239.457 94.6099 239.056 95.2659 238.714Z" fill="#FD5631"/>
<path d="M83.2598 247.144C83.7687 246.155 84.4031 245.236 85.1472 244.409C85.7829 243.491 86.5313 242.657 87.3749 241.925C86.8657 242.918 86.2284 243.84 85.4794 244.668C84.8464 245.583 84.1006 246.415 83.2598 247.144Z" fill="#FD5631"/>
<path d="M91.4004 241.925C92.2177 242.638 92.9393 243.454 93.5471 244.352C94.2665 245.165 94.8765 246.068 95.3616 247.039C94.5435 246.326 93.8219 245.51 93.2149 244.611C92.4941 243.8 91.884 242.896 91.4004 241.925Z" fill="#FD5631"/>
<path d="M245.996 302.317H77.77C76.58 302.317 75.6152 303.281 75.6152 304.469V326.44C75.6152 327.628 76.58 328.592 77.77 328.592H245.996C247.187 328.592 248.151 327.628 248.151 326.44V304.469C248.151 303.281 247.187 302.317 245.996 302.317Z" fill="#FD5631"/>
<g opacity="0.3">
<path opacity="0.3" d="M245.996 302.317H77.77C76.58 302.317 75.6152 303.281 75.6152 304.469V326.44C75.6152 327.628 76.58 328.592 77.77 328.592H245.996C247.187 328.592 248.151 327.628 248.151 326.44V304.469C248.151 303.281 247.187 302.317 245.996 302.317Z" fill="black"/>
</g>
<path d="M245.996 298.66H77.77C76.58 298.66 75.6152 299.624 75.6152 300.813V322.783C75.6152 323.972 76.58 324.935 77.77 324.935H245.996C247.187 324.935 248.151 323.972 248.151 322.783V300.813C248.151 299.624 247.187 298.66 245.996 298.66Z" fill="#FD5631"/>
<path d="M147.313 312.363C147.308 311.984 147.381 311.608 147.527 311.257C147.673 310.907 147.889 310.59 148.162 310.327C148.435 310.063 148.76 309.858 149.115 309.724C149.47 309.59 149.85 309.53 150.229 309.547C150.62 309.532 151.009 309.601 151.371 309.748C151.733 309.896 152.059 310.12 152.327 310.405L151.817 310.899C151.524 310.589 151.145 310.374 150.728 310.282C150.312 310.189 149.877 310.224 149.481 310.382C149.084 310.539 148.744 310.812 148.504 311.164C148.265 311.517 148.137 311.933 148.137 312.359C148.137 312.786 148.265 313.202 148.504 313.555C148.744 313.907 149.084 314.18 149.481 314.337C149.877 314.495 150.312 314.529 150.728 314.437C151.145 314.345 151.524 314.13 151.817 313.82L152.327 314.314C152.059 314.601 151.732 314.826 151.368 314.976C151.005 315.125 150.614 315.195 150.221 315.18C149.842 315.196 149.464 315.135 149.109 315.001C148.755 314.866 148.432 314.661 148.16 314.397C147.887 314.134 147.672 313.817 147.526 313.468C147.381 313.118 147.308 312.742 147.313 312.363Z" fill="white"/>
<path d="M157.13 315.111L155.939 313.42H155.599H154.23V315.095H153.42V309.592H155.575C157 309.592 157.867 310.312 157.867 311.51C157.886 311.892 157.777 312.27 157.559 312.585C157.341 312.899 157.025 313.133 156.66 313.25L157.964 315.095L157.13 315.111ZM157.13 311.526C157.13 310.717 156.604 310.296 155.599 310.296H154.254V312.773H155.599C156.579 312.773 157.106 312.311 157.106 311.526H157.13Z" fill="white"/>
<path d="M163.166 314.43V315.11H159.164V309.607H163.052V310.295H159.95V311.986H162.72V312.65H159.95V314.43H163.166Z" fill="white"/>
<path d="M167.956 313.734H165.023L164.416 315.11H163.605L166.1 309.607H166.911L169.414 315.11H168.604L167.956 313.734ZM167.68 313.111L166.489 310.408L165.299 313.111H167.68Z" fill="white"/>
<path d="M171.014 310.295H169.127V309.607H173.688V310.295H171.792V315.11H170.982L171.014 310.295Z" fill="white"/>
<path d="M178.541 314.43V315.11H174.539V309.607H178.427V310.295H175.325V311.986H178.087V312.65H175.325V314.43H178.541Z" fill="white"/>
<path d="M137.142 147.799C159.397 125.567 159.397 89.522 137.142 67.2902C114.887 45.0584 78.8039 45.0584 56.5487 67.2902C34.2934 89.522 34.2934 125.567 56.5487 147.799C78.8039 170.03 114.887 170.03 137.142 147.799Z" fill="#EFECF3"/>
<path d="M129.495 30.5983C128.499 31.8474 127.891 33.3611 127.747 34.9519C127.603 36.5427 127.929 38.1408 128.685 39.5482C129.398 40.8268 130.483 41.9759 130.646 43.4243C130.913 45.7792 128.628 47.8993 129.025 50.246C129.276 51.8644 130.646 52.973 131.391 54.4054C131.851 55.3369 132.037 56.38 131.927 57.413C131.816 58.4461 131.414 59.4264 130.767 60.2398C129.73 61.5021 128.102 62.3033 127.43 63.8003C126.927 64.9008 127.049 66.2279 126.619 67.3366C126.237 68.2045 125.636 68.9588 124.875 69.526C124.114 70.0933 123.219 70.4541 122.278 70.5734C120.383 70.8007 118.464 70.6939 116.607 70.2578L117.02 68.2105C116.669 68.7542 116.19 69.2042 115.626 69.5214C115.061 69.8387 114.427 70.0137 113.78 70.0312C112.483 70.0571 111.19 69.8656 109.956 69.4648C109.187 65.9933 108.433 62.3275 109.519 58.945C110.507 55.9024 112.84 53.5233 114.784 50.9824C116.943 48.1613 118.671 45.0361 119.912 41.7088C120.803 39.3216 121.443 36.8535 122.691 34.5878C123.938 32.322 125.931 30.3637 128.426 29.8862" fill="#1F1B2D"/>
<path d="M166.558 78.4186L155.282 79.2278L155.168 76.3308C155.018 74.8953 155.36 73.4513 156.14 72.2362C156.265 72.0223 156.355 71.7902 156.408 71.5483C156.489 70.6906 155.225 66.3856 154.787 64.8076C154.237 62.914 155.314 61.9106 155.735 62.6875C156.497 64.1036 158.514 70.1808 159.146 70.7796C159.777 71.3784 159.413 68.1982 159.413 68.1982C158.425 61.506 157.995 60.535 159.186 60.2841C160.555 59.9928 162.062 69.9542 162.062 69.9542C162.062 69.9542 161.859 68.5623 162.929 68.2791C163.998 67.9959 164.492 69.3635 164.492 69.3635C164.354 68.6594 165.367 68.5543 165.367 68.5543C167.894 68.9022 166.582 78.5076 166.582 78.5076L155.306 79.3168L149.903 116.986L144.135 108.157L129.084 118.887L142.653 135.072C143.831 136.473 145.314 137.587 146.989 138.328C148.664 139.07 150.486 139.42 152.317 139.352C155.31 139.244 158.154 138.021 160.291 135.925C162.429 133.829 163.704 131.011 163.868 128.023L166.558 78.4186Z" fill="#EB996E"/>
<path d="M157.735 78.5212C157.687 78.4645 158.286 77.9385 159.088 76.9513C159.554 76.3736 159.976 75.7623 160.352 75.1225C160.577 74.7446 160.782 74.3557 160.968 73.9572C161.195 73.5849 161.329 73.1627 161.356 72.7272C161.353 72.6262 161.321 72.5281 161.264 72.4449C161.206 72.3617 161.126 72.2967 161.032 72.2579C160.811 72.2207 160.583 72.2577 160.384 72.3631C159.942 72.5712 159.521 72.8233 159.129 73.1157C158.495 73.5944 157.947 74.1772 157.509 74.8393L157.379 75.0254L157.282 74.8312C157.05 74.4139 156.748 74.039 156.391 73.7226C156.391 73.7226 157.006 73.8682 157.533 74.7422H157.306C157.721 74.0187 158.271 73.3814 158.926 72.8648C159.335 72.5475 159.778 72.2762 160.247 72.0556C160.535 71.9033 160.868 71.8575 161.186 71.9261C161.357 71.9865 161.507 72.095 161.618 72.2386C161.729 72.3822 161.795 72.5547 161.81 72.7353C161.795 73.256 161.644 73.7637 161.373 74.2081C161.175 74.6108 160.956 75.0025 160.716 75.3814C160.316 76.0311 159.858 76.6432 159.347 77.2103C158.885 77.732 158.341 78.1748 157.735 78.5212Z" fill="#D1734A"/>
<path d="M162.2 70.4849C162.268 71.1737 162.268 71.8676 162.2 72.5565C162.2 73.2362 162.127 73.9888 162.078 74.7899C162.046 75.2155 162.046 75.6429 162.078 76.0684C162.078 76.465 162.459 76.8048 162.742 76.643C163.026 76.4811 163.188 75.9956 163.309 75.5667C163.431 75.1379 163.528 74.709 163.617 74.2963C163.795 73.4871 163.925 72.7264 164.047 72.1033C164.126 71.4153 164.287 70.739 164.525 70.0884C164.523 70.7804 164.461 71.4709 164.338 72.1519C164.257 72.783 164.16 73.5356 163.998 74.3772C163.925 74.7899 163.828 75.2269 163.706 75.68C163.668 75.9465 163.576 76.2026 163.437 76.4333C163.298 76.6639 163.114 76.8645 162.896 77.0233C162.748 77.0909 162.583 77.1123 162.423 77.0849C162.263 77.0575 162.114 76.9824 161.997 76.8696C161.79 76.6741 161.663 76.4088 161.641 76.1251C161.615 75.6714 161.631 75.2163 161.689 74.7656C161.77 73.9672 161.843 73.2227 161.908 72.5322C161.934 71.8415 162.032 71.1554 162.2 70.4849Z" fill="#D1734A"/>
<path d="M164.127 73.3585C164.191 73.3585 164.029 73.8278 164.078 74.5561C164.093 74.9578 164.213 75.3485 164.426 75.689C164.564 75.8266 164.661 75.8347 164.791 75.689C164.937 75.4692 165.061 75.2362 165.163 74.9931C165.678 73.7163 166.081 72.3979 166.37 71.0522C166.497 72.4742 166.216 73.9027 165.56 75.1711C165.444 75.4542 165.3 75.7252 165.131 75.9804C165.072 76.0571 164.995 76.1195 164.909 76.1629C164.822 76.2064 164.726 76.2297 164.629 76.2312C164.536 76.2277 164.446 76.2042 164.363 76.1622C164.281 76.1203 164.208 76.061 164.151 75.9884C163.989 75.7729 163.886 75.5192 163.851 75.2521C163.809 75.0389 163.79 74.8219 163.794 74.6047C163.77 73.7631 164.054 73.3342 164.127 73.3585Z" fill="#D1734A"/>
<path d="M116.639 144.171L117.693 160.55C85.622 172.826 61.798 152.458 61.798 152.458L66.5936 137.803L67.4037 112.216L61.2472 119.037L58.339 116.61L43.6687 104.407L40.5176 101.777L55.7711 85.6977C75.0588 64.9576 90.0693 71.2937 90.0693 71.2937L112.622 73.4058C112.622 73.4058 128.223 75.6149 135.773 89.2744C141.922 100.393 148.613 112.167 148.613 112.167L129.285 125.924L123.136 114.643L116.639 144.171Z" fill="#666276"/>
<path d="M39.8594 107.328C39.8594 108.291 39.8594 109.246 39.9161 110.217C40.0491 114.017 40.5648 117.793 41.4552 121.489V121.595C41.5686 122.056 41.6982 122.509 41.8278 122.962C42.3301 124.742 42.9943 126.312 43.6262 128.036C43.7072 128.254 43.7882 128.465 43.8773 128.683C45.9187 128.149 51.338 123.019 57.9562 116.327L43.2698 104.091C41.3823 106.147 40.4912 107.085 39.8594 107.328Z" fill="#EB996E"/>
<path d="M110.573 75.5338C111.383 69.9502 112.298 64.0915 112.298 64.0915C112.298 64.0915 119.662 63.8892 122.448 54.7128C125.105 45.9571 126.499 25.0875 126.499 25.0875C121.672 22.333 116.118 21.1188 110.581 21.6077C105.045 22.0966 99.7897 24.2652 95.5219 27.8226L89.8514 73.2599C89.1953 78.5279 93.2132 83.2941 98.8755 83.9577C104.587 84.6212 109.852 80.8503 110.573 75.5338Z" fill="#EB996E"/>
<path d="M121.592 40.8629C121.552 41.1772 121.391 41.4634 121.143 41.6612C120.895 41.859 120.58 41.9528 120.264 41.9229C120.108 41.9138 119.956 41.8736 119.817 41.8048C119.677 41.7359 119.552 41.6399 119.45 41.5222C119.349 41.4045 119.271 41.2677 119.223 41.1197C119.175 40.9717 119.157 40.8156 119.17 40.6606C119.213 40.3477 119.375 40.0635 119.622 39.8674C119.87 39.6713 120.184 39.5785 120.499 39.6086C120.654 39.6178 120.805 39.6577 120.944 39.726C121.083 39.7943 121.207 39.8897 121.309 40.0065C121.411 40.1232 121.488 40.2591 121.537 40.4062C121.586 40.5532 121.604 40.7085 121.592 40.8629Z" fill="#1F1B2D"/>
<path d="M123.726 39.7851C123.556 39.9227 122.738 39.1216 121.442 38.9759C120.146 38.8303 119.101 39.3239 119.012 39.1459C118.923 38.9678 119.141 38.7979 119.595 38.5551C120.21 38.2458 120.906 38.1328 121.588 38.2314C122.264 38.3238 122.893 38.6268 123.386 39.0973C123.718 39.421 123.807 39.7366 123.726 39.7851Z" fill="#1F1B2D"/>
<path d="M108.288 39.2644C108.247 39.5781 108.086 39.8636 107.837 40.0601C107.589 40.2565 107.274 40.3485 106.959 40.3164C106.804 40.3083 106.652 40.2691 106.512 40.2011C106.373 40.1331 106.248 40.0378 106.146 39.9208C106.044 39.8038 105.967 39.6675 105.919 39.5199C105.87 39.3724 105.852 39.2167 105.866 39.0621C105.906 38.7478 106.067 38.4616 106.315 38.2638C106.563 38.066 106.878 37.9721 107.194 38.002C107.349 38.0123 107.501 38.0532 107.64 38.1223C107.779 38.1915 107.903 38.2876 108.005 38.405C108.107 38.5224 108.184 38.6589 108.232 38.8064C108.281 38.9539 108.3 39.1096 108.288 39.2644Z" fill="#1F1B2D"/>
<path d="M110.136 38.3932C109.966 38.5308 109.148 37.7297 107.852 37.584C106.556 37.4384 105.511 37.9239 105.422 37.7459C105.333 37.5679 105.552 37.406 106.005 37.1632C106.621 36.8544 107.316 36.7415 107.998 36.8396C108.675 36.9259 109.307 37.2297 109.796 37.7054C110.12 38.0291 110.217 38.3366 110.136 38.3932Z" fill="#1F1B2D"/>
<path d="M113.904 48.4338C114.576 48.3558 115.26 48.3363 115.939 48.3759C116.251 48.3759 116.556 48.3759 116.64 48.2284C116.705 48.0079 116.676 47.779 116.556 47.5698C116.365 47.0429 116.167 46.4423 115.962 45.8417C115.146 43.3865 114.605 41.3791 114.75 41.3528C114.895 41.3265 115.672 43.3075 116.48 45.7626C116.678 46.3685 116.861 46.9428 117.036 47.496C117.181 47.7735 117.181 48.0773 117.036 48.3548C116.976 48.4263 116.893 48.4875 116.794 48.534C116.695 48.5805 116.583 48.6111 116.464 48.6235C116.285 48.6394 116.103 48.6394 115.923 48.6235C115.242 48.6178 114.564 48.5541 113.904 48.4338Z" fill="#1F1B2D"/>
<path d="M112.278 64.0931C107.834 63.5584 103.627 61.7988 100.127 59.0112C100.127 59.0112 102.29 65.8733 111.808 66.2941L112.278 64.0931Z" fill="#D1734A"/>
<path d="M116.757 22.1913C117.365 23.6722 116.409 25.4282 115.056 26.2374C113.629 26.9762 112.066 27.4168 110.463 27.5321C108.858 27.6581 107.323 28.2423 106.04 29.2153C103.837 31.214 104.42 34.0705 102.193 36.6681C101.674 37.398 100.962 37.9684 100.136 38.3145C99.3095 38.6606 98.4029 38.7687 97.5184 38.6264C95.7363 38.3755 93.4276 38.7882 92.5284 40.8436C91.6292 42.899 92.7147 44.4123 93.7111 46.2977C94.7075 48.1832 94.4402 50.1172 93.8731 52.1807C93.4681 53.6696 92.1882 54.8349 91.9047 56.3562C91.451 58.7839 93.5248 61.4866 92.1234 63.4773C90.722 65.468 87.1658 64.5859 85.6024 66.439C85.0353 67.0945 84.7113 68.0574 83.8769 68.3164C83.3581 68.3893 82.8296 68.2928 82.3702 68.0413L75.0796 64.9582C75.2659 64.2056 75.4603 63.4449 75.6547 62.6924C75.1159 63.2445 74.4532 63.6605 73.7214 63.9059C72.9897 64.1513 72.2099 64.2191 71.4467 64.1036C70.6835 63.9881 69.9588 63.6928 69.3326 63.2419C68.7064 62.791 68.1967 62.1977 67.8457 61.5109C69.3732 60.6247 70.7877 59.5568 72.0581 58.3307C73.3122 57.0827 74.0743 55.4251 74.2047 53.6616C74.2776 51.5252 73.1192 49.3646 73.7673 47.3335C74.6989 44.4284 78.6277 43.7002 80.3612 41.2078C81.9814 38.8773 81.4386 35.4947 83.1155 33.1885C85.0677 30.5181 89.1909 30.3967 91.4267 27.9529C92.9416 26.3345 93.2899 23.9068 94.3916 21.9404C95.8184 19.629 98.0476 17.9235 100.653 17.1499C103.242 16.3953 105.939 16.0808 108.633 16.2193C110.654 16.1243 112.668 16.5272 114.497 17.3927C116.255 18.3718 117.584 20.3787 117.171 22.3531" fill="#1F1B2D"/>
<path d="M97.522 38.6482C96.5468 38.2939 95.492 38.2183 94.4762 38.4297C93.9685 38.5342 93.4866 38.7381 93.0583 39.0298C92.6301 39.3215 92.2639 39.6951 91.9812 40.1291C91.4627 41.0363 91.3064 42.1057 91.5437 43.1231C91.7869 44.1324 92.2518 45.0749 92.9046 45.8826C93.3229 46.4882 93.8779 46.9872 94.5248 47.3391C94.8533 47.5162 95.2207 47.6089 95.5941 47.6089C95.9674 47.6089 96.3348 47.5162 96.6633 47.3391" fill="#EB996E"/>
<path d="M96.1271 44.6542C96.2405 44.7109 95.7139 45.2611 94.831 44.8808C94.3703 44.6546 94.0137 44.2608 93.8346 43.7803C93.6308 43.2238 93.5399 42.6324 93.5672 42.0405C93.5781 41.4105 93.8136 40.805 94.2315 40.333C94.4081 40.1322 94.6285 39.9746 94.8756 39.8721C95.1228 39.7697 95.3902 39.7253 95.6572 39.7423C96.605 39.8475 96.8075 40.5515 96.7022 40.5515C96.5969 40.5515 96.2972 40.2359 95.6572 40.2926C95.2605 40.3875 94.9107 40.6204 94.6702 40.9496C94.4298 41.2788 94.3144 41.6827 94.3449 42.089C94.3449 43.141 94.5798 44.1363 95.0983 44.4519C95.6167 44.7675 96.0785 44.5895 96.1271 44.6542Z" fill="#D1734A"/>
<path d="M116.792 22.7385C116.423 23.7505 116.415 24.8587 116.769 25.876C117.124 26.8933 117.818 27.7573 118.737 28.3221C119.79 28.929 121.086 29.1313 121.977 29.9405C122.806 30.8397 123.288 32.0042 123.338 33.2259C123.38 34.4347 123.606 35.6299 124.01 36.7702C124.232 37.3328 124.629 37.8094 125.142 38.1299C125.655 38.4503 126.258 38.5978 126.861 38.5505L128.895 32.5542C129.64 30.3532 130.393 27.9984 129.859 25.7245C129.097 22.4876 125.889 20.3675 122.682 19.4855C121.212 18.9639 119.605 18.9783 118.145 19.5259C116.752 20.1814 115.804 21.9535 116.525 23.3292" fill="#1F1B2D"/>
<path d="M110.662 35.1706C110.581 35.2677 110.297 35.1706 109.852 35.033C109.254 34.8953 108.642 34.8247 108.029 34.8226C107.413 34.8159 106.799 34.881 106.198 35.0169C105.737 35.1221 105.453 35.2434 105.388 35.1544C105.323 35.0654 105.493 34.7498 105.988 34.4666C106.625 34.1419 107.33 33.9727 108.045 33.9727C108.76 33.9727 109.466 34.1419 110.103 34.4666C110.524 34.7741 110.702 35.0978 110.662 35.1706Z" fill="#1F1B2D"/>
<path d="M122.452 36.7678C122.411 36.9944 121.569 37.0672 120.556 36.9216C119.544 36.7759 118.758 36.5008 118.758 36.2337C118.758 35.9667 119.641 35.9424 120.653 36.0881C121.666 36.2337 122.484 36.5412 122.452 36.7678Z" fill="#1F1B2D"/>
<path d="M94.1029 47.0806C94.1029 47.0806 94.1839 47.1372 94.3054 47.2829C94.4799 47.4956 94.6268 47.7294 94.7428 47.9788C95.162 48.9064 95.2864 49.9401 95.0993 50.9405C94.8363 52.3967 94.3471 53.8028 93.6492 55.108C93.2622 55.8547 93.1368 56.7093 93.2928 57.5356C93.5785 58.4031 93.9703 59.2321 94.4593 60.0037C94.9493 60.8142 95.1636 61.7613 95.0702 62.7036C94.9767 63.6458 94.5806 64.5325 93.9409 65.2312C93.3951 65.854 92.6713 66.2946 91.8671 66.4936C91.1873 66.6345 90.4956 66.7103 89.8014 66.7201C88.8268 66.6935 87.8643 66.9402 87.0229 67.4323C86.7343 67.6426 86.4801 67.8965 86.2695 68.1848C86.2695 68.1848 86.2695 68.0796 86.3748 67.9178C86.5157 67.6782 86.7029 67.4691 86.9257 67.3028C87.7593 66.7364 88.7447 66.4346 89.7528 66.4369C90.4264 66.4075 91.096 66.3181 91.7537 66.1699C92.492 65.9754 93.1533 65.5604 93.6492 64.9803C94.1926 64.3482 94.5415 63.5726 94.6537 62.7469C94.7424 61.856 94.5437 60.96 94.0867 60.1898C93.5863 59.383 93.1916 58.5155 92.9121 57.6084C92.7515 56.7085 92.8939 55.7808 93.3171 54.9704C93.6654 54.1612 94.0462 53.5219 94.2811 52.8341C94.5222 52.2044 94.7065 51.5544 94.8319 50.892C95.0332 49.9411 94.9573 48.9526 94.6132 48.0435C94.3297 47.4042 94.0705 47.1048 94.1029 47.0806Z" fill="#1F1B2D"/>
<path d="M131.725 68.8647C131.562 68.9392 131.384 68.9725 131.206 68.9618C130.948 68.946 130.696 68.8784 130.465 68.763C130.234 68.6475 130.029 68.4867 129.861 68.2902C129.583 67.9877 129.378 67.6252 129.263 67.2308C129.148 66.8364 129.125 66.4208 129.197 66.0163C129.45 64.9715 129.995 64.02 130.769 63.2731C131.694 62.4309 132.51 61.4768 133.199 60.4327C133.529 59.84 133.688 59.1681 133.661 58.4906C133.613 57.7686 133.443 57.0599 133.158 56.3947C132.431 54.9556 131.782 53.4779 131.214 51.9684C130.963 51.1125 130.963 50.2024 131.214 49.3465C131.535 48.5197 131.939 47.7279 132.421 46.9836C132.883 46.288 133.068 45.4454 132.94 44.6207C132.721 43.8363 132.289 43.1277 131.692 42.5734C131.133 41.9746 130.518 41.4162 129.999 40.777C129.477 40.1498 129.101 39.4146 128.898 38.6245C128.581 37.1715 128.604 35.6654 128.962 34.2223C129.246 32.879 129.635 31.6652 129.878 30.5404C130.388 28.77 130.297 26.8805 129.618 25.1673C129.336 24.5669 128.952 24.0195 128.484 23.5488C128.484 23.5488 128.484 23.5488 128.598 23.6217C128.703 23.696 128.8 23.7799 128.889 23.8725C129.259 24.2462 129.555 24.6853 129.764 25.1673C130.112 25.8912 130.324 26.673 130.388 27.4735C130.461 28.529 130.379 29.5895 130.145 30.6213C129.91 31.7623 129.546 32.9842 129.278 34.3113C128.958 35.7039 128.958 37.151 129.278 38.5435C129.46 39.2779 129.806 39.9614 130.291 40.5423C130.785 41.1492 131.393 41.6914 131.976 42.3064C132.625 42.9048 133.098 43.6686 133.345 44.5155C133.486 45.4361 133.288 46.3766 132.786 47.1616C132.31 47.88 131.909 48.6446 131.587 49.4436C131.354 50.2361 131.354 51.0788 131.587 51.8713C132.142 53.3653 132.774 54.8293 133.483 56.2572C133.782 56.9662 133.955 57.7221 133.993 58.4906C134.018 59.2314 133.838 59.9648 133.474 60.6107C132.759 61.6707 131.913 62.6359 130.955 63.4834C130.204 64.181 129.665 65.0756 129.4 66.0648C129.32 66.4373 129.329 66.8232 129.426 67.1915C129.523 67.5598 129.706 67.9002 129.959 68.185C130.26 68.5689 130.698 68.8212 131.182 68.889C131.546 68.8647 131.725 68.8162 131.725 68.8647Z" fill="#1F1B2D"/>
<path d="M163.511 79.7744C162.983 79.0913 162.395 78.4575 161.753 77.8808C161.029 77.4145 160.267 77.0085 159.477 76.667C159.937 76.6392 160.398 76.7028 160.833 76.8542C161.268 77.0056 161.669 77.2418 162.012 77.5491C162.4 77.799 162.733 78.1252 162.99 78.5078C163.248 78.8904 163.425 79.3213 163.511 79.7744Z" fill="#D1734A"/>
<path d="M151.43 124.121C150.848 122.968 150.452 121.731 150.256 120.455C149.929 119.202 149.811 117.903 149.907 116.611C150.23 117.848 150.485 119.101 150.669 120.366C150.997 121.601 151.251 122.855 151.43 124.121Z" fill="#D1734A"/>
<path d="M99.7741 115.046C101.195 114.573 102.446 113.695 103.373 112.52C104.3 111.346 104.862 109.926 104.991 108.435C105.428 104.219 102.561 100.473 98.6805 100.06C94.8003 99.6471 91.2279 102.746 90.7904 106.962C90.6104 108.461 90.8772 109.979 91.5574 111.326C92.2376 112.674 93.3009 113.79 94.6139 114.537C88.5384 114.852 85.5979 118.583 84.1641 121.917C86.4105 125.076 89.7201 127.322 93.4879 128.245L97.8623 128.698C101.793 128.563 105.538 126.997 108.393 124.296C107.672 120.743 105.558 116.527 99.7741 115.046Z" fill="white"/>
<g opacity="0.3">
<path opacity="0.3" d="M67.4681 112.214L71.0648 108.508C71.0648 108.508 69.5095 135.293 68.4483 138.513C67.3871 141.734 61.8301 152.456 61.8301 152.456L66.6257 137.801L67.4681 112.214Z" fill="black"/>
</g>
<path d="M75.4297 103.97C75.5107 104.051 72.3514 107.474 68.3659 111.617C64.3804 115.76 61.0753 119.062 60.9862 118.981C60.8971 118.9 64.0726 115.477 68.0581 111.325C72.0436 107.174 75.3486 103.889 75.4297 103.97Z" fill="#1F1B2D"/>
<path d="M125.712 101.875C125.726 102.146 125.713 102.417 125.671 102.685C125.623 103.219 125.533 103.996 125.404 104.959C125.145 106.868 124.707 109.506 124.108 112.387C123.508 115.268 122.852 117.866 122.326 119.727C122.058 120.657 121.831 121.402 121.661 121.92C121.598 122.203 121.494 122.475 121.354 122.729C121.374 122.455 121.423 122.184 121.499 121.92C121.653 121.305 121.823 120.568 122.034 119.702C122.488 117.825 123.095 115.236 123.695 112.355C124.294 109.474 124.772 106.86 125.112 104.959C125.266 104.085 125.396 103.34 125.509 102.709C125.537 102.423 125.605 102.142 125.712 101.875Z" fill="#1F1B2D"/>
<path d="M109.577 49.0203C109.787 49.0203 109.577 50.4445 110.662 51.6017C111.748 52.7589 113.254 52.8236 113.238 53.0178C113.222 53.212 112.865 53.2444 112.226 53.1716C111.399 53.0724 110.635 52.6822 110.071 52.071C109.531 51.4857 109.241 50.7138 109.261 49.9185C109.277 49.3197 109.479 48.996 109.577 49.0203Z" fill="#1F1B2D"/>
<path d="M91.6004 28.0589C92.5276 26.9134 93.1242 25.5368 93.3259 24.0775C93.3313 23.0336 92.9561 22.0234 92.2704 21.2356C91.5846 20.4478 90.6353 19.9364 89.5996 19.7968C88.5535 19.7234 87.5141 20.0136 86.6578 20.6183C85.8015 21.223 85.1809 22.105 84.9012 23.1146C84.681 24.1394 84.7987 25.2079 85.2368 26.1603C85.6748 27.1127 86.4096 27.898 87.3314 28.3987C88.2727 28.8609 89.333 29.0242 90.3699 28.8665C91.4068 28.7088 92.3705 28.2378 93.1315 27.5167" fill="#1F1B2D"/>
<path d="M93.4553 23.8555C93.5656 24.9117 93.2767 25.9709 92.6452 26.8253C92.1253 27.7533 91.2753 28.4522 90.2637 28.7836C91.0117 28.1234 91.6903 27.3885 92.2888 26.5906C92.7704 25.7212 93.1613 24.8047 93.4553 23.8555Z" fill="#666276"/>
<path d="M119.517 176.415C130.876 176.415 140.084 167.216 140.084 155.869C140.084 144.521 130.876 135.323 119.517 135.323C108.158 135.323 98.9492 144.521 98.9492 155.869C98.9492 167.216 108.158 176.415 119.517 176.415Z" fill="#FD5631"/>
<g opacity="0.3">
<path opacity="0.3" d="M119.517 176.415C130.876 176.415 140.084 167.216 140.084 155.869C140.084 144.521 130.876 135.323 119.517 135.323C108.158 135.323 98.9492 144.521 98.9492 155.869C98.9492 167.216 108.158 176.415 119.517 176.415Z" fill="black"/>
</g>
<path d="M119.517 172.604C130.876 172.604 140.084 163.405 140.084 152.058C140.084 140.711 130.876 131.512 119.517 131.512C108.158 131.512 98.9492 140.711 98.9492 152.058C98.9492 163.405 108.158 172.604 119.517 172.604Z" fill="#FD5631"/>
<path d="M119.518 164.21C118.935 164.21 118.457 158.764 118.457 152.072C118.457 145.38 118.935 139.934 119.518 139.934C120.101 139.934 120.571 145.38 120.571 152.072C120.571 158.764 120.093 164.21 119.518 164.21Z" fill="white"/>
<path d="M131.716 152.058C131.716 152.64 126.272 153.11 119.565 153.11C112.858 153.11 107.414 152.64 107.414 152.058C107.414 151.475 112.858 151.006 119.565 151.006C126.272 151.006 131.716 151.475 131.716 152.058Z" fill="white"/>
</svg>
