<svg width="339" height="203" viewBox="0 0 339 203" fill="none" xmlns="http://www.w3.org/2000/svg">
<g opacity="0.2">
<path d="M15.2617 40.69H42.013V73.0896H48.8936V54.7458H82.9082V83.7915H87.409V15.633H116.969V34.3432H132.122V57.6148H136.711V42.981H163.581V86.6656H171.445V51.1493H196.023V24.178H212.733V8.81152H232.066V76.9493H238.563V48.5177H270.405V89.2146H274.813V55.9946H307.105V26.0666H323.582V141.042H15.2617V40.69Z" fill="#5D3CF2"/>
<path d="M23.0696 44.7666H18.543V50.9586H23.0696V44.7666Z" fill="white"/>
<path d="M30.9173 44.7666H26.3906V50.9586H30.9173V44.7666Z" fill="white"/>
<path d="M38.7571 44.7666H34.2305V50.9586H38.7571V44.7666Z" fill="white"/>
<path d="M23.0696 54.0859H18.543V60.2779H23.0696V54.0859Z" fill="white"/>
<path d="M30.9173 54.0859H26.3906V60.2779H30.9173V54.0859Z" fill="white"/>
<path d="M38.7571 54.0859H34.2305V60.2779H38.7571V54.0859Z" fill="white"/>
<path d="M23.0696 63.4033H18.543V69.5953H23.0696V63.4033Z" fill="white"/>
<path d="M30.9173 63.4033H26.3906V69.5953H30.9173V63.4033Z" fill="white"/>
<path d="M38.7571 63.4033H34.2305V69.5953H38.7571V63.4033Z" fill="white"/>
<path d="M23.0696 72.7236H18.543V78.9156H23.0696V72.7236Z" fill="white"/>
<path d="M30.9173 72.7236H26.3906V78.9156H30.9173V72.7236Z" fill="white"/>
<path d="M38.7571 72.7236H34.2305V78.9156H38.7571V72.7236Z" fill="white"/>
<path d="M179.749 55.5762H175.223V60.7413H179.749V55.5762Z" fill="white"/>
<path d="M187.589 55.5762H183.062V60.7413H187.589V55.5762Z" fill="white"/>
<path d="M195.433 55.5762H190.906V60.7413H195.433V55.5762Z" fill="white"/>
<path d="M179.749 63.3535H175.223V68.5187H179.749V63.3535Z" fill="white"/>
<path d="M187.589 63.3535H183.062V68.5187H187.589V63.3535Z" fill="white"/>
<path d="M195.433 63.3525H190.906V68.5177H195.433V63.3525Z" fill="white"/>
<path d="M179.749 71.1299H175.223V76.295H179.749V71.1299Z" fill="white"/>
<path d="M187.589 71.1299H183.062V76.295H187.589V71.1299Z" fill="white"/>
<path d="M195.433 71.1299H190.906V76.295H195.433V71.1299Z" fill="white"/>
<path d="M179.749 78.9004H175.223V84.0656H179.749V78.9004Z" fill="white"/>
<path d="M187.589 78.9004H183.062V84.0656H187.589V78.9004Z" fill="white"/>
<path d="M195.433 78.9004H190.906V84.0656H195.433V78.9004Z" fill="white"/>
<path d="M179.749 86.873H175.223V92.0382H179.749V86.873Z" fill="white"/>
<path d="M187.589 86.873H183.062V92.0382H187.589V86.873Z" fill="white"/>
<path d="M195.433 86.873H190.906V92.0382H195.433V86.873Z" fill="white"/>
<path d="M179.749 94.8389H175.223V100.004H179.749V94.8389Z" fill="white"/>
<path d="M187.589 94.8389H183.062V100.004H187.589V94.8389Z" fill="white"/>
<path d="M195.433 94.8389H190.906V100.004H195.433V94.8389Z" fill="white"/>
<path d="M179.749 102.807H175.223V107.972H179.749V102.807Z" fill="white"/>
<path d="M187.589 102.807H183.062V107.972H187.589V102.807Z" fill="white"/>
<path d="M195.433 102.807H190.906V107.972H195.433V102.807Z" fill="white"/>
<path d="M179.749 110.772H175.223V115.938H179.749V110.772Z" fill="white"/>
<path d="M187.589 110.772H183.062V115.938H187.589V110.772Z" fill="white"/>
<path d="M195.433 110.772H190.906V115.938H195.433V110.772Z" fill="white"/>
<path d="M78.8107 58.7188H52.7578V62.5939H78.8107V58.7188Z" fill="white"/>
<path d="M78.8107 66.2373H52.7578V70.1124H78.8107V66.2373Z" fill="white"/>
<path d="M78.8107 73.7559H52.7578V77.631H78.8107V73.7559Z" fill="white"/>
<path d="M78.8107 81.2676H52.7578V85.1427H78.8107V81.2676Z" fill="white"/>
<path d="M78.8107 88.7871H52.7578V92.6622H78.8107V88.7871Z" fill="white"/>
<path d="M78.8107 96.3047H52.7578V100.18H78.8107V96.3047Z" fill="white"/>
<path d="M78.8107 103.822H52.7578V107.697H78.8107V103.822Z" fill="white"/>
<path d="M78.8107 111.335H52.7578V115.21H78.8107V111.335Z" fill="white"/>
<path d="M266.367 52.1309H242.414V56.006H266.367V52.1309Z" fill="white"/>
<path d="M266.367 59.6484H242.414V63.5236H266.367V59.6484Z" fill="white"/>
<path d="M266.367 67.1611H242.414V71.0363H266.367V67.1611Z" fill="white"/>
<path d="M266.367 74.6797H242.414V78.5549H266.367V74.6797Z" fill="white"/>
<path d="M266.367 82.1973H242.414V86.0724H266.367V82.1973Z" fill="white"/>
<path d="M266.367 89.7109H242.414V93.5861H266.367V89.7109Z" fill="white"/>
<path d="M266.367 97.2275H242.414V101.103H266.367V97.2275Z" fill="white"/>
<path d="M266.367 104.746H242.414V108.621H266.367V104.746Z" fill="white"/>
<path d="M266.367 111.887H242.414V115.762H266.367V111.887Z" fill="white"/>
<path d="M266.367 119.03H242.414V122.905H266.367V119.03Z" fill="white"/>
<path d="M266.367 126.171H242.414V130.046H266.367V126.171Z" fill="white"/>
<path d="M266.367 133.316H242.414V137.192H266.367V133.316Z" fill="white"/>
<path d="M305.1 61.2051H279.797V65.0802H305.1V61.2051Z" fill="white"/>
<path d="M305.1 68.7246H279.797V72.5998H305.1V68.7246Z" fill="white"/>
<path d="M305.1 76.2422H279.797V80.1173H305.1V76.2422Z" fill="white"/>
<path d="M305.1 83.7607H279.797V87.6359H305.1V83.7607Z" fill="white"/>
<path d="M305.1 91.2734H279.797V95.1486H305.1V91.2734Z" fill="white"/>
<path d="M305.1 98.792H279.797V102.667H305.1V98.792Z" fill="white"/>
<path d="M305.1 106.309H279.797V110.184H305.1V106.309Z" fill="white"/>
<path d="M305.1 113.822H279.797V117.697H305.1V113.822Z" fill="white"/>
<path d="M305.1 120.551H279.797V124.426H305.1V120.551Z" fill="white"/>
<path d="M305.1 127.281H279.797V131.156H305.1V127.281Z" fill="white"/>
<path d="M305.1 134.009H279.797V137.884H305.1V134.009Z" fill="white"/>
<path d="M152.619 46.4844H144.574V50.2254H152.619V46.4844Z" fill="white"/>
<path d="M152.619 53.7451H144.574V57.4861H152.619V53.7451Z" fill="white"/>
<path d="M152.619 61.0049H144.574V64.7459H152.619V61.0049Z" fill="white"/>
<path d="M152.619 68.2637H144.574V72.0047H152.619V68.2637Z" fill="white"/>
<path d="M152.619 75.5205H144.574V79.2615H152.619V75.5205Z" fill="white"/>
<path d="M152.619 82.7803H144.574V86.5213H152.619V82.7803Z" fill="white"/>
<path d="M152.619 90.04H144.574V93.781H152.619V90.04Z" fill="white"/>
<path d="M152.619 97.3008H144.574V101.042H152.619V97.3008Z" fill="white"/>
<path d="M163.564 46.4844H155.52V50.2254H163.564V46.4844Z" fill="white"/>
<path d="M163.564 53.7451H155.52V57.4861H163.564V53.7451Z" fill="white"/>
<path d="M163.564 61.0039H155.52V64.7449H163.564V61.0039Z" fill="white"/>
<path d="M163.564 68.2637H155.52V72.0047H163.564V68.2637Z" fill="white"/>
<path d="M163.564 75.5205H155.52V79.2615H163.564V75.5205Z" fill="white"/>
<path d="M163.564 82.7803H155.52V86.5213H163.564V82.7803Z" fill="white"/>
<path d="M163.564 90.0391H155.52V93.78H163.564V90.0391Z" fill="white"/>
<path d="M163.564 97.3008H155.52V101.042H163.564V97.3008Z" fill="white"/>
<path d="M100.275 19.5547H91.8945V25.4526H100.275V19.5547Z" fill="white"/>
<path d="M112.768 19.5547H104.387V25.4526H112.768V19.5547Z" fill="white"/>
<path d="M100.275 28.2227H91.8945V34.1205H100.275V28.2227Z" fill="white"/>
<path d="M112.768 28.2227H104.387V34.1205H112.768V28.2227Z" fill="white"/>
<path d="M100.275 36.8867H91.8945V42.7846H100.275V36.8867Z" fill="white"/>
<path d="M112.768 36.8867H104.387V42.7846H112.768V36.8867Z" fill="white"/>
<path d="M100.275 45.5566H91.8945V51.4545H100.275V45.5566Z" fill="white"/>
<path d="M112.768 45.5566H104.387V51.4545H112.768V45.5566Z" fill="white"/>
<path d="M100.275 54.2256H91.8945V60.1235H100.275V54.2256Z" fill="white"/>
<path d="M112.768 54.2246H104.387V60.1225H112.768V54.2246Z" fill="white"/>
<path d="M100.275 62.8887H91.8945V68.7866H100.275V62.8887Z" fill="white"/>
<path d="M112.768 62.8887H104.387V68.7866H112.768V62.8887Z" fill="white"/>
<path d="M100.275 71.5576H91.8945V77.4555H100.275V71.5576Z" fill="white"/>
<path d="M112.768 71.5576H104.387V77.4555H112.768V71.5576Z" fill="white"/>
<path d="M100.275 80.2217H91.8945V86.1196H100.275V80.2217Z" fill="white"/>
<path d="M112.768 80.2227H104.387V86.1205H112.768V80.2227Z" fill="white"/>
<path d="M128.256 36.8867H119.875V42.7846H128.256V36.8867Z" fill="white"/>
<path d="M128.256 45.5566H119.875V51.4545H128.256V45.5566Z" fill="white"/>
<path d="M128.256 54.2246H119.875V60.1225H128.256V54.2246Z" fill="white"/>
<path d="M128.256 62.8887H119.875V68.7866H128.256V62.8887Z" fill="white"/>
<path d="M128.256 71.5576H119.875V77.4555H128.256V71.5576Z" fill="white"/>
<path d="M128.256 80.2227H119.875V86.1205H128.256V80.2227Z" fill="white"/>
<path d="M100.275 88.7871H91.8945V94.6849H100.275V88.7871Z" fill="white"/>
<path d="M112.768 88.7871H104.387V94.6849H112.768V88.7871Z" fill="white"/>
<path d="M128.256 88.7871H119.875V94.6849H128.256V88.7871Z" fill="white"/>
<path d="M100.275 97.3525H91.8945V103.25H100.275V97.3525Z" fill="white"/>
<path d="M112.768 97.3535H104.387V103.251H112.768V97.3535Z" fill="white"/>
<path d="M128.256 97.3535H119.875V103.251H128.256V97.3535Z" fill="white"/>
<path d="M100.275 105.914H91.8945V111.812H100.275V105.914Z" fill="white"/>
<path d="M112.768 105.914H104.387V111.812H112.768V105.914Z" fill="white"/>
<path d="M128.256 105.914H119.875V111.812H128.256V105.914Z" fill="white"/>
<path d="M100.275 114.479H91.8945V120.376H100.275V114.479Z" fill="white"/>
<path d="M112.768 114.479H104.387V120.376H112.768V114.479Z" fill="white"/>
<path d="M128.256 114.479H119.875V120.376H128.256V114.479Z" fill="white"/>
<path d="M100.275 123.039H91.8945V128.937H100.275V123.039Z" fill="white"/>
<path d="M112.768 123.039H104.387V128.937H112.768V123.039Z" fill="white"/>
<path d="M128.256 123.039H119.875V128.937H128.256V123.039Z" fill="white"/>
<path d="M203.964 27.9746H199.438V33.1398H203.964V27.9746Z" fill="white"/>
<path d="M211.808 27.9746H207.281V33.1398H211.808V27.9746Z" fill="white"/>
<path d="M203.964 35.751H199.438V40.9161H203.964V35.751Z" fill="white"/>
<path d="M211.808 35.751H207.281V40.9161H211.808V35.751Z" fill="white"/>
<path d="M203.964 43.5283H199.438V48.6935H203.964V43.5283Z" fill="white"/>
<path d="M211.808 43.5283H207.281V48.6935H211.808V43.5283Z" fill="white"/>
<path d="M203.964 51.3047H199.438V56.4698H203.964V51.3047Z" fill="white"/>
<path d="M211.808 51.3047H207.281V56.4698H211.808V51.3047Z" fill="white"/>
<path d="M203.964 59.2715H199.438V64.4367H203.964V59.2715Z" fill="white"/>
<path d="M211.808 59.2715H207.281V64.4367H211.808V59.2715Z" fill="white"/>
<path d="M203.964 67.2383H199.438V72.4034H203.964V67.2383Z" fill="white"/>
<path d="M211.808 67.2383H207.281V72.4034H211.808V67.2383Z" fill="white"/>
<path d="M203.964 75.2051H199.438V80.3702H203.964V75.2051Z" fill="white"/>
<path d="M211.808 75.2051H207.281V80.3702H211.808V75.2051Z" fill="white"/>
<path d="M203.964 83.1729H199.438V88.338H203.964V83.1729Z" fill="white"/>
<path d="M211.808 83.1729H207.281V88.338H211.808V83.1729Z" fill="white"/>
<path d="M203.964 91.2275H199.438V96.3927H203.964V91.2275Z" fill="white"/>
<path d="M211.808 91.2275H207.281V96.3927H211.808V91.2275Z" fill="white"/>
<path d="M203.964 99.2812H199.438V104.446H203.964V99.2812Z" fill="white"/>
<path d="M211.808 99.2812H207.281V104.446H211.808V99.2812Z" fill="white"/>
<path d="M203.964 107.331H199.438V112.496H203.964V107.331Z" fill="white"/>
<path d="M211.808 107.331H207.281V112.496H211.808V107.331Z" fill="white"/>
<path d="M203.964 115.387H199.438V120.552H203.964V115.387Z" fill="white"/>
<path d="M211.808 115.387H207.281V120.552H211.808V115.387Z" fill="white"/>
<path d="M314.468 28.8164H309.941V34.9052H314.468V28.8164Z" fill="white"/>
<path d="M322.308 28.8164H317.781V34.9052H322.308V28.8164Z" fill="white"/>
<path d="M314.468 37.9766H309.941V44.0654H314.468V37.9766Z" fill="white"/>
<path d="M322.308 37.9766H317.781V44.0654H322.308V37.9766Z" fill="white"/>
<path d="M314.468 47.1406H309.941V53.2294H314.468V47.1406Z" fill="white"/>
<path d="M322.308 47.1406H317.781V53.2294H322.308V47.1406Z" fill="white"/>
<path d="M314.468 56.2988H309.941V62.3876H314.468V56.2988Z" fill="white"/>
<path d="M322.308 56.2988H317.781V62.3876H322.308V56.2988Z" fill="white"/>
<path d="M314.468 65.6855H309.941V71.7744H314.468V65.6855Z" fill="white"/>
<path d="M322.308 65.6855H317.781V71.7744H322.308V65.6855Z" fill="white"/>
<path d="M314.468 75.0703H309.941V81.1591H314.468V75.0703Z" fill="white"/>
<path d="M322.308 75.0703H317.781V81.1591H322.308V75.0703Z" fill="white"/>
<path d="M314.468 84.458H309.941V90.5468H314.468V84.458Z" fill="white"/>
<path d="M322.308 84.458H317.781V90.5468H322.308V84.458Z" fill="white"/>
<path d="M314.468 93.8477H309.941V99.9365H314.468V93.8477Z" fill="white"/>
<path d="M322.308 93.8477H317.781V99.9365H322.308V93.8477Z" fill="white"/>
<path d="M314.468 103.332H309.941V109.421H314.468V103.332Z" fill="white"/>
<path d="M322.308 103.332H317.781V109.421H322.308V103.332Z" fill="white"/>
<path d="M314.468 112.82H309.941V118.909H314.468V112.82Z" fill="white"/>
<path d="M322.308 112.82H317.781V118.909H322.308V112.82Z" fill="white"/>
<path d="M314.468 122.307H309.941V128.395H314.468V122.307Z" fill="white"/>
<path d="M322.308 122.307H317.781V128.395H322.308V122.307Z" fill="white"/>
<path d="M314.468 131.795H309.941V137.884H314.468V131.795Z" fill="white"/>
<path d="M322.308 131.795H317.781V137.884H322.308V131.795Z" fill="white"/>
<path d="M220.738 27.9746H216.211V33.1398H220.738V27.9746Z" fill="white"/>
<path d="M228.577 27.9746H224.051V33.1398H228.577V27.9746Z" fill="white"/>
<path d="M220.738 20.0039H216.211V25.1691H220.738V20.0039Z" fill="white"/>
<path d="M228.577 20.0039H224.051V25.1691H228.577V20.0039Z" fill="white"/>
<path d="M220.738 12.0322H216.211V17.1974H220.738V12.0322Z" fill="white"/>
<path d="M228.577 12.0322H224.051V17.1974H228.577V12.0322Z" fill="white"/>
<path d="M220.738 35.751H216.211V40.9161H220.738V35.751Z" fill="white"/>
<path d="M228.577 35.751H224.051V40.9161H228.577V35.751Z" fill="white"/>
<path d="M220.738 43.5293H216.211V48.6945H220.738V43.5293Z" fill="white"/>
<path d="M228.577 43.5293H224.051V48.6945H228.577V43.5293Z" fill="white"/>
<path d="M220.738 51.3047H216.211V56.4698H220.738V51.3047Z" fill="white"/>
<path d="M228.577 51.3047H224.051V56.4698H228.577V51.3047Z" fill="white"/>
<path d="M220.738 59.2715H216.211V64.4367H220.738V59.2715Z" fill="white"/>
<path d="M228.577 59.2715H224.051V64.4367H228.577V59.2715Z" fill="white"/>
<path d="M220.738 67.2383H216.211V72.4034H220.738V67.2383Z" fill="white"/>
<path d="M228.577 67.2383H224.051V72.4034H228.577V67.2383Z" fill="white"/>
<path d="M220.738 75.2051H216.211V80.3702H220.738V75.2051Z" fill="white"/>
<path d="M228.577 75.2051H224.051V80.3702H228.577V75.2051Z" fill="white"/>
<path d="M220.738 83.1729H216.211V88.338H220.738V83.1729Z" fill="white"/>
<path d="M228.577 83.1729H224.051V88.338H228.577V83.1729Z" fill="white"/>
<path d="M220.738 91.2275H216.211V96.3927H220.738V91.2275Z" fill="white"/>
<path d="M228.577 91.2275H224.051V96.3927H228.577V91.2275Z" fill="white"/>
<path d="M220.738 99.2812H216.211V104.446H220.738V99.2812Z" fill="white"/>
<path d="M228.577 99.2812H224.051V104.446H228.577V99.2812Z" fill="white"/>
<path d="M220.738 107.331H216.211V112.496H220.738V107.331Z" fill="white"/>
<path d="M228.577 107.331H224.051V112.496H228.577V107.331Z" fill="white"/>
<path d="M220.738 115.387H216.211V120.552H220.738V115.387Z" fill="white"/>
<path d="M228.577 115.387H224.051V120.552H228.577V115.387Z" fill="white"/>
<path d="M70.4981 35.2518L25.1797 35.1847C25.1797 35.1847 27.4353 32.259 29.9185 31.8978C29.9185 31.8978 34.771 17.5581 42.8518 17.4498C50.3738 17.3672 53.3743 26.2889 53.3743 26.2889C53.3743 26.2889 56.8663 22.295 60.1928 24.132C63.5193 25.969 65.392 31.2064 65.392 31.2064C65.392 31.2064 69.1478 33.2394 70.4981 35.2518Z" fill="#5D3CF2"/>
<path d="M264.137 18.6002L321.452 18.6879C321.452 18.6879 321.452 15.0346 313.563 14.3071C313.563 14.3071 306.377 -1.68892 295.368 0.4628C288.513 1.76312 284.996 11.144 284.996 11.144C284.996 11.144 279.822 3.74972 275.684 5.17388C271.545 6.59804 269.062 14.4619 269.062 14.4619C269.062 14.4619 264.789 16.5362 264.137 18.6002Z" fill="#5D3CF2"/>
<path d="M125.086 16.6139L164.062 16.6706C164.062 16.6706 160.389 13.2495 158.754 13.2495C157.119 13.2495 152.349 1.77888 146.266 2.2536C140.182 2.72832 136.923 11.2629 136.923 11.2629C136.923 11.2629 129.519 8.93579 125.086 16.6139Z" fill="#5D3CF2"/>
<path d="M233.961 39.3755L267.288 39.4271C267.288 39.4271 265.632 37.2702 263.806 37.0019C263.806 37.0019 260.272 26.4446 254.323 26.362C248.793 26.2846 246.563 32.8378 246.563 32.8378C246.563 32.8378 244.008 29.8914 241.561 31.233C239.114 32.5746 237.712 36.424 237.712 36.424C237.712 36.424 234.959 37.8998 233.961 39.3755Z" fill="#5D3CF2"/>
</g>
<path opacity="0.3" d="M167.352 183.745C245.878 183.745 309.536 178.378 309.536 171.758C309.536 165.138 245.878 159.771 167.352 159.771C88.8259 159.771 25.168 165.138 25.168 171.758C25.168 178.378 88.8259 183.745 167.352 183.745Z" fill="#5D3CF2"/>
<path d="M0 143.414L42.3541 143.29L84.7082 143.244L169.421 143.156L254.135 143.244L296.489 143.29L338.843 143.414L296.489 143.543L254.135 143.59L169.421 143.672L84.7082 143.59L42.3541 143.543L0 143.414Z" fill="#1F1B2D"/>
<path d="M338.843 137.96H0V143.419H338.843V137.96Z" fill="#C7C7C7"/>
<path d="M17.4359 137.96C17.7808 139.762 17.7808 141.612 17.4359 143.414C17.25 142.518 17.1632 141.604 17.1772 140.69C17.1656 139.773 17.2523 138.858 17.4359 137.96Z" fill="#1F1B2D"/>
<path d="M37.6972 137.96C37.8808 138.858 37.9675 139.773 37.9558 140.69C37.9699 141.604 37.8831 142.518 37.6972 143.414C37.5138 142.518 37.427 141.604 37.4385 140.69C37.4294 139.773 37.5161 138.858 37.6972 137.96Z" fill="#1F1B2D"/>
<path d="M57.9618 137.96C58.3067 139.762 58.3067 141.612 57.9618 143.414C57.6169 141.612 57.6169 139.762 57.9618 137.96Z" fill="#1F1B2D"/>
<path d="M78.2313 137.96C78.5693 139.762 78.5693 141.612 78.2313 143.414C77.8864 141.612 77.8864 139.762 78.2313 137.96Z" fill="#1F1B2D"/>
<path d="M98.493 137.96C98.8379 139.762 98.8379 141.612 98.493 143.414C98.1482 141.612 98.1482 139.762 98.493 137.96Z" fill="#1F1B2D"/>
<path d="M118.76 137.96C118.941 138.858 119.028 139.773 119.019 140.69C119.03 141.604 118.944 142.518 118.76 143.414C118.574 142.518 118.487 141.604 118.501 140.69C118.492 139.773 118.579 138.858 118.76 137.96Z" fill="#1F1B2D"/>
<path d="M139.024 137.96C139.208 138.858 139.295 139.773 139.283 140.69C139.297 141.604 139.21 142.518 139.024 143.414C138.679 141.612 138.679 139.762 139.024 137.96Z" fill="#1F1B2D"/>
<path d="M159.286 137.96C159.631 139.762 159.631 141.612 159.286 143.414C158.941 141.612 158.941 139.762 159.286 137.96Z" fill="#1F1B2D"/>
<path d="M179.556 137.96C179.901 139.762 179.901 141.612 179.556 143.414C179.211 141.612 179.211 139.762 179.556 137.96Z" fill="#1F1B2D"/>
<path d="M199.819 137.96C200.164 139.762 200.164 141.612 199.819 143.414C199.633 142.518 199.546 141.604 199.56 140.69C199.548 139.773 199.635 138.858 199.819 137.96Z" fill="#1F1B2D"/>
<path d="M220.084 137.96C220.265 138.858 220.352 139.773 220.343 140.69C220.357 141.604 220.27 142.518 220.084 143.414C219.9 142.518 219.814 141.604 219.825 140.69C219.816 139.773 219.903 138.858 220.084 137.96Z" fill="#1F1B2D"/>
<path d="M240.349 137.96C240.693 139.762 240.693 141.612 240.349 143.414C240.004 141.612 240.004 139.762 240.349 137.96Z" fill="#1F1B2D"/>
<path d="M260.618 137.96C260.956 139.762 260.956 141.612 260.618 143.414C260.273 141.612 260.273 139.762 260.618 137.96Z" fill="#1F1B2D"/>
<path d="M280.88 137.96C281.225 139.762 281.225 141.612 280.88 143.414C280.535 141.612 280.535 139.762 280.88 137.96Z" fill="#1F1B2D"/>
<path d="M301.143 137.96C301.324 138.858 301.411 139.773 301.402 140.69C301.413 141.604 301.326 142.518 301.143 143.414C300.957 142.518 300.87 141.604 300.884 140.69C300.873 139.773 300.959 138.858 301.143 137.96Z" fill="#1F1B2D"/>
<path d="M321.407 137.96C321.591 138.858 321.678 139.773 321.666 140.69C321.68 141.604 321.593 142.518 321.407 143.414C321.062 141.612 321.062 139.762 321.407 137.96Z" fill="#1F1B2D"/>
<path d="M325.042 129.506H322.703L323.298 79.7219L323.35 75.5732H324.395L324.447 79.7219L325.042 129.506Z" fill="#FDBC31"/>
<path d="M324.445 79.7219H323.297L323.349 75.5732H324.394L324.445 79.7219Z" fill="#1F1B2D"/>
<path d="M318.039 60.474L318.955 76.7228L320.031 76.8931L321.009 77.0479V59.5039L318.929 60.185L318.039 60.474Z" fill="#FDBC31"/>
<path d="M319.054 62.373C319.054 62.373 315.086 62.4092 315.169 62.631C315.252 62.8529 316.845 63.2967 316.99 63.3999C317.135 63.5031 318.646 66.3875 319.059 66.3875C319.473 66.3875 319.054 62.373 319.054 62.373Z" fill="#FDBC31"/>
<path d="M319.343 66.9707C319.343 66.9707 315.381 67.012 315.458 67.2339C315.536 67.4557 317.139 67.8995 317.279 68.0027C317.419 68.1059 318.94 70.9852 319.348 70.9852C319.757 70.9852 319.343 66.9707 319.343 66.9707Z" fill="#FDBC31"/>
<path d="M319.64 71.5732C319.64 71.5732 315.672 71.6145 315.755 71.8364C315.838 72.0583 317.431 72.502 317.576 72.6001C317.721 72.6981 319.232 75.5877 319.646 75.5877C320.059 75.5877 319.64 71.5732 319.64 71.5732Z" fill="#FDBC31"/>
<path opacity="0.1" d="M318.93 60.185L320.032 76.8931L321.009 77.0479V59.5039L318.93 60.185Z" fill="#1F1B2D"/>
<path d="M329.7 60.474L328.784 76.7228L327.708 76.8931L326.73 77.0479V59.5039L328.81 60.185L329.7 60.474Z" fill="#FDBC31"/>
<path d="M328.692 62.373C328.692 62.373 332.654 62.4092 332.572 62.631C332.489 62.8529 330.895 63.2967 330.751 63.3999C330.606 63.5031 329.095 66.3875 328.681 66.3875C328.267 66.3875 328.692 62.373 328.692 62.373Z" fill="#FDBC31"/>
<path d="M328.396 66.9707C328.396 66.9707 332.364 67.012 332.282 67.2339C332.199 67.4557 330.6 67.8995 330.461 68.0027C330.321 68.1059 328.8 70.9852 328.391 70.9852C327.983 70.9852 328.396 66.9707 328.396 66.9707Z" fill="#FDBC31"/>
<path d="M328.106 71.5732C328.106 71.5732 332.068 71.6145 331.986 71.8364C331.903 72.0583 330.31 72.502 330.165 72.6001C330.02 72.6981 328.509 75.5877 328.095 75.5877C327.681 75.5877 328.106 71.5732 328.106 71.5732Z" fill="#FDBC31"/>
<path opacity="0.1" d="M328.81 60.185L327.708 76.8931L326.73 77.0479V59.5039L328.81 60.185Z" fill="#1F1B2D"/>
<path d="M327.594 58.1836L327.268 77.4459H320.47L320.145 58.1836H327.594Z" fill="#FDBC31"/>
<path d="M326.292 61.5995C326.292 62.0771 326.15 62.544 325.883 62.9411C325.617 63.3382 325.239 63.6477 324.797 63.8305C324.354 64.0133 323.868 64.0611 323.398 63.9679C322.928 63.8747 322.497 63.6448 322.158 63.307C321.82 62.9693 321.589 62.539 321.496 62.0706C321.402 61.6021 321.45 61.1166 321.634 60.6753C321.817 60.2341 322.127 59.8569 322.525 59.5916C322.923 59.3262 323.392 59.1846 323.87 59.1846C324.512 59.1846 325.128 59.439 325.582 59.8919C326.036 60.3447 326.292 60.959 326.292 61.5995Z" fill="#F23C49"/>
<path d="M326.292 73.8133C326.292 74.2909 326.15 74.7578 325.883 75.1549C325.617 75.5521 325.239 75.8616 324.797 76.0444C324.354 76.2271 323.868 76.2749 323.398 76.1818C322.928 76.0886 322.497 75.8586 322.158 75.5209C321.82 75.1832 321.589 74.7529 321.496 74.2844C321.402 73.816 321.45 73.3304 321.634 72.8892C321.817 72.4479 322.127 72.0708 322.525 71.8054C322.923 71.5401 323.392 71.3984 323.87 71.3984C324.512 71.3984 325.128 71.6529 325.582 72.1057C326.036 72.5586 326.292 73.1728 326.292 73.8133Z" fill="white"/>
<path d="M326.291 67.7599C326.29 68.2373 326.147 68.7037 325.881 69.1001C325.614 69.4966 325.236 69.8053 324.793 69.9873C324.351 70.1693 323.864 70.2163 323.395 70.1226C322.925 70.0288 322.495 69.7984 322.157 69.4605C321.818 69.1225 321.588 68.6923 321.495 68.224C321.402 67.7557 321.451 67.2704 321.634 66.8294C321.817 66.3884 322.128 66.0116 322.526 65.7465C322.924 65.4813 323.392 65.3398 323.87 65.3398C324.189 65.3398 324.504 65.4025 324.798 65.5242C325.092 65.6458 325.359 65.8242 325.584 66.049C325.809 66.2738 325.987 66.5406 326.109 66.8342C326.23 67.1277 326.292 67.4423 326.291 67.7599Z" fill="white"/>
<path d="M325.742 137.963H321.996L322.317 128.18L322.415 125.141H325.245L325.364 128.18L325.742 137.963Z" fill="#FDBC31"/>
<path d="M325.367 128.18H322.32L322.419 125.141H325.249L325.367 128.18Z" fill="#455A64"/>
<path d="M47.8477 150.33H109.41C109.41 150.33 102.685 121.646 78.6342 121.646C54.5833 121.646 48.8823 143.926 47.8477 150.33Z" fill="#FDBC31"/>
<path opacity="0.2" d="M47.8477 150.33H109.41C109.41 150.33 102.685 121.646 78.6342 121.646C54.5833 121.646 48.8823 143.926 47.8477 150.33Z" fill="#1F1B2D"/>
<path d="M226.484 153.427H288.047C288.047 153.427 281.322 124.742 257.271 124.742C233.22 124.742 227.545 147.023 226.484 153.427Z" fill="#FDBC31"/>
<path opacity="0.2" d="M226.484 153.427H288.047C288.047 153.427 281.322 124.742 257.271 124.742C233.22 124.742 227.545 147.023 226.484 153.427Z" fill="#1F1B2D"/>
<path d="M33.7605 98.0135C32.4413 100.078 30.1392 123.138 29.9891 123.943C29.8391 124.747 27.9198 128.277 27.9198 128.948C27.9198 129.619 27.4025 140 27.687 140.671C28.3101 141.896 29.0189 143.075 29.8081 144.201C30.1443 144.603 38.8666 152.09 39.8443 152.194C40.8221 152.297 49.8444 152.359 50.0151 152.194C50.1858 152.028 51.2257 124.33 78.6029 124.33C105.98 124.33 105.68 153.742 106.187 153.855C106.694 153.969 229.245 156.745 229.245 156.745C229.245 152.24 229.597 125.439 256.452 125.439C273.948 125.439 282.789 139.82 283.094 150.429C283.219 154.846 282.479 159.717 282.722 159.717C283.529 159.717 286.292 159.918 286.762 159.717C287.233 159.516 292.97 155.749 293.431 155.615C293.891 155.48 297.202 155.413 298.009 155.212C298.816 155.011 304.476 150.052 304.579 149.872C304.683 149.691 304.848 147.725 304.879 147.555C304.91 147.384 310.642 140.398 310.911 139.629C311.181 138.86 311.279 132.472 311.279 131.832C311.279 131.192 300.875 114.366 298.449 112.554C296.023 110.743 278.749 104.696 273.695 103.782C268.64 102.869 240.859 98.7411 239.851 98.0393C238.842 97.3376 191.402 70.2011 183.151 68.1836C176.482 66.5736 99.2963 68.7873 95.2559 68.9885C91.2155 69.1898 80.0308 71.2073 78.9547 71.2073C77.8787 71.2073 65.5041 71.1402 64.7436 71.4756C63.9831 71.811 64.7436 74.7677 65.6851 75.3044C66.6267 75.841 36.0523 94.386 33.7605 98.0135Z" fill="#FDBC31"/>
<path d="M35.5311 96.2641C35.8208 96.5324 40.6476 96.6511 41.1546 96.4499C41.6615 96.2486 72.06 76.0782 72.0807 75.4899C72.0807 75.1958 66.3901 75.2732 65.6865 75.3042C64.9829 75.3351 34.9724 95.7584 35.5311 96.2641Z" fill="#666276"/>
<path d="M69.385 95.9449C70.7042 99.8253 230.369 107.08 231.243 105.202C231.89 103.809 217.606 92.3691 210.938 88.6384C204.269 84.9077 185.175 74.1284 175.759 73.019C166.344 71.9096 147.306 71.987 130.699 72.3173C114.227 72.6166 94.8326 73.019 87.9625 75.9293C81.9562 78.5093 68.34 92.8593 69.385 95.9449Z" fill="#1F1B2D"/>
<path d="M73.8379 93.6797C74.2362 95.14 109.498 98.9223 150.822 100.837C192.147 102.751 212.55 103.05 213.057 102.849C213.564 102.648 211.64 91.6673 210.936 90.7591C210.233 89.851 180.626 74.7373 175.98 74.3297C171.335 73.9221 146.223 73.8756 133.559 74.0769C120.895 74.2781 94.4639 75.79 89.9631 77.6011C85.9952 79.2007 73.4292 92.2194 73.8379 93.6797Z" fill="#666276"/>
<g opacity="0.1">
<path opacity="0.1" d="M128.553 74.2051L104.885 97.8121C100.663 97.4405 96.7575 97.069 93.25 96.713L115.18 74.8449C119.856 74.5456 124.518 74.3289 128.553 74.2051Z" fill="white"/>
<path opacity="0.1" d="M212.976 100.523L210.591 102.902C208.177 102.902 204.012 102.823 198.098 102.664L210.41 90.3887C210.594 90.4943 210.767 90.6169 210.927 90.755C211.44 91.4052 212.567 97.1947 212.976 100.523Z" fill="white"/>
<path opacity="0.1" d="M146.195 73.9785L121.026 99.0974C119.009 98.9581 117.027 98.8136 115.098 98.664L139.795 74.025C141.823 73.994 143.98 73.9785 146.195 73.9785Z" fill="white"/>
<path opacity="0.1" d="M200.219 84.9793L182.972 102.193L176.836 101.966L195.977 82.874C197.431 83.5809 198.859 84.2879 200.219 84.9793Z" fill="white"/>
<path opacity="0.1" d="M110.963 75.083L89.6752 96.3267L88.0508 96.1461L109.034 75.2172L110.963 75.083Z" fill="white"/>
<path opacity="0.1" d="M203.886 86.8523L188.366 102.363L186.617 102.301L202.717 86.2383L203.886 86.8523Z" fill="white"/>
<path opacity="0.1" d="M181.555 76.1969L156.594 101.094L154.855 101.022L180.288 75.6758L181.555 76.1969Z" fill="white"/>
<path opacity="0.1" d="M94.0466 76.7021L76.2297 94.4526C75.6347 94.3339 75.1433 94.2204 74.7656 94.1068L91.8376 77.0788C92.4843 76.955 93.2189 76.826 94.0466 76.7021Z" fill="white"/>
</g>
<path d="M95.959 76.434C96.1245 76.434 96.2021 76.6507 96.0572 77.0377C95.2295 79.3236 88.768 92.2701 87.154 95.2938C87.0523 95.4564 86.9189 95.5969 86.7615 95.7068C86.6042 95.8168 86.4262 95.8939 86.2383 95.9337L97.6196 97.1463C97.4201 97.0663 97.2547 96.9196 97.1518 96.7313C97.049 96.543 97.015 96.3248 97.0557 96.1143C97.1695 95.397 101.396 80.1802 102.746 76.4392C102.897 76.0928 103.167 75.8112 103.507 75.6445C103.734 75.6445 101.567 75.6755 99.5079 75.8871C97.6765 76.0831 95.959 76.434 95.959 76.434Z" fill="#1F1B2D"/>
<path d="M110.961 75.0819C110.961 75.0819 111.168 75.1954 111.178 75.5979C111.251 79.1789 111.654 97.1099 111.308 98.0903C111.285 98.1878 111.226 98.2728 111.142 98.3277L113.294 98.4979C113.183 98.3469 113.115 98.1686 113.098 97.9819C112.854 94.953 112.637 78.5133 112.678 75.474C112.691 75.2855 112.762 75.1054 112.88 74.958L110.961 75.0819Z" fill="#1F1B2D"/>
<path d="M146.364 74.7169C146.618 75.5116 147.037 98.9225 147.037 99.6758C147.037 100.429 146.173 100.61 146.173 100.61L159.515 101.229C159.515 101.229 158.651 100.986 158.48 100.584C158.309 100.182 154.135 74.9388 154.16 74.6086C154.186 74.2783 154.843 73.9688 154.843 73.9688H145.531C145.714 74.0304 145.882 74.1286 146.025 74.2572C146.168 74.3859 146.284 74.5423 146.364 74.7169Z" fill="#1F1B2D"/>
<path d="M36.1205 101.305C34.4806 101.512 30.7972 105.335 30.5282 106.14C30.2592 106.945 29.2504 112.389 29.7884 113.194C30.3264 113.999 32.2819 116.016 33.9633 116.083C35.6446 116.151 43.865 112.255 44.6048 111.584C45.3446 110.913 45.8826 106.821 45.0083 105.505C44.134 104.19 38.2054 101.037 36.1205 101.305Z" fill="white"/>
<path d="M44.603 111.584C43.8632 112.255 35.6428 116.151 33.9615 116.084C32.6785 116.032 31.2351 114.845 30.3867 113.927C31.3426 114.617 32.4971 114.979 33.677 114.959C34.5823 114.876 42.2802 111.574 43.2683 110.671C44.2564 109.768 44.303 106.367 44.1685 105.753C44.034 105.139 39.0676 101.945 39.0676 101.945C41.5249 102.89 44.4168 104.613 45.0065 105.501C45.8808 106.837 45.3428 110.908 44.603 111.584Z" fill="#EFECF3"/>
<path d="M29.3154 131.703C28.8601 132.157 28.7049 135.567 29.1809 135.867C29.6568 136.166 32.4142 136.135 32.9522 135.867C33.4903 135.598 34.8715 133.044 34.7681 132.172C34.6646 131.3 29.8534 131.166 29.3154 131.703Z" fill="white"/>
<path d="M275.188 112.823C276.642 115.171 287.314 119.325 291.303 119.98C293.817 120.393 302.519 120.94 303.026 120.496C303.532 120.052 299.337 114.247 297.164 112.833C294.991 111.42 284.133 107.797 280.847 107.947C277.562 108.097 273.724 110.449 275.188 112.823Z" fill="white"/>
<path d="M303.026 120.485C302.509 120.939 293.818 120.392 291.303 119.969C287.315 119.313 276.642 115.16 275.188 112.812C273.735 110.464 277.563 108.08 280.848 107.925C281.103 107.91 281.359 107.91 281.614 107.925C278.556 109.05 277.93 111.434 279.793 112.796C281.655 114.159 287.625 117.342 290.01 118.008C292.307 118.653 300.874 119.984 301.619 119.401C301.761 119.233 301.864 119.036 301.92 118.824C301.976 118.611 301.985 118.389 301.945 118.173C302.731 119.375 303.217 120.314 303.026 120.485Z" fill="#EFECF3"/>
<g opacity="0.5">
<path opacity="0.5" d="M70.2099 112.277C70.2201 113.711 69.6624 115.091 68.6579 116.116C67.6381 117.163 66.2436 117.762 64.7808 117.784C63.318 117.805 61.9065 117.246 60.8565 116.23C60.326 115.717 59.9042 115.103 59.6162 114.425C59.3281 113.746 59.1797 113.017 59.1797 112.28C59.1797 111.543 59.3281 110.814 59.6162 110.135C59.9042 109.457 60.326 108.843 60.8565 108.33C61.3758 107.826 61.9897 107.428 62.6631 107.161C63.3365 106.894 64.0562 106.762 64.7809 106.772C65.5056 106.783 66.221 106.936 66.8863 107.222C67.5516 107.509 68.1537 107.924 68.6579 108.443C69.6621 109.467 70.2199 110.845 70.2099 112.277ZM70.2099 112.277C70.1981 110.852 69.6194 109.49 68.601 108.49C68.0969 108.006 67.5022 107.625 66.8506 107.37C66.1991 107.115 65.5036 106.991 64.8038 107.004C63.4126 107.032 62.0887 107.607 61.1204 108.603C60.1618 109.588 59.6257 110.907 59.6257 112.28C59.6257 113.653 60.1618 114.971 61.1204 115.956C62.0887 116.953 63.4126 117.528 64.8038 117.556C65.5036 117.569 66.1991 117.445 66.8506 117.19C67.5022 116.935 68.0969 116.554 68.601 116.07C69.6188 115.068 70.1972 113.704 70.2099 112.277Z" fill="#1F1B2D"/>
<path opacity="0.5" d="M47.8467 128.648C47.2983 127.43 46.812 126.202 46.2947 124.963C45.7774 123.725 45.3428 122.487 44.8669 121.243C44.3909 119.999 43.9615 118.746 43.5373 117.487C43.1131 116.227 42.6889 114.963 42.3164 113.684C42.87 114.901 43.3511 116.129 43.8684 117.363C44.3857 118.596 44.8203 119.845 45.3014 121.088C45.7825 122.332 46.2067 123.586 46.631 124.845C47.0552 126.104 47.4639 127.368 47.8467 128.648Z" fill="#1F1B2D"/>
<path opacity="0.5" d="M28.8906 128.65C31.5445 128.599 34.1933 128.604 36.8472 128.614L44.7986 128.697L52.75 128.888C55.3988 128.97 58.0475 129.058 60.6963 129.197C58.0475 129.249 55.3936 129.244 52.7449 129.238L44.7883 129.151L36.8369 128.96C34.1881 128.877 31.5394 128.79 28.8906 128.65Z" fill="#1F1B2D"/>
<path opacity="0.5" d="M154.074 102.917L154.985 109.362L155.378 112.592C155.44 113.134 155.497 113.67 155.538 114.217C155.58 114.764 155.538 115.301 155.538 115.848L155.45 128.861L155.347 135.373L155.29 138.624L155.264 140.255L155.14 141.875L154.623 148.366L154.074 154.827L154.405 148.33L154.778 141.839L154.871 140.213V138.588L154.902 135.337L154.969 128.841L155.192 115.838C155.192 115.296 155.238 114.749 155.192 114.217C155.145 113.686 155.114 113.139 155.062 112.602L154.736 109.367L154.074 102.917Z" fill="#1F1B2D"/>
<path opacity="0.5" d="M225.722 105.873L226.845 112.349L227.362 115.61L227.497 116.42C227.555 116.69 227.588 116.965 227.595 117.241C227.595 117.787 227.595 118.334 227.595 118.887C227.559 123.267 227.45 127.659 227.316 132.024C227.281 133.118 227.235 134.212 227.176 135.306C227.114 136.409 226.902 137.5 226.545 138.546C225.945 140.657 225.257 142.736 224.501 144.8C223.765 146.87 222.887 148.887 221.873 150.837L221.465 151.56C221.325 151.797 221.165 152.024 221.015 152.256C220.857 152.49 220.684 152.712 220.497 152.922L220.228 153.247C220.082 153.334 219.917 153.383 219.747 153.391C218.635 153.505 217.543 153.52 216.441 153.557C207.647 153.737 198.878 153.66 190.094 153.598C181.309 153.536 172.53 153.407 163.746 153.247C154.961 153.087 146.187 152.845 137.408 152.525C133.021 152.344 128.614 152.2 124.247 151.807C123.686 151.766 123.128 151.678 122.582 151.544C122.271 151.426 122.09 151.281 121.826 151.168C121.562 151.054 121.34 150.93 121.092 150.817C120.093 150.368 119.069 149.97 118.076 149.475C117.069 148.999 116.137 148.38 115.308 147.638C114.587 146.797 113.92 145.911 113.311 144.986C110.838 141.374 108.474 137.669 106.115 133.98C103.756 130.29 101.417 126.575 99.0946 122.86C96.7718 119.145 94.48 115.404 92.2141 111.652L91.376 110.238L91.1742 109.867L91.0759 109.681C91.0597 109.613 91.051 109.544 91.0501 109.475L90.9673 108.659C90.8742 107.566 90.7914 106.472 90.75 105.378C90.75 105.104 90.75 104.831 90.75 104.552C90.7858 104.279 90.8446 104.01 90.9259 103.747C91.0759 103.231 91.257 102.715 91.4432 102.199C91.8105 101.167 92.2037 100.135 92.6124 99.1289C92.2123 100.161 91.8312 101.193 91.4691 102.225C91.2932 102.741 91.1173 103.257 90.9518 103.773C90.8727 104.034 90.8156 104.302 90.781 104.573C90.781 104.846 90.781 105.12 90.781 105.393C90.8276 106.482 90.9259 107.576 91.0242 108.665L91.1121 109.48C91.117 109.548 91.1274 109.615 91.1432 109.681L91.2415 109.857C91.3087 109.97 91.3656 110.084 91.4381 110.202L92.2865 111.611C94.5783 115.342 96.9425 119.052 99.2601 122.757C103.916 130.161 108.608 137.586 113.539 144.831C114.136 145.731 114.789 146.592 115.494 147.411C116.305 148.129 117.214 148.729 118.195 149.191C119.172 149.671 120.191 150.063 121.2 150.517C121.454 150.631 121.718 150.744 121.95 150.868C122.183 150.992 122.468 151.157 122.669 151.229C123.19 151.348 123.72 151.427 124.253 151.467C128.614 151.849 133.011 151.983 137.398 152.143C146.193 152.442 154.951 152.633 163.73 152.793C172.509 152.953 181.289 153.123 190.073 153.221C198.857 153.319 207.662 153.412 216.41 153.257C217.502 153.226 218.609 153.211 219.685 153.103C219.809 153.103 219.97 153.051 219.99 153.046L220.249 152.736C220.427 152.534 220.589 152.318 220.735 152.091C220.88 151.864 221.04 151.642 221.18 151.41L221.584 150.703C222.614 148.762 223.508 146.752 224.258 144.687C225.02 142.623 225.71 140.547 226.328 138.458C226.679 137.43 226.892 136.359 226.959 135.275L227.109 131.993C227.285 127.617 227.429 123.221 227.502 118.861C227.502 118.314 227.502 117.767 227.502 117.225C227.494 116.951 227.463 116.678 227.409 116.41L227.279 115.6L226.762 112.359L225.722 105.873Z" fill="#1F1B2D"/>
<path opacity="0.5" d="M282.234 117.009C281.093 117.966 279.883 118.837 278.613 119.615C277.355 120.425 276.072 121.188 274.8 121.968C273.527 122.747 272.213 123.469 270.915 124.192C269.616 124.914 268.297 125.621 266.957 126.286C268.204 125.461 269.471 124.671 270.739 123.887L274.567 121.575L278.426 119.32L280.361 118.196C281.009 117.838 281.634 117.442 282.234 117.009Z" fill="#1F1B2D"/>
<path opacity="0.5" d="M97.375 129.82L114.478 130.269L131.586 130.785L165.797 131.828L200.004 133.02L217.107 133.618L234.204 134.289L217.096 133.84L199.993 133.324L165.782 132.282L131.576 131.09L114.473 130.486L97.375 129.82Z" fill="#1F1B2D"/>
<path opacity="0.5" d="M96.3677 105.368L95.6952 105.404H95.5296C95.4934 105.404 95.4882 105.435 95.4675 105.486C95.4389 105.591 95.4182 105.698 95.4054 105.806C95.3632 106.243 95.3546 106.683 95.3796 107.122C95.3852 107.34 95.4042 107.557 95.4365 107.772C95.4495 107.869 95.4738 107.964 95.5089 108.056H95.5606H95.6848C96.1194 108.097 96.5694 108.107 97.0092 108.123C98.7888 108.18 100.574 108.236 102.353 108.267L105.023 108.345H106.357H106.926C106.955 108.292 106.98 108.237 106.999 108.18C107.026 108.08 107.046 107.978 107.061 107.875C107.119 107.444 107.138 107.009 107.118 106.575C107.112 106.359 107.093 106.144 107.061 105.93C107.047 105.845 107.023 105.762 106.989 105.682C106.911 105.644 106.827 105.62 106.74 105.61C105.876 105.46 104.976 105.409 104.091 105.321C104.987 105.296 105.883 105.32 106.776 105.393C106.91 105.395 107.041 105.435 107.154 105.507C107.237 105.616 107.29 105.743 107.309 105.878C107.357 106.103 107.39 106.331 107.408 106.559C107.446 107.013 107.446 107.468 107.408 107.922C107.396 108.04 107.377 108.157 107.351 108.273C107.327 108.435 107.239 108.582 107.108 108.68C107.07 108.707 107.025 108.722 106.978 108.722H106.875H106.694H105.017L102.338 108.685C100.558 108.618 98.7733 108.567 96.9937 108.438C96.5436 108.396 96.1038 108.371 95.6486 108.304C95.5813 108.3 95.5151 108.286 95.452 108.262C95.4119 108.255 95.3733 108.242 95.3382 108.221C95.3 108.19 95.2714 108.149 95.2554 108.102C95.21 107.987 95.1821 107.865 95.1726 107.741C95.1486 107.515 95.14 107.287 95.1468 107.06C95.1537 106.61 95.1969 106.161 95.2761 105.718C95.2975 105.606 95.3287 105.495 95.3692 105.388C95.3788 105.359 95.3928 105.331 95.4106 105.306C95.4232 105.289 95.4396 105.275 95.4586 105.266C95.4775 105.257 95.4983 105.253 95.5193 105.254H95.6848L96.3677 105.368Z" fill="#1F1B2D"/>
<path opacity="0.5" d="M161.833 106.983L161.166 107.019H161C160.964 107.019 160.954 107.05 160.933 107.101C160.904 107.206 160.884 107.313 160.876 107.421C160.832 107.858 160.822 108.298 160.845 108.737C160.845 108.959 160.871 109.176 160.902 109.387C160.916 109.484 160.942 109.58 160.979 109.671C160.979 109.671 160.979 109.697 160.979 109.671H161.026H161.155C161.59 109.712 162.04 109.723 162.48 109.738C164.259 109.795 166.039 109.852 167.819 109.882L170.493 109.96H171.823H172.371C172.402 109.96 172.423 109.96 172.371 109.96C172.402 109.91 172.424 109.856 172.438 109.8C172.467 109.7 172.489 109.598 172.506 109.495C172.561 109.064 172.58 108.629 172.563 108.195C172.555 107.979 172.534 107.764 172.5 107.55C172.488 107.465 172.465 107.382 172.433 107.303C172.355 107.264 172.271 107.24 172.185 107.23C171.316 107.081 170.421 107.029 169.536 106.941C170.43 106.917 171.324 106.94 172.216 107.008C172.351 107.011 172.482 107.053 172.594 107.127C172.677 107.236 172.732 107.363 172.754 107.499C172.801 107.726 172.826 107.953 172.852 108.18C172.891 108.633 172.891 109.089 172.852 109.542C172.84 109.66 172.821 109.777 172.795 109.893C172.744 110.012 172.764 110.14 172.552 110.3C172.513 110.328 172.466 110.343 172.418 110.342H172.319H172.138H170.457L167.782 110.306C165.998 110.239 164.218 110.187 162.433 110.053C161.988 110.017 161.549 109.986 161.093 109.924C161.024 109.92 160.956 109.906 160.892 109.882C160.854 109.872 160.818 109.859 160.783 109.841C160.746 109.808 160.716 109.767 160.695 109.723C160.651 109.607 160.625 109.485 160.617 109.361C160.594 109.135 160.584 108.908 160.586 108.68C160.598 108.23 160.642 107.782 160.721 107.339C160.74 107.226 160.77 107.116 160.809 107.008C160.821 106.979 160.837 106.952 160.855 106.926C160.868 106.909 160.884 106.895 160.903 106.886C160.922 106.877 160.943 106.873 160.964 106.874H161.129L161.833 106.983Z" fill="#1F1B2D"/>
</g>
<path d="M96.0826 169.633C106.025 159.717 106.025 143.639 96.0826 133.723C86.1407 123.806 70.0216 123.806 60.0796 133.723C50.1377 143.639 50.1377 159.717 60.0796 169.633C70.0216 179.549 86.1407 179.549 96.0826 169.633Z" fill="#1F1B2D"/>
<path d="M91.2236 164.787C98.4826 157.547 98.4826 145.808 91.2236 138.568C83.9646 131.328 72.1955 131.328 64.9365 138.568C57.6775 145.808 57.6775 157.547 64.9365 164.787C72.1955 172.028 83.9646 172.028 91.2236 164.787Z" fill="#D5D2DC"/>
<path d="M78.0807 168.779C87.5464 168.779 95.2199 161.125 95.2199 151.684C95.2199 142.243 87.5464 134.589 78.0807 134.589C68.6149 134.589 60.9414 142.243 60.9414 151.684C60.9414 161.125 68.6149 168.779 78.0807 168.779Z" fill="#9691A4"/>
<path d="M80.7716 147.394H75.3862C77.202 144.773 70.875 135.639 70.875 135.639L73.7152 134.7C75.5983 137.925 76.5398 138.869 78.0918 138.869C79.6438 138.869 80.5802 137.925 82.4685 134.7L85.2983 135.644C85.2983 135.644 78.9558 144.773 80.7716 147.394Z" fill="#D5D2DC"/>
<path d="M74.9348 147.719L73.2741 152.828C71.3393 150.294 60.6719 153.478 60.6719 153.478V150.5C64.3294 149.711 65.5193 149.107 66.0004 147.637C66.4815 146.166 65.8659 144.984 63.3775 142.193L65.152 139.804C65.152 139.804 71.8773 148.632 74.9348 147.719Z" fill="#D5D2DC"/>
<path d="M73.4465 153.354L77.8025 156.511C74.7864 157.543 74.5278 168.663 74.5278 168.663L71.6824 167.771C72.0549 164.055 71.8532 162.74 70.596 161.831C69.3389 160.923 68.0094 161.135 64.595 162.636L62.8516 160.216C62.8516 160.216 73.3741 156.537 73.4465 153.354Z" fill="#D5D2DC"/>
<path d="M78.3711 156.511L82.727 153.354C82.7995 156.537 93.3065 160.216 93.3065 160.216L91.5734 162.642C88.1487 161.135 86.8295 160.923 85.5775 161.831C84.3256 162.74 84.1187 164.055 84.4911 167.771L81.6458 168.663C81.6458 168.663 81.3716 157.564 78.3711 156.511Z" fill="#D5D2DC"/>
<path d="M82.8846 152.828L81.2188 147.719C84.2762 148.632 91.0481 139.804 91.0481 139.804L92.8277 142.198C90.3342 144.979 89.7237 146.166 90.1997 147.637C90.6756 149.107 91.8758 149.701 95.5334 150.506L95.5023 153.478C95.5023 153.478 84.8194 150.294 82.8846 152.828Z" fill="#D5D2DC"/>
<path d="M78.0822 156.522C80.8308 156.522 83.059 154.299 83.059 151.558C83.059 148.816 80.8308 146.594 78.0822 146.594C75.3336 146.594 73.1055 148.816 73.1055 151.558C73.1055 154.299 75.3336 156.522 78.0822 156.522Z" fill="#D5D2DC"/>
<path d="M265.113 174.004C278.329 169.236 285.168 154.684 280.388 141.501C275.607 128.319 261.018 121.498 247.802 126.266C234.585 131.034 227.746 145.586 232.527 158.768C237.307 171.951 251.897 178.772 265.113 174.004Z" fill="#1F1B2D"/>
<path d="M274.201 156.425C276.821 146.525 270.899 136.38 260.974 133.766C251.048 131.152 240.877 137.059 238.257 146.959C235.636 156.859 241.558 167.004 251.484 169.618C261.409 172.231 271.58 166.325 274.201 156.425Z" fill="#D5D2DC"/>
<path d="M256.217 168.779C265.683 168.779 273.357 161.125 273.357 151.684C273.357 142.243 265.683 134.589 256.217 134.589C246.752 134.589 239.078 142.243 239.078 151.684C239.078 161.125 246.752 168.779 256.217 168.779Z" fill="#9691A4"/>
<path d="M258.919 147.394H253.523C255.344 144.773 249.012 135.64 249.012 135.64L251.842 134.695C253.725 137.92 254.666 138.865 256.218 138.865C257.77 138.865 258.707 137.92 260.6 134.695L263.425 135.64C263.425 135.64 257.092 144.773 258.919 147.394Z" fill="#D5D2DC"/>
<path d="M253.074 147.719L251.413 152.828C249.478 150.294 238.811 153.478 238.811 153.478L238.785 150.5C242.443 149.711 243.633 149.107 244.114 147.637C244.595 146.166 243.979 144.984 241.491 142.193L243.265 139.804C243.265 139.804 250.016 148.632 253.074 147.719Z" fill="#D5D2DC"/>
<path d="M251.583 153.354L255.939 156.511C252.928 157.543 252.665 168.663 252.665 168.663L249.819 167.771C250.197 164.055 249.99 162.74 248.738 161.831C247.486 160.923 246.151 161.135 242.737 162.636L241.004 160.216C241.004 160.216 251.511 156.537 251.583 153.354Z" fill="#D5D2DC"/>
<path d="M256.5 156.511L260.856 153.354C260.928 156.537 271.43 160.216 271.43 160.216L269.697 162.642C266.272 161.135 264.953 160.923 263.701 161.831C262.449 162.74 262.242 164.055 262.615 167.771L259.77 168.663C259.77 168.663 259.511 157.564 256.5 156.511Z" fill="#D5D2DC"/>
<path d="M261.025 152.828L259.359 147.719C262.417 148.632 269.189 139.804 269.189 139.804L270.963 142.198C268.47 144.979 267.859 146.166 268.34 147.637C268.821 149.107 270.011 149.701 273.669 150.506L273.638 153.478C273.638 153.478 262.96 150.294 261.025 152.828Z" fill="#D5D2DC"/>
<path d="M256.219 156.522C258.968 156.522 261.196 154.299 261.196 151.558C261.196 148.816 258.968 146.594 256.219 146.594C253.47 146.594 251.242 148.816 251.242 151.558C251.242 154.299 253.47 156.522 256.219 156.522Z" fill="#D5D2DC"/>
<path d="M207.213 93.3738C206.287 94.3025 206.369 102.579 207.042 103.25C207.714 103.921 216.944 104.53 217.683 99.3903C218.423 94.251 208.661 91.929 207.213 93.3738Z" fill="#FDBC31"/>
<path d="M240.884 98.3228H233.378C213.843 85.4692 187.035 72.7498 187.035 72.7498L191.484 71.6816C207.713 79.5145 239.007 97.4352 239.829 97.9977C240.167 98.1474 240.521 98.2565 240.884 98.3228Z" fill="#666276"/>
<g opacity="0.5">
<path opacity="0.5" d="M47.8477 135.092C49.413 132.513 51.328 130.162 53.5383 128.106C55.7485 126.029 58.2134 124.24 60.8741 122.781C66.2394 119.873 72.265 118.393 78.3703 118.482L80.6466 118.586L81.7847 118.642C82.1624 118.684 82.54 118.745 82.9177 118.797L85.1732 119.117C85.9182 119.272 86.6528 119.468 87.3926 119.633C90.3519 120.363 93.1722 121.569 95.7423 123.204C98.2956 124.849 100.575 126.883 102.499 129.231C104.372 131.601 105.974 134.173 107.274 136.898C105.878 134.236 104.201 131.729 102.271 129.422C100.329 127.141 98.0425 125.175 95.494 123.596C90.3931 120.423 84.3352 119.132 78.3703 119.076C75.3745 119.029 72.3843 119.349 69.467 120.03C66.5514 120.722 63.7353 121.78 61.0862 123.178C58.4282 124.575 55.9567 126.3 53.7297 128.312C51.479 130.305 49.5013 132.584 47.8477 135.092Z" fill="white"/>
<path opacity="0.5" d="M226.215 135.093C227.78 132.513 229.695 130.162 231.906 128.106C234.122 126.028 236.594 124.238 239.262 122.781C244.63 119.872 250.66 118.391 256.769 118.482L259.045 118.586L260.183 118.642C260.561 118.684 260.938 118.746 261.311 118.797L263.571 119.117C264.311 119.272 265.051 119.468 265.791 119.633C268.75 120.363 271.57 121.569 274.141 123.204C276.694 124.849 278.973 126.883 280.897 129.231C282.77 131.601 284.372 134.173 285.672 136.898C284.192 134.277 282.666 131.671 280.669 129.422C278.725 127.143 276.439 125.178 273.892 123.596C268.791 120.423 262.733 119.133 256.763 119.076C253.769 119.029 250.781 119.35 247.865 120.03C242.005 121.427 236.592 124.276 232.128 128.312C229.865 130.301 227.876 132.581 226.215 135.093Z" fill="white"/>
<path opacity="0.5" d="M51.5195 92.9505C55.4875 89.8545 59.5123 86.8256 63.5631 83.838C67.6138 80.8503 71.7111 77.9143 75.9273 75.1331C76.4447 74.7977 76.993 74.4571 77.5466 74.1423C77.8208 73.9772 78.1001 73.8224 78.395 73.678C78.6919 73.5335 79.002 73.4177 79.321 73.3322C80.542 72.9762 81.7629 72.6666 82.9838 72.3622C85.4359 71.7584 87.8881 71.1805 90.3661 70.7006C92.8531 70.2245 95.3768 69.9656 97.9089 69.9266C100.433 69.875 102.953 69.8802 105.472 69.9989C102.953 69.9989 100.433 70.0711 97.9244 70.2259C95.4154 70.3193 92.9194 70.6301 90.4644 71.1547C88.0123 71.7068 85.5549 72.2693 83.1235 72.8936C81.9025 73.2084 80.6816 73.5231 79.5021 73.8843C79.2124 73.9618 78.9316 74.069 78.664 74.2043C78.395 74.3436 78.1208 74.4932 77.857 74.6532C77.3397 74.968 76.7913 75.3033 76.2636 75.6439C72.0473 78.3684 67.9863 81.3199 63.8476 84.2147L51.5195 92.9505Z" fill="white"/>
</g>
<path opacity="0.1" d="M249.013 126.207C229.51 130.655 229.225 152.688 229.225 156.729C229.225 156.729 106.669 153.942 106.167 153.839C105.758 153.751 105.883 134.463 91.418 127.11C97.9157 130.315 106.24 138.075 109.39 149.407C109.732 150.614 127.58 152.503 158.087 153.478C188.594 154.453 215.112 153.839 220.167 153.132C225.221 152.425 231.082 126.13 249.013 126.207Z" fill="#1F1B2D"/>
<path opacity="0.1" d="M310.892 139.599C310.623 140.373 304.89 147.339 304.865 147.524C304.839 147.71 304.663 149.64 304.559 149.846C304.456 150.053 298.796 155.006 297.989 155.182C297.182 155.357 293.882 155.45 293.416 155.584C292.95 155.719 287.208 159.48 286.742 159.681C286.277 159.883 283.509 159.681 282.702 159.681C282.459 159.681 283.219 154.826 283.075 150.393C282.852 142.695 278.139 133.004 268.879 128.272C273.902 129.341 282.283 136.183 285.666 143.236C289.05 150.29 288.181 150.811 288.972 151.663C289.764 152.514 292.387 150.796 293.597 150.491C294.808 150.187 298.77 150.089 300.271 149.79C301.771 149.49 302.03 146.766 303.069 146.178C304.109 145.589 309.391 141.379 310.892 139.599Z" fill="#1F1B2D"/>
<path d="M182.354 21.7537C181.713 15.314 177.264 8.90527 169.421 8.90527C161.578 8.90527 157.16 15.314 156.519 21.7537C155.531 31.6918 162.256 40.696 169.421 48.9108C176.591 40.696 183.317 31.6918 182.354 21.7537ZM169.421 28.9209C168.022 28.9199 166.655 28.5052 165.493 27.7293C164.331 26.9534 163.425 25.8511 162.891 24.5618C162.356 23.2725 162.217 21.8541 162.491 20.486C162.765 19.1179 163.44 17.8616 164.429 16.8758C165.419 15.8901 166.68 15.2192 168.052 14.948C169.424 14.6768 170.846 14.8176 172.137 15.3524C173.429 15.8872 174.533 16.7921 175.309 17.9527C176.085 19.1132 176.499 20.4773 176.498 21.8724C176.499 22.799 176.316 23.7168 175.961 24.5729C175.605 25.4291 175.084 26.2068 174.426 26.8616C173.769 27.5164 172.988 28.0354 172.129 28.3887C171.271 28.7421 170.35 28.923 169.421 28.9209Z" fill="#FD5631"/>
<path opacity="0.3" d="M128.482 202.03C89.5534 202.03 57.9954 197.819 57.9954 192.623C57.9954 187.428 89.5534 183.217 128.482 183.217C167.411 183.217 198.969 187.428 198.969 192.623C198.969 197.819 167.411 202.03 128.482 202.03Z" fill="#5D3CF2"/>
<path d="M151.888 194.588C150.854 194.913 122.105 194.542 121.019 193.83C120.6 193.567 120.414 189.382 120.326 184.32V184.16C120.326 183.128 120.295 182.044 120.29 180.956C120.29 180.806 120.29 180.656 120.29 180.507L121.671 165.62L140.921 165.811L139.022 180.558L138.996 181.141L138.883 184.196V184.511C138.883 184.511 149.829 189.563 150.942 190.471C152.054 191.379 152.897 194.294 151.888 194.588Z" fill="#FFC3B0"/>
<path d="M151.889 194.589C150.854 194.915 122.106 194.543 121.019 193.831C120.6 193.568 120.414 189.383 120.326 184.321V184.161C120.326 183.129 120.295 182.045 120.29 180.957C120.29 180.807 120.29 180.657 120.29 180.508L139.038 180.559L139.012 181.142L138.898 184.197V184.512C138.898 184.512 149.845 189.564 150.957 190.472C152.07 191.38 152.897 194.295 151.889 194.589Z" fill="#EBEBEB"/>
<path d="M151.888 194.584C151.371 194.754 143.554 194.733 135.913 194.584C134.361 194.553 132.851 194.522 131.392 194.48C125.944 194.331 121.438 194.109 121.045 193.835C120.652 193.562 120.44 189.506 120.357 184.547C120.357 184.475 120.357 184.408 120.357 184.336C120.357 184.264 120.357 184.227 120.357 184.176L138.903 184.207V184.527C138.903 184.527 149.855 189.578 150.962 190.481C152.069 191.384 152.897 194.264 151.888 194.584Z" fill="#FD5631"/>
<path d="M151.575 193.469C146.723 193.288 127.152 193.015 122.346 193.201C122.305 193.201 122.305 193.227 122.346 193.232C127.147 193.515 146.723 193.634 151.57 193.552C151.674 193.546 151.674 193.474 151.575 193.469Z" fill="#1F1B2D"/>
<path d="M140.955 184.274C139.051 183.897 136.712 184.155 135.264 185.497C135.207 185.548 135.264 185.626 135.341 185.61C137.173 185.045 139.06 184.679 140.97 184.516C140.998 184.509 141.022 184.492 141.039 184.469C141.056 184.446 141.064 184.417 141.062 184.389C141.06 184.36 141.049 184.333 141.029 184.312C141.009 184.291 140.983 184.277 140.955 184.274Z" fill="#1F1B2D"/>
<path d="M142.32 185.119C140.416 184.743 138.078 185.001 136.603 186.337C136.546 186.394 136.603 186.471 136.681 186.451C138.512 185.888 140.399 185.523 142.309 185.362C142.338 185.358 142.364 185.343 142.383 185.322C142.402 185.301 142.413 185.274 142.414 185.245C142.415 185.216 142.406 185.188 142.389 185.165C142.372 185.143 142.348 185.126 142.32 185.119Z" fill="#1F1B2D"/>
<path d="M143.693 185.967C141.789 185.586 139.451 185.849 137.971 187.185C137.914 187.237 137.971 187.319 138.054 187.299C139.884 186.735 141.769 186.37 143.677 186.21C143.706 186.206 143.732 186.193 143.752 186.172C143.771 186.151 143.783 186.124 143.785 186.095C143.787 186.066 143.779 186.038 143.762 186.015C143.745 185.991 143.721 185.975 143.693 185.967Z" fill="#1F1B2D"/>
<path d="M135.91 194.58C134.358 194.549 132.848 194.518 131.389 194.476C125.941 194.327 121.435 194.105 121.042 193.831C120.649 193.558 120.437 189.502 120.354 184.543C120.354 184.471 120.354 184.404 120.354 184.332C120.354 184.26 120.354 184.223 120.354 184.172C122.884 185.937 131.839 191.881 135.91 194.58Z" fill="#1F1B2D"/>
<path d="M140.153 184.258H119.429C119.429 184.258 123.604 135.986 123.438 135.14C123.231 134.061 122.01 129.175 120.381 122.792L118.751 116.43C117.199 110.428 115.502 103.865 114.017 98.1528C111.788 89.5924 110.049 82.9463 110.049 82.9463H127.639C127.639 82.9463 129.708 89.4169 132.264 97.838C136.47 111.522 142.093 130.346 142.641 134.938C143.511 142.328 140.153 184.258 140.153 184.258Z" fill="#455A64"/>
<path d="M139.258 180.733C136.092 180.666 137.002 180.64 133.836 180.609C132.284 180.609 122.108 180.506 120.66 180.743C120.629 180.743 120.629 180.805 120.66 180.81C122.108 181.048 132.284 180.96 133.836 180.945C137.002 180.914 136.092 180.888 139.258 180.826C139.294 180.821 139.294 180.733 139.258 180.733Z" fill="#1F1B2D"/>
<path d="M127.359 132.194C126.681 129.207 125.667 126.276 124.772 123.345C122.975 117.383 121.168 111.427 119.35 105.476C118.443 102.5 117.533 99.5246 116.619 96.549C116.153 95.0474 115.693 93.5459 115.217 92.0495C114.741 90.5531 114.234 89.1289 113.815 87.648C113.649 87.0443 113.556 87.3745 113.774 88.164C114.208 89.712 114.643 91.26 115.093 92.808C115.983 95.8524 116.881 98.8968 117.788 101.941C119.582 107.996 121.392 114.047 123.22 120.094L125.967 129.186C126.427 130.63 126.8 132.1 127.085 133.587C127.331 135.143 127.392 136.723 127.266 138.293C127.069 141.456 126.702 144.614 126.407 147.772C126.112 150.93 125.822 154.093 125.527 157.256C124.948 163.545 124.37 169.836 123.794 176.132C123.722 176.926 123.65 177.726 123.587 178.526C123.587 178.789 123.975 178.768 124.001 178.526C124.684 172.303 125.207 166.059 125.796 159.831C126.386 153.603 126.96 147.447 127.54 141.229C127.685 139.681 127.85 138.133 127.855 136.549C127.855 135.084 127.689 133.623 127.359 132.194Z" fill="#1F1B2D"/>
<path d="M125.621 82.9463C124.4 92.3581 122.077 109.995 120.381 122.792C116.418 107.286 110.034 82.9463 110.034 82.9463H125.621Z" fill="#1F1B2D"/>
<path d="M129.947 194.862C128.944 195.192 100.17 194.924 99.0781 194.217C98.6591 193.959 98.4573 189.774 98.3539 184.712V184.552C98.3539 183.52 98.3125 182.436 98.3073 181.348C98.3073 181.198 98.3073 181.048 98.3073 180.899C98.2401 173.592 98.7677 166.007 98.7677 166.007L117.578 166.131L117.014 180.878V181.461L116.905 184.516V184.825C116.905 184.825 127.873 189.846 128.99 190.744C130.108 191.642 130.941 194.537 129.947 194.862Z" fill="#FFC3B0"/>
<path d="M129.947 194.862C128.944 195.192 100.17 194.923 99.0781 194.217C98.6591 193.959 98.4573 189.774 98.3538 184.712V184.552C98.3538 183.52 98.3125 182.436 98.3073 181.347C98.3073 181.198 98.3073 181.048 98.3073 180.899L117.014 180.878V181.461L116.905 184.516V184.825C116.905 184.825 127.873 189.846 128.99 190.744C130.108 191.642 130.941 194.536 129.947 194.862Z" fill="#EBEBEB"/>
<path d="M129.949 194.862C128.945 195.192 100.171 194.924 99.0796 194.217C98.6606 193.959 98.4588 189.774 98.3554 184.712V184.552L116.917 184.521V184.831C116.917 184.831 127.885 189.852 129.002 190.75C130.12 191.647 130.942 194.537 129.949 194.862Z" fill="#FD5631"/>
<path d="M129.618 193.747C124.77 193.582 105.194 193.381 100.388 193.582C100.352 193.582 100.352 193.613 100.388 193.613C105.194 193.882 124.77 193.928 129.618 193.825C129.721 193.825 129.721 193.778 129.618 193.747Z" fill="#1F1B2D"/>
<path d="M118.971 184.594C117.062 184.217 114.729 184.491 113.28 185.833C113.223 185.884 113.28 185.962 113.363 185.946C115.192 185.374 117.077 185 118.986 184.832C119.018 184.829 119.047 184.815 119.068 184.791C119.089 184.768 119.099 184.737 119.097 184.705C119.095 184.674 119.081 184.644 119.057 184.623C119.033 184.603 119.002 184.592 118.971 184.594Z" fill="#1F1B2D"/>
<path d="M120.337 185.436C118.433 185.059 116.095 185.333 114.646 186.674C114.589 186.726 114.646 186.803 114.724 186.788C116.553 186.216 118.438 185.842 120.347 185.673C120.379 185.672 120.408 185.658 120.43 185.635C120.451 185.612 120.462 185.581 120.461 185.549C120.459 185.518 120.446 185.488 120.422 185.467C120.399 185.446 120.368 185.435 120.337 185.436Z" fill="#1F1B2D"/>
<path d="M121.704 186.271C119.8 185.899 117.462 186.173 116.014 187.514C115.957 187.566 116.014 187.643 116.091 187.628C117.905 187.059 119.775 186.686 121.668 186.513C121.698 186.513 121.727 186.503 121.75 186.483C121.772 186.464 121.787 186.437 121.792 186.408C121.796 186.378 121.79 186.348 121.774 186.323C121.758 186.298 121.733 186.279 121.704 186.271Z" fill="#1F1B2D"/>
<path d="M127.043 82.9471C127.043 82.9471 126.639 91.3321 124.715 97.9679C124.56 98.5149 124.394 99.0566 124.198 99.5726C122.437 100.279 120.743 101.142 119.138 102.153C119.138 102.153 118.936 108.897 118.735 116.415C118.507 124.826 118.274 134.201 118.321 136.188C118.497 143.629 117.39 184.548 117.39 184.548L96.6962 184.63C96.6962 184.63 100.442 138.938 100.416 136.214C100.38 131.833 101.419 112.478 102.226 98.3446C102.744 89.6396 103.121 82.9316 103.121 82.9316L127.043 82.9471Z" fill="#455A64"/>
<path d="M116.699 180.879C113.533 180.822 114.444 180.797 111.278 180.776C109.726 180.776 99.5496 180.724 98.1011 180.972C98.0928 180.972 98.085 180.975 98.0791 180.981C98.0733 180.987 98.07 180.995 98.07 181.003C98.07 181.011 98.0733 181.019 98.0791 181.025C98.085 181.031 98.0928 181.034 98.1011 181.034C99.5496 181.266 109.731 181.137 111.278 181.111C114.444 181.07 113.533 181.049 116.699 180.967C116.708 180.964 116.716 180.958 116.722 180.95C116.727 180.942 116.73 180.933 116.73 180.923C116.73 180.913 116.727 180.904 116.722 180.896C116.716 180.888 116.708 180.882 116.699 180.879Z" fill="#1F1B2D"/>
<path d="M104.857 85.9346C104.474 97.462 104.07 108.989 103.553 120.507C103.035 132.024 102.337 143.629 101.365 155.161C100.847 161.606 100.33 170.672 99.6159 177.101C99.6159 177.143 99.678 177.158 99.6832 177.101C101.194 165.667 102.032 151.523 102.787 140.017C103.542 128.51 104.029 116.982 104.422 105.445C104.644 98.9223 104.815 92.4052 105.012 85.883C105.001 85.8417 104.862 85.852 104.857 85.9346Z" fill="#1F1B2D"/>
<path d="M125.079 99.0782C123.017 99.9353 121.035 100.971 119.155 102.174C119.139 102.182 119.126 102.197 119.12 102.214C119.114 102.232 119.116 102.251 119.124 102.267C119.132 102.283 119.147 102.296 119.164 102.302C119.182 102.308 119.201 102.306 119.217 102.298C121.214 101.328 123.258 100.394 125.198 99.3207C125.23 99.305 125.254 99.2771 125.266 99.2432C125.278 99.2094 125.275 99.1723 125.26 99.1401C125.244 99.1079 125.216 99.0834 125.182 99.0718C125.148 99.0601 125.111 99.0625 125.079 99.0782Z" fill="#1F1B2D"/>
<path d="M126.325 89.8055C126.159 90.693 125.947 91.5702 125.756 92.4474C125.564 93.3246 125.44 94.1193 125.238 94.9345C125.056 95.7181 124.654 96.4339 124.08 96.9985C123.754 97.2978 123.397 97.5661 123.045 97.8396L122.46 98.2834C122.486 98.1647 122.507 98.046 122.528 97.9273L122.698 96.9211C122.828 96.1729 122.947 95.4247 123.06 94.6765C123.283 93.2059 123.49 91.7199 123.8 90.2648C123.8 90.2524 123.795 90.2406 123.787 90.2319C123.778 90.2232 123.766 90.2183 123.754 90.2183C123.741 90.2183 123.73 90.2232 123.721 90.2319C123.712 90.2406 123.707 90.2524 123.707 90.2648C123.34 91.7044 122.936 93.1337 122.616 94.5888C122.46 95.3009 121.902 98.82 121.876 99.0728C121.85 99.3257 121.829 99.5888 121.819 99.8468C121.783 100.109 121.783 100.374 121.819 100.636C121.819 100.698 121.912 100.688 121.938 100.636C122.043 100.39 122.118 100.132 122.16 99.8675C122.228 99.6176 122.284 99.3644 122.326 99.109L122.372 98.8252C122.719 98.6136 123.04 98.335 123.366 98.1028C123.692 97.8706 124.074 97.5868 124.4 97.3236C125.013 96.8075 125.455 96.1186 125.668 95.3473C125.884 94.5173 126.022 93.6692 126.082 92.8138C126.196 91.8179 126.278 90.8117 126.418 89.8107C126.418 89.7694 126.325 89.7436 126.325 89.8055Z" fill="#1F1B2D"/>
<path d="M140.551 43.623L138.057 57.1061C137.938 57.5086 138.155 57.813 138.538 57.7872L145.403 57.3486C145.612 57.3182 145.808 57.23 145.969 57.0941C146.13 56.9582 146.249 56.78 146.314 56.5798L148.807 43.0915C148.926 42.6942 148.709 42.3898 148.326 42.4156L141.461 42.8542C141.252 42.8835 141.056 42.9712 140.894 43.1073C140.733 43.2433 140.614 43.4222 140.551 43.623Z" fill="#454056"/>
<path d="M141.368 43.5356L138.869 57.0393C138.75 57.4366 138.968 57.7411 139.351 57.7153L146.221 57.2767C146.429 57.2471 146.625 57.1591 146.785 57.0231C146.945 56.887 147.064 56.7083 147.126 56.5078L149.604 43.0093C149.723 42.6068 149.506 42.3075 149.123 42.3282L142.253 42.7719C142.049 42.8041 141.857 42.8927 141.701 43.0277C141.545 43.1626 141.429 43.3386 141.368 43.5356Z" fill="#455A64"/>
<path d="M143.289 44.0198C143.294 44.1352 143.264 44.2495 143.204 44.3482C143.144 44.4468 143.056 44.5255 142.951 44.5741C142.846 44.6227 142.728 44.6391 142.614 44.6213C142.5 44.6034 142.393 44.552 142.308 44.4737C142.223 44.3953 142.163 44.2935 142.136 44.1812C142.109 44.0689 142.116 43.9511 142.156 43.8428C142.196 43.7345 142.268 43.6405 142.362 43.5728C142.456 43.5051 142.567 43.4667 142.683 43.4625C142.76 43.459 142.836 43.4708 142.908 43.497C142.98 43.5232 143.046 43.5633 143.102 43.6152C143.159 43.667 143.204 43.7294 143.236 43.7989C143.268 43.8683 143.286 43.9434 143.289 44.0198Z" fill="#1F1B2D"/>
<path d="M119.715 65.1096C124.061 73.154 133.388 83.3966 136.999 83.2418C138.717 83.1696 141.811 83.4121 143.958 81.3172C148.639 76.7506 152.297 68.3036 152.871 63.5513C153.078 61.864 144.713 58.6854 143.585 60.1147C140.942 63.4636 138.003 69.9187 137.501 69.9187C135.649 69.8774 128.086 64.2737 122.804 60.3263C116.394 55.4913 117.982 61.9052 119.715 65.1096Z" fill="#FFC3B0"/>
<path d="M152.594 54.8909C151.559 51.5421 150.752 50.8403 151.373 47.5431C151.776 45.381 150.566 44.1942 149.143 45.9951C146.815 48.9363 147.265 53.5441 147.881 55.0921L152.594 54.8909Z" fill="#FFC3B0"/>
<path d="M152.554 65.0309C152.554 65.0309 153.811 60.2114 153.046 56.5323C152.528 53.9885 150.738 48.5756 143.377 46.0782C141.628 45.4848 138.721 45.8769 141.22 47.879C142.994 49.298 144.551 49.6644 145.436 50.6809C145.436 50.6809 141.789 51.6149 141.261 53.3847C140.804 54.9321 140.459 56.5099 140.226 58.1061C140.51 58.2151 140.8 58.3065 141.095 58.3796C141.095 58.3796 140.65 60.0515 142.001 62.3115L152.554 65.0309Z" fill="#FFC3B0"/>
<path d="M152.152 54.1843C151.061 53.3587 148.722 51.6559 146.327 50.9231C143.663 50.113 138.308 49.2616 137.729 51.2327C137.305 52.6724 139.317 53.1781 139.317 53.1781C139.317 53.1781 137.031 53.2916 136.932 54.6796C136.844 55.9438 138.427 56.2276 138.427 56.2276C138.427 56.2276 137.051 56.5372 137.201 57.7756C137.377 59.2617 140.228 58.3742 141.713 59.721C142.044 60.0306 152.152 54.1843 152.152 54.1843Z" fill="#FFC3B0"/>
<path d="M145.934 53.8765C143.868 52.9716 141.574 52.7143 139.358 53.1386C139.301 53.1386 139.286 53.2006 139.358 53.2006C141.576 53.1678 143.789 53.4034 145.949 53.9023C145.949 53.9023 145.949 53.8817 145.934 53.8765Z" fill="#1F1B2D"/>
<path d="M145.031 56.5222C142.9 55.8177 140.618 55.6983 138.425 56.1765C138.368 56.1765 138.353 56.2435 138.425 56.2384C140.637 56.0921 142.858 56.196 145.047 56.548C145.047 56.548 145.047 56.5222 145.031 56.5222Z" fill="#1F1B2D"/>
<path d="M153.141 66.9927C153.141 66.9927 147.171 80.5325 143.368 82.2715C139.566 84.0104 137.222 83.8195 135.763 83.6595C135.206 83.5555 134.676 83.3339 134.211 83.0093C130.14 80.4293 122.582 70.9453 119.426 65.5479C117.062 61.4973 117.093 57.7047 120.399 58.747C121.522 59.152 122.571 59.7395 123.503 60.4859C129.711 65.1299 136.907 69.5056 137.227 69.3147C137.548 69.1238 140.673 63.5303 140.673 63.5303L153.141 66.9927Z" fill="#FD5631"/>
<path d="M137.738 72.1523C137.67 72.7614 137.759 73.3776 137.996 73.9428C138.038 73.6398 138.038 73.3326 137.996 73.0295C137.953 72.7261 137.866 72.4306 137.738 72.1523Z" fill="white"/>
<path d="M145.529 75.502C145.488 75.805 145.488 76.1122 145.529 76.4153C145.569 76.718 145.653 77.0134 145.778 77.2925C145.819 76.9894 145.819 76.6822 145.778 76.3792C145.735 76.0768 145.652 75.7816 145.529 75.502Z" fill="white"/>
<path d="M131.793 78.7686C131.751 79.0716 131.751 79.3788 131.793 79.6819C131.832 79.9848 131.916 80.2803 132.041 80.5591C132.115 79.9499 132.026 79.3321 131.782 78.7686H131.793Z" fill="white"/>
<path d="M128.021 65.4648C127.98 65.7679 127.98 66.0751 128.021 66.3782C128.061 66.681 128.145 66.9766 128.27 67.2554C128.311 66.9523 128.311 66.6451 128.27 66.342C128.229 66.0393 128.146 65.7439 128.021 65.4648Z" fill="white"/>
<path d="M126.806 70.9189C127.417 70.9862 128.035 70.8974 128.602 70.6609C128.298 70.6196 127.99 70.6196 127.686 70.6609C127.382 70.7043 127.086 70.7912 126.806 70.9189Z" fill="white"/>
<path d="M142.704 72.5186C143.007 72.56 143.315 72.56 143.619 72.5186C143.924 72.4803 144.222 72.3986 144.504 72.2761C144.2 72.2296 143.892 72.2296 143.588 72.2761C143.283 72.3145 142.985 72.3961 142.704 72.5186Z" fill="white"/>
<path d="M134.603 77.2466C134.907 77.2932 135.216 77.2932 135.519 77.2466C135.822 77.2089 136.119 77.1272 136.398 77.0041C135.788 76.932 135.17 77.0191 134.603 77.2569V77.2466Z" fill="white"/>
<path d="M149.989 67.8234C150.292 67.8673 150.601 67.8673 150.904 67.8234C151.209 67.785 151.507 67.7034 151.789 67.5808C151.485 67.5395 151.177 67.5395 150.873 67.5808C150.568 67.6193 150.271 67.701 149.989 67.8234Z" fill="white"/>
<path d="M142.118 81.6823C142.73 81.7542 143.35 81.6671 143.918 81.4295C143.615 81.3829 143.306 81.3829 143.002 81.4295C142.697 81.4711 142.399 81.5562 142.118 81.6823Z" fill="white"/>
<path d="M118.75 59.1899C118.499 59.3006 118.235 59.377 117.964 59.4169C118.004 59.3315 118.052 59.2503 118.108 59.1744C118.322 59.1512 118.538 59.1564 118.75 59.1899Z" fill="white"/>
<path d="M133.863 68.8242C133.622 69.0123 133.408 69.2329 133.227 69.4795C133.038 69.7208 132.887 69.9886 132.777 70.2742C133.021 70.0887 133.235 69.8678 133.413 69.6189C133.604 69.3791 133.756 69.1109 133.863 68.8242Z" fill="white"/>
<path d="M141.328 76.3936C141.085 76.5816 140.869 76.8021 140.687 77.0489C140.5 77.2912 140.348 77.5587 140.237 77.8435C140.482 77.658 140.698 77.4371 140.878 77.1882C141.065 76.9459 141.217 76.6783 141.328 76.3936Z" fill="white"/>
<path d="M145.586 66.3633C145.343 66.5495 145.127 66.7683 144.944 67.0134C144.757 67.2557 144.606 67.5233 144.494 67.8081C144.74 67.6226 144.956 67.4017 145.136 67.1528C145.322 66.9116 145.473 66.6459 145.586 66.3633Z" fill="white"/>
<path d="M129.145 75.4502C128.903 75.6383 128.689 75.8589 128.508 76.1055C128.32 76.3468 128.168 76.6146 128.058 76.9002C128.539 76.5175 128.913 76.0182 129.145 75.4502Z" fill="white"/>
<path d="M123.523 62.7129C123.279 62.8977 123.063 63.1167 122.882 63.3631C122.695 63.6054 122.543 63.8729 122.432 64.1577C122.675 63.9715 122.891 63.7527 123.073 63.5075C123.258 63.2638 123.41 62.9966 123.523 62.7129Z" fill="white"/>
<path d="M123.156 68.9433C122.778 68.4592 122.278 68.0836 121.708 67.8545C121.893 68.0979 122.113 68.3134 122.36 68.4943C122.604 68.6787 122.872 68.8297 123.156 68.9433Z" fill="white"/>
<path d="M149.57 71.9266C149.384 71.6821 149.163 71.4664 148.913 71.2868C148.67 71.1003 148.402 70.9492 148.117 70.8379C148.498 71.3207 148.999 71.696 149.57 71.9266Z" fill="white"/>
<path d="M141.441 69.484C141.256 69.2421 141.036 69.0284 140.79 68.8493C140.548 68.6612 140.279 68.51 139.993 68.4004C140.18 68.641 140.399 68.8546 140.645 69.0351C140.887 69.2223 141.155 69.3735 141.441 69.484Z" fill="white"/>
<path d="M132.492 74.485C132.307 74.2431 132.087 74.0293 131.84 73.8503C131.598 73.6622 131.33 73.5109 131.044 73.4014C131.23 73.642 131.45 73.8556 131.695 74.036C131.939 74.2215 132.207 74.3725 132.492 74.485Z" fill="white"/>
<path d="M137.879 81.941C137.69 81.7003 137.469 81.4867 137.222 81.3063C136.981 81.1161 136.713 80.9646 136.425 80.8574C136.612 81.0994 136.834 81.3132 137.082 81.4921C137.324 81.6802 137.593 81.8315 137.879 81.941Z" fill="white"/>
<path opacity="0.1" d="M134.188 83.0094C130.116 80.4294 122.558 70.9453 119.402 65.5479C117.038 61.4973 117.069 57.7047 120.375 58.747C122.185 61.9307 130.225 75.8731 134.188 83.0094Z" fill="#1F1B2D"/>
<path d="M151.617 69.4852C151.162 69.2633 146.873 67.865 145.926 67.5812C144.979 67.2974 141.172 66.1002 140.179 65.8887C140.172 65.8914 140.166 65.896 140.162 65.902C140.158 65.9079 140.156 65.915 140.156 65.9222C140.156 65.9294 140.158 65.9365 140.162 65.9425C140.166 65.9485 140.172 65.9531 140.179 65.9558C141.11 66.3479 144.959 67.5657 145.911 67.8753C146.862 68.1849 151.125 69.4749 151.601 69.5523C151.643 69.5574 151.648 69.5007 151.617 69.4852Z" fill="#1F1B2D"/>
<path d="M130.983 93.1997C130.569 93.7157 101.381 95.5321 101.221 95.3566C100.781 94.8922 107.594 62.9054 113.833 57.25C115.173 56.0374 119.26 56.9869 120.388 57.8796C121.097 58.442 122.933 62.2862 124.221 65.4906C126.787 71.9096 131.35 92.7457 130.983 93.1997Z" fill="#1F1B2D"/>
<path d="M119.635 56.6465C120.887 57.3689 122.278 61.6672 119.718 62.5651C117.157 63.4629 114.234 59.6032 113.722 58.3029C113.21 57.0026 116.94 55.0934 119.635 56.6465Z" fill="#FD5631"/>
<path d="M119.461 61.988C117.852 62.3853 115.064 59.9549 113.947 57.9786C113.874 57.8393 114.066 56.3997 114.221 54.6401C114.309 53.572 114.386 52.3801 114.376 51.2861L121.262 52.8806C120.884 54.2517 120.677 55.6642 120.646 57.086C120.647 57.2353 120.665 57.3841 120.698 57.5297C120.696 57.5555 120.696 57.5814 120.698 57.6071C120.853 58.4585 121.013 61.601 119.461 61.988Z" fill="#FFC3B0"/>
<path d="M114.701 51.3623C114.928 52.7297 116.02 57.6059 119.998 57.6575C120.235 57.6588 120.472 57.6433 120.707 57.6111C120.71 57.5854 120.71 57.5593 120.707 57.5337C120.676 57.3876 120.659 57.2391 120.655 57.0899C120.693 55.668 120.903 54.2559 121.281 52.8845L114.701 51.3623Z" fill="#1F1B2D"/>
<path d="M114.027 42.7553C113.122 45.1289 113.939 52.2239 115.579 53.9009C117.933 56.3312 122.025 56.8214 124.156 53.9422C126.226 51.1558 124.995 41.9297 123.158 40.3817C120.437 38.101 115.362 39.2413 114.027 42.7553Z" fill="#FFC3B0"/>
<path d="M120.459 47.4883C120.459 47.4883 120.423 47.4883 120.428 47.5347C120.495 48.0094 120.495 48.5667 120.076 48.7731C120.076 48.7731 120.076 48.8041 120.076 48.7989C120.604 48.6699 120.599 47.932 120.459 47.4883Z" fill="#1F1B2D"/>
<path d="M119.976 47.0334C119.2 47.0644 119.308 48.6124 120.028 48.5814C120.747 48.5504 120.633 47.0128 119.976 47.0334Z" fill="#1F1B2D"/>
<path d="M123.152 47.3125C123.152 47.3125 123.189 47.3125 123.194 47.3538C123.194 47.8337 123.313 48.3858 123.758 48.5096V48.5406C123.22 48.4993 123.09 47.7511 123.152 47.3125Z" fill="#1F1B2D"/>
<path d="M123.548 46.7818C124.319 46.6735 124.485 48.2163 123.776 48.3298C123.067 48.4433 122.902 46.8799 123.548 46.7818Z" fill="#1F1B2D"/>
<path d="M119.314 46.3725C119.521 46.3003 119.702 46.2074 119.898 46.1197C120.118 46.0578 120.311 45.9254 120.447 45.743C120.479 45.6782 120.488 45.6047 120.474 45.5339C120.46 45.4631 120.423 45.3988 120.369 45.3508C120.243 45.2784 120.101 45.2402 119.955 45.2402C119.81 45.2402 119.667 45.2784 119.541 45.3508C119.261 45.4522 119.028 45.6547 118.89 45.9184C118.869 45.9787 118.864 46.0436 118.878 46.1061C118.891 46.1686 118.921 46.2263 118.964 46.2731C119.008 46.3198 119.064 46.3537 119.125 46.3713C119.187 46.3888 119.252 46.3892 119.314 46.3725Z" fill="#1F1B2D"/>
<path d="M124.108 46.3064C123.898 46.279 123.689 46.2411 123.482 46.1929C123.254 46.1807 123.037 46.0957 122.861 45.9504C122.817 45.8927 122.793 45.8219 122.793 45.7491C122.793 45.6763 122.817 45.6056 122.861 45.5479C122.963 45.4458 123.091 45.3729 123.231 45.3366C123.371 45.3003 123.519 45.302 123.658 45.3415C123.954 45.376 124.227 45.5195 124.424 45.744C124.465 45.7984 124.49 45.8638 124.495 45.9322C124.5 46.0006 124.485 46.0689 124.451 46.1288C124.418 46.1886 124.367 46.2373 124.306 46.2689C124.245 46.3004 124.176 46.3135 124.108 46.3064Z" fill="#1F1B2D"/>
<path d="M120.375 50.5306C120.511 50.7111 120.682 50.862 120.879 50.9738C121.076 51.0857 121.293 51.1561 121.518 51.1807C121.714 51.2065 121.912 51.2065 122.108 51.1807H122.222L122.325 51.1549C122.351 51.149 122.373 51.1345 122.389 51.1138C122.405 51.0931 122.414 51.0675 122.413 51.0414C122.416 51.026 122.416 51.0103 122.413 50.995V50.9537C122.413 50.5822 122.32 50.0249 122.32 50.0249C122.46 50.0816 123.174 50.3448 123.148 50.1539C122.988 48.4909 122.658 46.8484 122.165 45.2519C122.162 45.2428 122.156 45.2349 122.148 45.2293C122.14 45.2237 122.131 45.2207 122.121 45.2207C122.111 45.2207 122.102 45.2237 122.094 45.2293C122.086 45.2349 122.08 45.2428 122.077 45.2519C122.217 46.7999 122.625 48.2911 122.791 49.834C122.538 49.7333 122.271 49.6724 121.999 49.6534C121.948 49.6534 122.165 50.7318 122.16 50.8969C121.858 50.9491 121.55 50.9403 121.252 50.8712C120.954 50.802 120.674 50.6739 120.427 50.4944C120.38 50.4583 120.344 50.4944 120.375 50.5306Z" fill="#1F1B2D"/>
<path d="M121.828 51.0853C121.623 51.344 121.354 51.545 121.047 51.6684C120.879 51.7208 120.698 51.7208 120.53 51.6684C120.152 51.5652 120.147 51.2143 120.219 50.915C120.262 50.7572 120.323 50.6049 120.4 50.4609C120.798 50.8153 121.298 51.034 121.828 51.0853Z" fill="#1F1B2D"/>
<path d="M121.047 51.6665C120.878 51.7188 120.698 51.7188 120.53 51.6665C120.152 51.5632 120.147 51.2124 120.219 50.9131C120.422 50.9268 120.615 51.0088 120.765 51.1456C120.915 51.2825 121.015 51.466 121.047 51.6665Z" fill="#F392B9"/>
<path d="M115.61 48.3638C115.61 48.3638 114.131 46.0211 113.07 46.5371C112.01 47.0531 113.07 50.402 114.244 50.9076C114.392 50.9834 114.554 51.0286 114.72 51.0405C114.885 51.0524 115.052 51.0306 115.209 50.9766C115.366 50.9226 115.51 50.8375 115.634 50.7263C115.757 50.6151 115.856 50.4802 115.926 50.3297L115.61 48.3638Z" fill="#FFC3B0"/>
<path d="M113.392 47.4932C113.392 47.4932 113.392 47.4932 113.392 47.5241C113.772 47.7355 114.104 48.0244 114.365 48.372C114.626 48.7196 114.811 49.1182 114.908 49.5417C114.863 49.455 114.801 49.3789 114.724 49.3185C114.648 49.2581 114.559 49.2149 114.464 49.1919C114.369 49.1689 114.271 49.1665 114.175 49.1851C114.079 49.2036 113.989 49.2425 113.909 49.2992C113.909 49.2992 113.909 49.3508 113.909 49.3456C114.061 49.3049 114.221 49.3118 114.368 49.3653C114.515 49.4189 114.642 49.5165 114.732 49.6449C114.879 49.8612 115.003 50.0931 115.099 50.3363C115.135 50.4189 115.275 50.3828 115.249 50.295C115.322 49.2063 114.551 47.6531 113.392 47.4932Z" fill="#1F1B2D"/>
<path d="M123.987 43.4782C121.664 44.9488 118.648 42.4927 118.648 42.4927C118.436 42.9848 118.068 43.3944 117.601 43.6598C117.135 43.9251 116.594 44.0316 116.061 43.9633C116.061 43.9633 115.482 47.7765 114.468 47.7352C112.916 47.6733 112.637 42.4308 113.159 41.4245C113.364 41.1037 113.634 40.8289 113.951 40.6175C114.268 40.4061 114.625 40.2627 115.001 40.1965C115.167 39.5801 115.561 39.0493 116.103 38.7104C117.184 37.9467 120.759 39.1541 120.759 39.1541C120.984 38.6773 121.319 38.2601 121.736 37.9364C121.836 37.8553 121.951 37.7953 122.075 37.7599C122.199 37.7244 122.328 37.7144 122.456 37.7303C122.584 37.7462 122.707 37.7878 122.818 37.8525C122.929 37.9171 123.026 38.0036 123.102 38.1067C122.899 38.3835 122.761 38.7029 122.699 39.0406C122.476 40.1552 123.397 40.1861 123.423 39.1696C123.446 38.7885 123.333 38.4116 123.102 38.1067C123.578 37.4617 124.328 37.2707 124.763 37.6423C125.601 38.3182 125.922 42.2553 123.987 43.4782Z" fill="#1F1B2D"/>
<path d="M111.156 59.8358C102.413 68.9122 89.6663 91.8948 88.0936 95.1921C87.0227 97.4315 98.7506 103.329 99.2473 101.699C99.8836 99.6348 110.111 73.8916 112.812 64.1856C114.312 58.8347 112.962 57.9575 111.156 59.8358Z" fill="#FFC3B0"/>
<path d="M99.8008 100.161C99.3921 101.275 98.0005 106.012 97.0227 106.6C96.045 107.188 90.9389 107.065 88.3626 107.065C85.7863 107.065 85.2586 106.347 85.3207 105.46C85.3827 104.572 90.7682 104.428 90.7682 104.428C90.7682 104.428 83.5514 106.492 81.7356 106.832C79.9197 107.173 75.7345 108.22 75.1292 106.719C74.8602 106.043 76.0035 105.357 76.0035 105.357C76.0035 105.357 74.2498 105.873 73.9704 104.995C73.6497 104.005 75.0465 103.447 75.0465 103.447C75.0465 103.447 73.9497 103.664 73.9239 102.859C73.867 101.053 80.7319 100.166 80.7319 100.166C80.7319 100.166 75.4759 102.72 75.3103 101.249C75.0723 99.1853 85.8483 96.9769 86.971 96.0893C87.7038 95.4729 88.313 94.7235 88.7661 93.8809L99.8008 100.161Z" fill="#FFC3B0"/>
<path d="M85.3637 105.909C85.3456 105.783 85.3583 105.655 85.4007 105.536C85.443 105.416 85.5138 105.309 85.6069 105.222C85.7933 105.053 86.0065 104.915 86.238 104.815C86.7142 104.613 87.2076 104.454 87.7124 104.34C88.7471 104.082 89.7817 103.902 90.8164 103.633C89.7451 103.617 88.6761 103.737 87.6348 103.989C87.1033 104.11 86.5913 104.305 86.1139 104.567C85.8672 104.703 85.6522 104.89 85.4827 105.114C85.3953 105.225 85.3384 105.356 85.3175 105.496C85.2966 105.635 85.3126 105.777 85.3637 105.909Z" fill="#1F1B2D"/>
<path d="M76.0058 105.337C76.7507 105.156 77.4802 104.945 78.2096 104.738C78.939 104.532 79.6685 104.3 80.3979 104.083L82.5707 103.402C83.295 103.175 84.0193 102.953 84.7539 102.736C83.9933 102.816 83.2395 102.951 82.4983 103.139C81.7534 103.304 81.0187 103.521 80.2893 103.737C79.5599 103.954 78.8356 104.202 78.1268 104.475C77.4181 104.749 76.699 105.027 76.0058 105.337Z" fill="#1F1B2D"/>
<path d="M83.0078 100.936C82.3118 100.981 81.6202 101.077 80.9385 101.225C80.2504 101.361 79.5701 101.533 78.9002 101.741C78.2294 101.948 77.5713 102.195 76.9292 102.478C76.2842 102.753 75.66 103.074 75.0616 103.438C75.7237 103.206 76.3704 102.953 77.0326 102.736C77.6948 102.52 78.3466 102.287 79.0088 102.086C79.671 101.885 80.3384 101.684 81.0057 101.488C81.6731 101.292 82.3508 101.121 83.0078 100.936Z" fill="#1F1B2D"/>
<path d="M81.9492 99.2158C79.6782 99.4181 77.4915 100.173 75.5809 101.414C76.6517 101.032 77.6864 100.635 78.747 100.279C79.8075 99.9227 80.868 99.5615 81.9492 99.2158Z" fill="#1F1B2D"/>
<path d="M112.704 66.7033C110.635 75.5992 100.717 99.9337 100.717 99.9337L91.8088 95.6509L87.3183 93.4889C87.3183 93.4889 102.616 69.6497 108.865 61.8529C109.352 61.2544 109.791 60.7384 110.195 60.3049C114.07 56.1769 114.308 59.8405 112.704 66.7033Z" fill="#FD5631"/>
<path d="M101.456 97.2869C96.2158 94.2477 90.2458 91.8535 89.237 91.3633C89.1904 91.3633 89.1594 91.42 89.2059 91.4407C90.2406 91.8741 96.7486 95.3468 101.425 97.3695C101.493 97.3901 101.493 97.2869 101.456 97.2869Z" fill="#1F1B2D"/>
<path d="M103.339 71.9297C103.298 72.2327 103.298 72.54 103.339 72.843C103.377 73.1457 103.459 73.4412 103.582 73.7202C103.629 73.4193 103.629 73.113 103.582 72.8121C103.544 72.5079 103.462 72.2107 103.339 71.9297Z" fill="white"/>
<path d="M107.46 79.7441C107.419 80.0472 107.419 80.3544 107.46 80.6575C107.499 80.96 107.581 81.2554 107.703 81.5347C107.75 81.232 107.75 80.924 107.703 80.6213C107.666 80.3187 107.584 80.0232 107.46 79.7441Z" fill="white"/>
<path d="M97.0799 92.0801C97.0385 92.3814 97.0385 92.6869 97.0799 92.9882C97.1201 93.2927 97.2038 93.5898 97.3283 93.8706C97.3697 93.5676 97.3697 93.2603 97.3283 92.9573C97.2887 92.6544 97.205 92.3589 97.0799 92.0801Z" fill="white"/>
<path d="M97.3956 78.5498C97.349 78.8507 97.349 79.157 97.3956 79.458C97.4341 79.7621 97.516 80.0593 97.6388 80.3403C97.6829 80.0375 97.6829 79.7299 97.6388 79.427C97.601 79.1244 97.5191 78.8288 97.3956 78.5498Z" fill="white"/>
<path d="M94.2492 84.252C94.2077 84.555 94.2077 84.8622 94.2492 85.1653C94.2876 85.4695 94.3695 85.7666 94.4923 86.0476C94.539 85.745 94.539 85.437 94.4923 85.1343C94.4539 84.8301 94.372 84.533 94.2492 84.252Z" fill="white"/>
<path d="M108.221 63.4122C108.524 63.4561 108.833 63.4561 109.136 63.4122C109.44 63.3745 109.736 63.2928 110.016 63.1696C109.714 63.1283 109.407 63.1283 109.105 63.1696C108.8 63.2081 108.502 63.2898 108.221 63.4122Z" fill="white"/>
<path d="M108.306 72.2753C108.917 72.3426 109.535 72.2538 110.102 72.0173C109.798 71.976 109.49 71.976 109.186 72.0173C108.882 72.0607 108.586 72.1476 108.306 72.2753Z" fill="white"/>
<path d="M100.232 77.0287C100.534 77.07 100.841 77.07 101.143 77.0287C101.448 76.9886 101.746 76.9052 102.027 76.781C101.724 76.7371 101.415 76.7371 101.112 76.781C100.808 76.8204 100.512 76.9038 100.232 77.0287Z" fill="white"/>
<path d="M92.1814 94.9815C92.4835 95.0228 92.7899 95.0228 93.092 94.9815C93.3964 94.9408 93.694 94.8592 93.9766 94.739C93.6731 94.6925 93.3644 94.6925 93.0609 94.739C92.7575 94.7767 92.4612 94.8584 92.1814 94.9815Z" fill="white"/>
<path d="M100.588 95.2785C100.89 95.3198 101.196 95.3198 101.498 95.2785C101.803 95.2401 102.101 95.1584 102.383 95.0359C102.079 94.9893 101.771 94.9893 101.467 95.0359C101.164 95.0736 100.867 95.1553 100.588 95.2785Z" fill="white"/>
<path d="M103.045 86.4047C103.349 86.446 103.657 86.446 103.96 86.4047C104.264 86.3645 104.56 86.2811 104.84 86.157C104.536 86.1156 104.228 86.1156 103.924 86.157C103.621 86.1989 103.325 86.2823 103.045 86.4047Z" fill="white"/>
<path d="M95.0586 88.8252C94.8172 89.0133 94.603 89.2338 94.4223 89.4805C94.2316 89.7203 94.0797 89.9885 93.9722 90.2752C94.2148 90.0884 94.4291 89.8677 94.6085 89.6198C94.7971 89.3786 94.9487 89.1108 95.0586 88.8252Z" fill="white"/>
<path d="M106.938 76.1758C106.696 76.3621 106.482 76.5809 106.301 76.8259C106.114 77.0684 105.963 77.3359 105.851 77.6206C106.094 77.4356 106.308 77.2167 106.487 76.9704C106.677 76.7299 106.829 76.462 106.938 76.1758Z" fill="white"/>
<path d="M111.184 66.1406C110.941 66.3274 110.727 66.5481 110.547 66.7959C110.359 67.0372 110.207 67.305 110.097 67.5906C110.34 67.4038 110.554 67.1831 110.734 66.9353C110.924 66.6954 111.076 66.4273 111.184 66.1406Z" fill="white"/>
<path d="M98.9062 82.8076C98.6622 82.9924 98.4461 83.2114 98.2648 83.4578C98.0799 83.7015 97.9286 83.9687 97.8147 84.2524C98.0588 84.0676 98.2748 83.8486 98.4562 83.6023C98.6421 83.3592 98.7935 83.0919 98.9062 82.8076Z" fill="white"/>
<path d="M102.559 90.6309C102.316 90.8189 102.1 91.0394 101.917 91.2862C101.73 91.5285 101.579 91.796 101.467 92.0808C101.951 91.7004 102.327 91.2006 102.559 90.6309Z" fill="white"/>
<path d="M91.5312 91.4813C91.1498 90.9985 90.6488 90.6232 90.0776 90.3926C90.459 90.8754 90.96 91.2507 91.5312 91.4813Z" fill="white"/>
<path d="M98.9062 97.9107C98.719 97.6688 98.4977 97.455 98.2492 97.2761C98.0088 97.0858 97.74 96.9344 97.4526 96.8271C97.6398 97.0691 97.8611 97.2829 98.1096 97.4618C98.3514 97.6499 98.6199 97.8012 98.9062 97.9107Z" fill="white"/>
<path d="M99.6484 88.5663C99.267 88.0835 98.766 87.7082 98.1947 87.4775C98.3833 87.7199 98.6044 87.9351 98.8518 88.1174C99.0947 88.3038 99.3629 88.455 99.6484 88.5663Z" fill="white"/>
<path d="M107.039 69.2684C106.854 69.025 106.634 68.8095 106.387 68.6286C106.144 68.4421 105.876 68.291 105.591 68.1797C105.777 68.4243 105.998 68.6399 106.248 68.8195C106.489 69.0049 106.756 69.1559 107.039 69.2684Z" fill="white"/>
<path d="M113.184 61.8632C112.998 61.6197 112.779 61.4042 112.532 61.2233C112.288 61.0379 112.02 60.8869 111.735 60.7744C111.92 61.0178 112.14 61.2333 112.387 61.4142C112.631 61.5986 112.899 61.7496 113.184 61.8632Z" fill="white"/>
<path d="M103.477 81.7255C103.29 81.4833 103.07 81.268 102.825 81.0856C102.58 80.9013 102.312 80.7503 102.028 80.6367C102.213 80.8801 102.433 81.0957 102.68 81.2766C102.924 81.4609 103.192 81.6119 103.477 81.7255Z" fill="white"/>
</svg>
